G04 #@! TF.FileFunction,Legend,Bot*
%FSLAX46Y46*%
G04 Gerber Fmt 4.6, Leading zero omitted, Abs format (unit mm)*
G04 Created by KiCad (PCBNEW (after 2015-mar-04 BZR unknown)-product) date Wed May  6 18:15:44 2015*
%MOMM*%
G01*
G04 APERTURE LIST*
%ADD10C,0.100000*%
%ADD11C,0.177800*%
%ADD12C,0.152400*%
%ADD13C,0.300000*%
%ADD14C,0.200000*%
%ADD15C,0.150000*%
%ADD16C,0.203200*%
%ADD17C,0.099060*%
%ADD18C,0.127000*%
%ADD19C,0.304800*%
%ADD20C,0.149860*%
G04 APERTURE END LIST*
D10*
D11*
X70104524Y-93706667D02*
X71374524Y-94130001D01*
X70104524Y-94553334D01*
X71253571Y-95702381D02*
X71314048Y-95641905D01*
X71374524Y-95460476D01*
X71374524Y-95339524D01*
X71314048Y-95158096D01*
X71193095Y-95037143D01*
X71072143Y-94976667D01*
X70830238Y-94916191D01*
X70648810Y-94916191D01*
X70406905Y-94976667D01*
X70285952Y-95037143D01*
X70165000Y-95158096D01*
X70104524Y-95339524D01*
X70104524Y-95460476D01*
X70165000Y-95641905D01*
X70225476Y-95702381D01*
X71253571Y-96972381D02*
X71314048Y-96911905D01*
X71374524Y-96730476D01*
X71374524Y-96609524D01*
X71314048Y-96428096D01*
X71193095Y-96307143D01*
X71072143Y-96246667D01*
X70830238Y-96186191D01*
X70648810Y-96186191D01*
X70406905Y-96246667D01*
X70285952Y-96307143D01*
X70165000Y-96428096D01*
X70104524Y-96609524D01*
X70104524Y-96730476D01*
X70165000Y-96911905D01*
X70225476Y-96972381D01*
X62765000Y-94432381D02*
X62704524Y-94311429D01*
X62704524Y-94130000D01*
X62765000Y-93948572D01*
X62885952Y-93827619D01*
X63006905Y-93767143D01*
X63248810Y-93706667D01*
X63430238Y-93706667D01*
X63672143Y-93767143D01*
X63793095Y-93827619D01*
X63914048Y-93948572D01*
X63974524Y-94130000D01*
X63974524Y-94250952D01*
X63914048Y-94432381D01*
X63853571Y-94492857D01*
X63430238Y-94492857D01*
X63430238Y-94250952D01*
X63974524Y-95037143D02*
X62704524Y-95037143D01*
X63974524Y-95762857D01*
X62704524Y-95762857D01*
X63974524Y-96367619D02*
X62704524Y-96367619D01*
X62704524Y-96670000D01*
X62765000Y-96851428D01*
X62885952Y-96972381D01*
X63006905Y-97032857D01*
X63248810Y-97093333D01*
X63430238Y-97093333D01*
X63672143Y-97032857D01*
X63793095Y-96972381D01*
X63914048Y-96851428D01*
X63974524Y-96670000D01*
X63974524Y-96367619D01*
D12*
X76406324Y-130643619D02*
X75903162Y-130643619D01*
X76174095Y-131030667D01*
X76057981Y-131030667D01*
X75980571Y-131079048D01*
X75941867Y-131127429D01*
X75903162Y-131224190D01*
X75903162Y-131466095D01*
X75941867Y-131562857D01*
X75980571Y-131611238D01*
X76057981Y-131659619D01*
X76290209Y-131659619D01*
X76367619Y-131611238D01*
X76406324Y-131562857D01*
X75670933Y-130643619D02*
X75400000Y-131659619D01*
X75129067Y-130643619D01*
X74935543Y-130643619D02*
X74432381Y-130643619D01*
X74703314Y-131030667D01*
X74587200Y-131030667D01*
X74509790Y-131079048D01*
X74471086Y-131127429D01*
X74432381Y-131224190D01*
X74432381Y-131466095D01*
X74471086Y-131562857D01*
X74509790Y-131611238D01*
X74587200Y-131659619D01*
X74819428Y-131659619D01*
X74896838Y-131611238D01*
X74935543Y-131562857D01*
X76503085Y-129011238D02*
X76386971Y-129059619D01*
X76193447Y-129059619D01*
X76116037Y-129011238D01*
X76077333Y-128962857D01*
X76038628Y-128866095D01*
X76038628Y-128769333D01*
X76077333Y-128672571D01*
X76116037Y-128624190D01*
X76193447Y-128575810D01*
X76348266Y-128527429D01*
X76425675Y-128479048D01*
X76464380Y-128430667D01*
X76503085Y-128333905D01*
X76503085Y-128237143D01*
X76464380Y-128140381D01*
X76425675Y-128092000D01*
X76348266Y-128043619D01*
X76154742Y-128043619D01*
X76038628Y-128092000D01*
X75767695Y-128043619D02*
X75574171Y-129059619D01*
X75419352Y-128333905D01*
X75264533Y-129059619D01*
X75071009Y-128043619D01*
X74296914Y-128962857D02*
X74335619Y-129011238D01*
X74451733Y-129059619D01*
X74529143Y-129059619D01*
X74645257Y-129011238D01*
X74722666Y-128914476D01*
X74761371Y-128817714D01*
X74800076Y-128624190D01*
X74800076Y-128479048D01*
X74761371Y-128285524D01*
X74722666Y-128188762D01*
X74645257Y-128092000D01*
X74529143Y-128043619D01*
X74451733Y-128043619D01*
X74335619Y-128092000D01*
X74296914Y-128140381D01*
X76019276Y-125592000D02*
X76096685Y-125543619D01*
X76212800Y-125543619D01*
X76328914Y-125592000D01*
X76406323Y-125688762D01*
X76445028Y-125785524D01*
X76483733Y-125979048D01*
X76483733Y-126124190D01*
X76445028Y-126317714D01*
X76406323Y-126414476D01*
X76328914Y-126511238D01*
X76212800Y-126559619D01*
X76135390Y-126559619D01*
X76019276Y-126511238D01*
X75980571Y-126462857D01*
X75980571Y-126124190D01*
X76135390Y-126124190D01*
X75632228Y-126559619D02*
X75632228Y-125543619D01*
X75167771Y-126559619D01*
X75167771Y-125543619D01*
X74780723Y-126559619D02*
X74780723Y-125543619D01*
X74587199Y-125543619D01*
X74471085Y-125592000D01*
X74393676Y-125688762D01*
X74354971Y-125785524D01*
X74316266Y-125979048D01*
X74316266Y-126124190D01*
X74354971Y-126317714D01*
X74393676Y-126414476D01*
X74471085Y-126511238D01*
X74587199Y-126559619D01*
X74780723Y-126559619D01*
X76503085Y-124011238D02*
X76386971Y-124059619D01*
X76193447Y-124059619D01*
X76116037Y-124011238D01*
X76077333Y-123962857D01*
X76038628Y-123866095D01*
X76038628Y-123769333D01*
X76077333Y-123672571D01*
X76116037Y-123624190D01*
X76193447Y-123575810D01*
X76348266Y-123527429D01*
X76425675Y-123479048D01*
X76464380Y-123430667D01*
X76503085Y-123333905D01*
X76503085Y-123237143D01*
X76464380Y-123140381D01*
X76425675Y-123092000D01*
X76348266Y-123043619D01*
X76154742Y-123043619D01*
X76038628Y-123092000D01*
X75767695Y-123043619D02*
X75574171Y-124059619D01*
X75419352Y-123333905D01*
X75264533Y-124059619D01*
X75071009Y-123043619D01*
X74761371Y-124059619D02*
X74761371Y-123043619D01*
X74567847Y-123043619D01*
X74451733Y-123092000D01*
X74374324Y-123188762D01*
X74335619Y-123285524D01*
X74296914Y-123479048D01*
X74296914Y-123624190D01*
X74335619Y-123817714D01*
X74374324Y-123914476D01*
X74451733Y-124011238D01*
X74567847Y-124059619D01*
X74761371Y-124059619D01*
X75845104Y-121459619D02*
X76116037Y-120975810D01*
X76309561Y-121459619D02*
X76309561Y-120443619D01*
X75999923Y-120443619D01*
X75922514Y-120492000D01*
X75883809Y-120540381D01*
X75845104Y-120637143D01*
X75845104Y-120782286D01*
X75883809Y-120879048D01*
X75922514Y-120927429D01*
X75999923Y-120975810D01*
X76309561Y-120975810D01*
X75535466Y-121411238D02*
X75419352Y-121459619D01*
X75225828Y-121459619D01*
X75148418Y-121411238D01*
X75109714Y-121362857D01*
X75071009Y-121266095D01*
X75071009Y-121169333D01*
X75109714Y-121072571D01*
X75148418Y-121024190D01*
X75225828Y-120975810D01*
X75380647Y-120927429D01*
X75458056Y-120879048D01*
X75496761Y-120830667D01*
X75535466Y-120733905D01*
X75535466Y-120637143D01*
X75496761Y-120540381D01*
X75458056Y-120492000D01*
X75380647Y-120443619D01*
X75187123Y-120443619D01*
X75071009Y-120492000D01*
X74838780Y-120443619D02*
X74374323Y-120443619D01*
X74606552Y-121459619D02*
X74606552Y-120443619D01*
D13*
X138585712Y-71478571D02*
X137657141Y-71478571D01*
X138157141Y-72050000D01*
X137942855Y-72050000D01*
X137799998Y-72121429D01*
X137728569Y-72192857D01*
X137657141Y-72335714D01*
X137657141Y-72692857D01*
X137728569Y-72835714D01*
X137799998Y-72907143D01*
X137942855Y-72978571D01*
X138371427Y-72978571D01*
X138514284Y-72907143D01*
X138585712Y-72835714D01*
X137014284Y-72978571D02*
X137014284Y-71478571D01*
X136657141Y-71478571D01*
X136442856Y-71550000D01*
X136299998Y-71692857D01*
X136228570Y-71835714D01*
X136157141Y-72121429D01*
X136157141Y-72335714D01*
X136228570Y-72621429D01*
X136299998Y-72764286D01*
X136442856Y-72907143D01*
X136657141Y-72978571D01*
X137014284Y-72978571D01*
X134371427Y-72978571D02*
X134371427Y-71478571D01*
X133799999Y-71478571D01*
X133657141Y-71550000D01*
X133585713Y-71621429D01*
X133514284Y-71764286D01*
X133514284Y-71978571D01*
X133585713Y-72121429D01*
X133657141Y-72192857D01*
X133799999Y-72264286D01*
X134371427Y-72264286D01*
X132585713Y-71478571D02*
X132299999Y-71478571D01*
X132157141Y-71550000D01*
X132014284Y-71692857D01*
X131942856Y-71978571D01*
X131942856Y-72478571D01*
X132014284Y-72764286D01*
X132157141Y-72907143D01*
X132299999Y-72978571D01*
X132585713Y-72978571D01*
X132728570Y-72907143D01*
X132871427Y-72764286D01*
X132942856Y-72478571D01*
X132942856Y-71978571D01*
X132871427Y-71692857D01*
X132728570Y-71550000D01*
X132585713Y-71478571D01*
X131514284Y-71478571D02*
X131014284Y-72978571D01*
X130514284Y-71478571D01*
X128871427Y-72978571D02*
X128871427Y-71978571D01*
X128871427Y-72264286D02*
X128799999Y-72121429D01*
X128728570Y-72050000D01*
X128585713Y-71978571D01*
X128442856Y-71978571D01*
X127371428Y-72907143D02*
X127514285Y-72978571D01*
X127799999Y-72978571D01*
X127942856Y-72907143D01*
X128014285Y-72764286D01*
X128014285Y-72192857D01*
X127942856Y-72050000D01*
X127799999Y-71978571D01*
X127514285Y-71978571D01*
X127371428Y-72050000D01*
X127299999Y-72192857D01*
X127299999Y-72335714D01*
X128014285Y-72478571D01*
X126799999Y-71978571D02*
X126442856Y-72978571D01*
X126085714Y-71978571D01*
X124728571Y-72978571D02*
X125585714Y-72978571D01*
X125157142Y-72978571D02*
X125157142Y-71478571D01*
X125299999Y-71692857D01*
X125442857Y-71835714D01*
X125585714Y-71907143D01*
X119514286Y-72978571D02*
X119514286Y-71478571D01*
X119371429Y-72407143D02*
X118942858Y-72978571D01*
X118942858Y-71978571D02*
X119514286Y-72550000D01*
X118300000Y-71978571D02*
X118300000Y-72978571D01*
X118300000Y-72121429D02*
X118228572Y-72050000D01*
X118085714Y-71978571D01*
X117871429Y-71978571D01*
X117728572Y-72050000D01*
X117657143Y-72192857D01*
X117657143Y-72978571D01*
X116942857Y-72978571D02*
X116942857Y-71978571D01*
X116942857Y-71478571D02*
X117014286Y-71550000D01*
X116942857Y-71621429D01*
X116871429Y-71550000D01*
X116942857Y-71478571D01*
X116942857Y-71621429D01*
X115657143Y-72907143D02*
X115800000Y-72978571D01*
X116085714Y-72978571D01*
X116228571Y-72907143D01*
X116300000Y-72764286D01*
X116300000Y-72192857D01*
X116228571Y-72050000D01*
X116085714Y-71978571D01*
X115800000Y-71978571D01*
X115657143Y-72050000D01*
X115585714Y-72192857D01*
X115585714Y-72335714D01*
X116300000Y-72478571D01*
X114728571Y-72978571D02*
X114871429Y-72907143D01*
X114942857Y-72764286D01*
X114942857Y-71478571D01*
X114228572Y-72907143D02*
X114085715Y-72978571D01*
X113800000Y-72978571D01*
X113657143Y-72907143D01*
X113585715Y-72764286D01*
X113585715Y-72692857D01*
X113657143Y-72550000D01*
X113800000Y-72478571D01*
X114014286Y-72478571D01*
X114157143Y-72407143D01*
X114228572Y-72264286D01*
X114228572Y-72192857D01*
X114157143Y-72050000D01*
X114014286Y-71978571D01*
X113800000Y-71978571D01*
X113657143Y-72050000D01*
X112371429Y-72907143D02*
X112514286Y-72978571D01*
X112800000Y-72978571D01*
X112942857Y-72907143D01*
X113014286Y-72764286D01*
X113014286Y-72192857D01*
X112942857Y-72050000D01*
X112800000Y-71978571D01*
X112514286Y-71978571D01*
X112371429Y-72050000D01*
X112300000Y-72192857D01*
X112300000Y-72335714D01*
X113014286Y-72478571D01*
X111657143Y-71978571D02*
X111657143Y-72978571D01*
X111657143Y-72121429D02*
X111585715Y-72050000D01*
X111442857Y-71978571D01*
X111228572Y-71978571D01*
X111085715Y-72050000D01*
X111014286Y-72192857D01*
X111014286Y-72978571D01*
X109228572Y-71621429D02*
X109157143Y-71550000D01*
X109014286Y-71478571D01*
X108657143Y-71478571D01*
X108514286Y-71550000D01*
X108442857Y-71621429D01*
X108371429Y-71764286D01*
X108371429Y-71907143D01*
X108442857Y-72121429D01*
X109300000Y-72978571D01*
X108371429Y-72978571D01*
X107442858Y-71478571D02*
X107300001Y-71478571D01*
X107157144Y-71550000D01*
X107085715Y-71621429D01*
X107014286Y-71764286D01*
X106942858Y-72050000D01*
X106942858Y-72407143D01*
X107014286Y-72692857D01*
X107085715Y-72835714D01*
X107157144Y-72907143D01*
X107300001Y-72978571D01*
X107442858Y-72978571D01*
X107585715Y-72907143D01*
X107657144Y-72835714D01*
X107728572Y-72692857D01*
X107800001Y-72407143D01*
X107800001Y-72050000D01*
X107728572Y-71764286D01*
X107657144Y-71621429D01*
X107585715Y-71550000D01*
X107442858Y-71478571D01*
X105514287Y-72978571D02*
X106371430Y-72978571D01*
X105942858Y-72978571D02*
X105942858Y-71478571D01*
X106085715Y-71692857D01*
X106228573Y-71835714D01*
X106371430Y-71907143D01*
X104157144Y-71478571D02*
X104871430Y-71478571D01*
X104942859Y-72192857D01*
X104871430Y-72121429D01*
X104728573Y-72050000D01*
X104371430Y-72050000D01*
X104228573Y-72121429D01*
X104157144Y-72192857D01*
X104085716Y-72335714D01*
X104085716Y-72692857D01*
X104157144Y-72835714D01*
X104228573Y-72907143D01*
X104371430Y-72978571D01*
X104728573Y-72978571D01*
X104871430Y-72907143D01*
X104942859Y-72835714D01*
X138521430Y-127178571D02*
X138521430Y-125678571D01*
X137878573Y-127178571D02*
X137878573Y-126392857D01*
X137950002Y-126250000D01*
X138092859Y-126178571D01*
X138307144Y-126178571D01*
X138450002Y-126250000D01*
X138521430Y-126321429D01*
X137378573Y-126178571D02*
X136807144Y-126178571D01*
X137164287Y-125678571D02*
X137164287Y-126964286D01*
X137092859Y-127107143D01*
X136950001Y-127178571D01*
X136807144Y-127178571D01*
X136521430Y-126178571D02*
X135950001Y-126178571D01*
X136307144Y-125678571D02*
X136307144Y-126964286D01*
X136235716Y-127107143D01*
X136092858Y-127178571D01*
X135950001Y-127178571D01*
X135450001Y-126178571D02*
X135450001Y-127678571D01*
X135450001Y-126250000D02*
X135307144Y-126178571D01*
X135021430Y-126178571D01*
X134878573Y-126250000D01*
X134807144Y-126321429D01*
X134735715Y-126464286D01*
X134735715Y-126892857D01*
X134807144Y-127035714D01*
X134878573Y-127107143D01*
X135021430Y-127178571D01*
X135307144Y-127178571D01*
X135450001Y-127107143D01*
X134092858Y-127035714D02*
X134021430Y-127107143D01*
X134092858Y-127178571D01*
X134164287Y-127107143D01*
X134092858Y-127035714D01*
X134092858Y-127178571D01*
X134092858Y-126250000D02*
X134021430Y-126321429D01*
X134092858Y-126392857D01*
X134164287Y-126321429D01*
X134092858Y-126250000D01*
X134092858Y-126392857D01*
X132307144Y-125607143D02*
X133592858Y-127535714D01*
X130735715Y-125607143D02*
X132021429Y-127535714D01*
X130235714Y-127178571D02*
X130235714Y-125678571D01*
X130092857Y-126607143D02*
X129664286Y-127178571D01*
X129664286Y-126178571D02*
X130235714Y-126750000D01*
X129021428Y-126178571D02*
X129021428Y-127178571D01*
X129021428Y-126321429D02*
X128950000Y-126250000D01*
X128807142Y-126178571D01*
X128592857Y-126178571D01*
X128450000Y-126250000D01*
X128378571Y-126392857D01*
X128378571Y-127178571D01*
X127664285Y-127178571D02*
X127664285Y-126178571D01*
X127664285Y-125678571D02*
X127735714Y-125750000D01*
X127664285Y-125821429D01*
X127592857Y-125750000D01*
X127664285Y-125678571D01*
X127664285Y-125821429D01*
X126378571Y-127107143D02*
X126521428Y-127178571D01*
X126807142Y-127178571D01*
X126949999Y-127107143D01*
X127021428Y-126964286D01*
X127021428Y-126392857D01*
X126949999Y-126250000D01*
X126807142Y-126178571D01*
X126521428Y-126178571D01*
X126378571Y-126250000D01*
X126307142Y-126392857D01*
X126307142Y-126535714D01*
X127021428Y-126678571D01*
X125449999Y-127178571D02*
X125592857Y-127107143D01*
X125664285Y-126964286D01*
X125664285Y-125678571D01*
X124950000Y-127107143D02*
X124807143Y-127178571D01*
X124521428Y-127178571D01*
X124378571Y-127107143D01*
X124307143Y-126964286D01*
X124307143Y-126892857D01*
X124378571Y-126750000D01*
X124521428Y-126678571D01*
X124735714Y-126678571D01*
X124878571Y-126607143D01*
X124950000Y-126464286D01*
X124950000Y-126392857D01*
X124878571Y-126250000D01*
X124735714Y-126178571D01*
X124521428Y-126178571D01*
X124378571Y-126250000D01*
X123092857Y-127107143D02*
X123235714Y-127178571D01*
X123521428Y-127178571D01*
X123664285Y-127107143D01*
X123735714Y-126964286D01*
X123735714Y-126392857D01*
X123664285Y-126250000D01*
X123521428Y-126178571D01*
X123235714Y-126178571D01*
X123092857Y-126250000D01*
X123021428Y-126392857D01*
X123021428Y-126535714D01*
X123735714Y-126678571D01*
X122378571Y-126178571D02*
X122378571Y-127178571D01*
X122378571Y-126321429D02*
X122307143Y-126250000D01*
X122164285Y-126178571D01*
X121950000Y-126178571D01*
X121807143Y-126250000D01*
X121735714Y-126392857D01*
X121735714Y-127178571D01*
X121021428Y-126607143D02*
X119878571Y-126607143D01*
X119164285Y-127178571D02*
X119164285Y-125678571D01*
X118521428Y-127178571D02*
X118521428Y-126392857D01*
X118592857Y-126250000D01*
X118735714Y-126178571D01*
X118949999Y-126178571D01*
X119092857Y-126250000D01*
X119164285Y-126321429D01*
X117164285Y-126178571D02*
X117164285Y-127678571D01*
X117164285Y-127107143D02*
X117307142Y-127178571D01*
X117592856Y-127178571D01*
X117735714Y-127107143D01*
X117807142Y-127035714D01*
X117878571Y-126892857D01*
X117878571Y-126464286D01*
X117807142Y-126321429D01*
X117735714Y-126250000D01*
X117592856Y-126178571D01*
X117307142Y-126178571D01*
X117164285Y-126250000D01*
X116449999Y-127035714D02*
X116378571Y-127107143D01*
X116449999Y-127178571D01*
X116521428Y-127107143D01*
X116449999Y-127035714D01*
X116449999Y-127178571D01*
X115521427Y-127178571D02*
X115664285Y-127107143D01*
X115735713Y-127035714D01*
X115807142Y-126892857D01*
X115807142Y-126464286D01*
X115735713Y-126321429D01*
X115664285Y-126250000D01*
X115521427Y-126178571D01*
X115307142Y-126178571D01*
X115164285Y-126250000D01*
X115092856Y-126321429D01*
X115021427Y-126464286D01*
X115021427Y-126892857D01*
X115092856Y-127035714D01*
X115164285Y-127107143D01*
X115307142Y-127178571D01*
X115521427Y-127178571D01*
X114378570Y-127178571D02*
X114378570Y-126178571D01*
X114378570Y-126464286D02*
X114307142Y-126321429D01*
X114235713Y-126250000D01*
X114092856Y-126178571D01*
X113949999Y-126178571D01*
X112807142Y-126178571D02*
X112807142Y-127392857D01*
X112878571Y-127535714D01*
X112949999Y-127607143D01*
X113092856Y-127678571D01*
X113307142Y-127678571D01*
X113449999Y-127607143D01*
X112807142Y-127107143D02*
X112949999Y-127178571D01*
X113235713Y-127178571D01*
X113378571Y-127107143D01*
X113449999Y-127035714D01*
X113521428Y-126892857D01*
X113521428Y-126464286D01*
X113449999Y-126321429D01*
X113378571Y-126250000D01*
X113235713Y-126178571D01*
X112949999Y-126178571D01*
X112807142Y-126250000D01*
X111021428Y-125607143D02*
X112307142Y-127535714D01*
X110521427Y-126178571D02*
X110521427Y-127678571D01*
X110521427Y-126250000D02*
X110378570Y-126178571D01*
X110092856Y-126178571D01*
X109949999Y-126250000D01*
X109878570Y-126321429D01*
X109807141Y-126464286D01*
X109807141Y-126892857D01*
X109878570Y-127035714D01*
X109949999Y-127107143D01*
X110092856Y-127178571D01*
X110378570Y-127178571D01*
X110521427Y-127107143D01*
X108949998Y-127178571D02*
X109092856Y-127107143D01*
X109164284Y-127035714D01*
X109235713Y-126892857D01*
X109235713Y-126464286D01*
X109164284Y-126321429D01*
X109092856Y-126250000D01*
X108949998Y-126178571D01*
X108735713Y-126178571D01*
X108592856Y-126250000D01*
X108521427Y-126321429D01*
X108449998Y-126464286D01*
X108449998Y-126892857D01*
X108521427Y-127035714D01*
X108592856Y-127107143D01*
X108735713Y-127178571D01*
X108949998Y-127178571D01*
X107949998Y-126178571D02*
X107592855Y-127178571D01*
X107235713Y-126178571D01*
X106807141Y-125678571D02*
X105878570Y-125678571D01*
X106378570Y-126250000D01*
X106164284Y-126250000D01*
X106021427Y-126321429D01*
X105949998Y-126392857D01*
X105878570Y-126535714D01*
X105878570Y-126892857D01*
X105949998Y-127035714D01*
X106021427Y-127107143D01*
X106164284Y-127178571D01*
X106592856Y-127178571D01*
X106735713Y-127107143D01*
X106807141Y-127035714D01*
X104592856Y-127178571D02*
X104592856Y-125678571D01*
X104592856Y-127107143D02*
X104735713Y-127178571D01*
X105021427Y-127178571D01*
X105164285Y-127107143D01*
X105235713Y-127035714D01*
X105307142Y-126892857D01*
X105307142Y-126464286D01*
X105235713Y-126321429D01*
X105164285Y-126250000D01*
X105021427Y-126178571D01*
X104735713Y-126178571D01*
X104592856Y-126250000D01*
X103878570Y-127035714D02*
X103807142Y-127107143D01*
X103878570Y-127178571D01*
X103949999Y-127107143D01*
X103878570Y-127035714D01*
X103878570Y-127178571D01*
X103164284Y-127178571D02*
X103164284Y-125678571D01*
X102521427Y-127178571D02*
X102521427Y-126392857D01*
X102592856Y-126250000D01*
X102735713Y-126178571D01*
X102949998Y-126178571D01*
X103092856Y-126250000D01*
X103164284Y-126321429D01*
X102021427Y-126178571D02*
X101449998Y-126178571D01*
X101807141Y-125678571D02*
X101807141Y-126964286D01*
X101735713Y-127107143D01*
X101592855Y-127178571D01*
X101449998Y-127178571D01*
X100949998Y-127178571D02*
X100949998Y-126178571D01*
X100949998Y-126321429D02*
X100878570Y-126250000D01*
X100735712Y-126178571D01*
X100521427Y-126178571D01*
X100378570Y-126250000D01*
X100307141Y-126392857D01*
X100307141Y-127178571D01*
X100307141Y-126392857D02*
X100235712Y-126250000D01*
X100092855Y-126178571D01*
X99878570Y-126178571D01*
X99735712Y-126250000D01*
X99664284Y-126392857D01*
X99664284Y-127178571D01*
X98735712Y-127178571D02*
X98878570Y-127107143D01*
X98949998Y-126964286D01*
X98949998Y-125678571D01*
X58242857Y-113250000D02*
X58385714Y-113178571D01*
X58600000Y-113178571D01*
X58814285Y-113250000D01*
X58957143Y-113392857D01*
X59028571Y-113535714D01*
X59100000Y-113821429D01*
X59100000Y-114035714D01*
X59028571Y-114321429D01*
X58957143Y-114464286D01*
X58814285Y-114607143D01*
X58600000Y-114678571D01*
X58457143Y-114678571D01*
X58242857Y-114607143D01*
X58171428Y-114535714D01*
X58171428Y-114035714D01*
X58457143Y-114035714D01*
X57528571Y-114678571D02*
X57528571Y-113178571D01*
X56671428Y-114678571D01*
X56671428Y-113178571D01*
X55957142Y-114678571D02*
X55957142Y-113178571D01*
X55599999Y-113178571D01*
X55385714Y-113250000D01*
X55242856Y-113392857D01*
X55171428Y-113535714D01*
X55099999Y-113821429D01*
X55099999Y-114035714D01*
X55171428Y-114321429D01*
X55242856Y-114464286D01*
X55385714Y-114607143D01*
X55599999Y-114678571D01*
X55957142Y-114678571D01*
X58857142Y-110678571D02*
X57928571Y-110678571D01*
X58428571Y-111250000D01*
X58214285Y-111250000D01*
X58071428Y-111321429D01*
X57999999Y-111392857D01*
X57928571Y-111535714D01*
X57928571Y-111892857D01*
X57999999Y-112035714D01*
X58071428Y-112107143D01*
X58214285Y-112178571D01*
X58642857Y-112178571D01*
X58785714Y-112107143D01*
X58857142Y-112035714D01*
X57500000Y-110678571D02*
X57000000Y-112178571D01*
X56500000Y-110678571D01*
X56142857Y-110678571D02*
X55214286Y-110678571D01*
X55714286Y-111250000D01*
X55500000Y-111250000D01*
X55357143Y-111321429D01*
X55285714Y-111392857D01*
X55214286Y-111535714D01*
X55214286Y-111892857D01*
X55285714Y-112035714D01*
X55357143Y-112107143D01*
X55500000Y-112178571D01*
X55928572Y-112178571D01*
X56071429Y-112107143D01*
X56142857Y-112035714D01*
X60371428Y-109578571D02*
X60371428Y-108078571D01*
X59800000Y-108078571D01*
X59657142Y-108150000D01*
X59585714Y-108221429D01*
X59514285Y-108364286D01*
X59514285Y-108578571D01*
X59585714Y-108721429D01*
X59657142Y-108792857D01*
X59800000Y-108864286D01*
X60371428Y-108864286D01*
X58014285Y-109435714D02*
X58085714Y-109507143D01*
X58300000Y-109578571D01*
X58442857Y-109578571D01*
X58657142Y-109507143D01*
X58800000Y-109364286D01*
X58871428Y-109221429D01*
X58942857Y-108935714D01*
X58942857Y-108721429D01*
X58871428Y-108435714D01*
X58800000Y-108292857D01*
X58657142Y-108150000D01*
X58442857Y-108078571D01*
X58300000Y-108078571D01*
X58085714Y-108150000D01*
X58014285Y-108221429D01*
X56585714Y-109578571D02*
X57442857Y-109578571D01*
X57014285Y-109578571D02*
X57014285Y-108078571D01*
X57157142Y-108292857D01*
X57300000Y-108435714D01*
X57442857Y-108507143D01*
X55228571Y-108078571D02*
X55942857Y-108078571D01*
X56014286Y-108792857D01*
X55942857Y-108721429D01*
X55800000Y-108650000D01*
X55442857Y-108650000D01*
X55300000Y-108721429D01*
X55228571Y-108792857D01*
X55157143Y-108935714D01*
X55157143Y-109292857D01*
X55228571Y-109435714D01*
X55300000Y-109507143D01*
X55442857Y-109578571D01*
X55800000Y-109578571D01*
X55942857Y-109507143D01*
X56014286Y-109435714D01*
X60371428Y-107078571D02*
X60371428Y-105578571D01*
X59800000Y-105578571D01*
X59657142Y-105650000D01*
X59585714Y-105721429D01*
X59514285Y-105864286D01*
X59514285Y-106078571D01*
X59585714Y-106221429D01*
X59657142Y-106292857D01*
X59800000Y-106364286D01*
X60371428Y-106364286D01*
X58014285Y-106935714D02*
X58085714Y-107007143D01*
X58300000Y-107078571D01*
X58442857Y-107078571D01*
X58657142Y-107007143D01*
X58800000Y-106864286D01*
X58871428Y-106721429D01*
X58942857Y-106435714D01*
X58942857Y-106221429D01*
X58871428Y-105935714D01*
X58800000Y-105792857D01*
X58657142Y-105650000D01*
X58442857Y-105578571D01*
X58300000Y-105578571D01*
X58085714Y-105650000D01*
X58014285Y-105721429D01*
X56585714Y-107078571D02*
X57442857Y-107078571D01*
X57014285Y-107078571D02*
X57014285Y-105578571D01*
X57157142Y-105792857D01*
X57300000Y-105935714D01*
X57442857Y-106007143D01*
X55300000Y-106078571D02*
X55300000Y-107078571D01*
X55657143Y-105507143D02*
X56014286Y-106578571D01*
X55085714Y-106578571D01*
X58957142Y-104478571D02*
X58957142Y-102978571D01*
X58385714Y-102978571D01*
X58242856Y-103050000D01*
X58171428Y-103121429D01*
X58099999Y-103264286D01*
X58099999Y-103478571D01*
X58171428Y-103621429D01*
X58242856Y-103692857D01*
X58385714Y-103764286D01*
X58957142Y-103764286D01*
X56957142Y-103692857D02*
X56742856Y-103764286D01*
X56671428Y-103835714D01*
X56599999Y-103978571D01*
X56599999Y-104192857D01*
X56671428Y-104335714D01*
X56742856Y-104407143D01*
X56885714Y-104478571D01*
X57457142Y-104478571D01*
X57457142Y-102978571D01*
X56957142Y-102978571D01*
X56814285Y-103050000D01*
X56742856Y-103121429D01*
X56671428Y-103264286D01*
X56671428Y-103407143D01*
X56742856Y-103550000D01*
X56814285Y-103621429D01*
X56957142Y-103692857D01*
X57457142Y-103692857D01*
X55885714Y-104478571D02*
X55599999Y-104478571D01*
X55457142Y-104407143D01*
X55385714Y-104335714D01*
X55242856Y-104121429D01*
X55171428Y-103835714D01*
X55171428Y-103264286D01*
X55242856Y-103121429D01*
X55314285Y-103050000D01*
X55457142Y-102978571D01*
X55742856Y-102978571D01*
X55885714Y-103050000D01*
X55957142Y-103121429D01*
X56028571Y-103264286D01*
X56028571Y-103621429D01*
X55957142Y-103764286D01*
X55885714Y-103835714D01*
X55742856Y-103907143D01*
X55457142Y-103907143D01*
X55314285Y-103835714D01*
X55242856Y-103764286D01*
X55171428Y-103621429D01*
X58957142Y-101978571D02*
X58957142Y-100478571D01*
X58385714Y-100478571D01*
X58242856Y-100550000D01*
X58171428Y-100621429D01*
X58099999Y-100764286D01*
X58099999Y-100978571D01*
X58171428Y-101121429D01*
X58242856Y-101192857D01*
X58385714Y-101264286D01*
X58957142Y-101264286D01*
X56957142Y-101192857D02*
X56742856Y-101264286D01*
X56671428Y-101335714D01*
X56599999Y-101478571D01*
X56599999Y-101692857D01*
X56671428Y-101835714D01*
X56742856Y-101907143D01*
X56885714Y-101978571D01*
X57457142Y-101978571D01*
X57457142Y-100478571D01*
X56957142Y-100478571D01*
X56814285Y-100550000D01*
X56742856Y-100621429D01*
X56671428Y-100764286D01*
X56671428Y-100907143D01*
X56742856Y-101050000D01*
X56814285Y-101121429D01*
X56957142Y-101192857D01*
X57457142Y-101192857D01*
X55742856Y-101121429D02*
X55885714Y-101050000D01*
X55957142Y-100978571D01*
X56028571Y-100835714D01*
X56028571Y-100764286D01*
X55957142Y-100621429D01*
X55885714Y-100550000D01*
X55742856Y-100478571D01*
X55457142Y-100478571D01*
X55314285Y-100550000D01*
X55242856Y-100621429D01*
X55171428Y-100764286D01*
X55171428Y-100835714D01*
X55242856Y-100978571D01*
X55314285Y-101050000D01*
X55457142Y-101121429D01*
X55742856Y-101121429D01*
X55885714Y-101192857D01*
X55957142Y-101264286D01*
X56028571Y-101407143D01*
X56028571Y-101692857D01*
X55957142Y-101835714D01*
X55885714Y-101907143D01*
X55742856Y-101978571D01*
X55457142Y-101978571D01*
X55314285Y-101907143D01*
X55242856Y-101835714D01*
X55171428Y-101692857D01*
X55171428Y-101407143D01*
X55242856Y-101264286D01*
X55314285Y-101192857D01*
X55457142Y-101121429D01*
X58957142Y-94178571D02*
X58957142Y-92678571D01*
X58385714Y-92678571D01*
X58242856Y-92750000D01*
X58171428Y-92821429D01*
X58099999Y-92964286D01*
X58099999Y-93178571D01*
X58171428Y-93321429D01*
X58242856Y-93392857D01*
X58385714Y-93464286D01*
X58957142Y-93464286D01*
X56957142Y-93392857D02*
X56742856Y-93464286D01*
X56671428Y-93535714D01*
X56599999Y-93678571D01*
X56599999Y-93892857D01*
X56671428Y-94035714D01*
X56742856Y-94107143D01*
X56885714Y-94178571D01*
X57457142Y-94178571D01*
X57457142Y-92678571D01*
X56957142Y-92678571D01*
X56814285Y-92750000D01*
X56742856Y-92821429D01*
X56671428Y-92964286D01*
X56671428Y-93107143D01*
X56742856Y-93250000D01*
X56814285Y-93321429D01*
X56957142Y-93392857D01*
X57457142Y-93392857D01*
X55171428Y-94178571D02*
X56028571Y-94178571D01*
X55599999Y-94178571D02*
X55599999Y-92678571D01*
X55742856Y-92892857D01*
X55885714Y-93035714D01*
X56028571Y-93107143D01*
X58957142Y-91778571D02*
X58957142Y-90278571D01*
X58385714Y-90278571D01*
X58242856Y-90350000D01*
X58171428Y-90421429D01*
X58099999Y-90564286D01*
X58099999Y-90778571D01*
X58171428Y-90921429D01*
X58242856Y-90992857D01*
X58385714Y-91064286D01*
X58957142Y-91064286D01*
X56957142Y-90992857D02*
X56742856Y-91064286D01*
X56671428Y-91135714D01*
X56599999Y-91278571D01*
X56599999Y-91492857D01*
X56671428Y-91635714D01*
X56742856Y-91707143D01*
X56885714Y-91778571D01*
X57457142Y-91778571D01*
X57457142Y-90278571D01*
X56957142Y-90278571D01*
X56814285Y-90350000D01*
X56742856Y-90421429D01*
X56671428Y-90564286D01*
X56671428Y-90707143D01*
X56742856Y-90850000D01*
X56814285Y-90921429D01*
X56957142Y-90992857D01*
X57457142Y-90992857D01*
X55671428Y-90278571D02*
X55528571Y-90278571D01*
X55385714Y-90350000D01*
X55314285Y-90421429D01*
X55242856Y-90564286D01*
X55171428Y-90850000D01*
X55171428Y-91207143D01*
X55242856Y-91492857D01*
X55314285Y-91635714D01*
X55385714Y-91707143D01*
X55528571Y-91778571D01*
X55671428Y-91778571D01*
X55814285Y-91707143D01*
X55885714Y-91635714D01*
X55957142Y-91492857D01*
X56028571Y-91207143D01*
X56028571Y-90850000D01*
X55957142Y-90564286D01*
X55885714Y-90421429D01*
X55814285Y-90350000D01*
X55671428Y-90278571D01*
X58957142Y-87778571D02*
X58028571Y-87778571D01*
X58528571Y-88350000D01*
X58314285Y-88350000D01*
X58171428Y-88421429D01*
X58099999Y-88492857D01*
X58028571Y-88635714D01*
X58028571Y-88992857D01*
X58099999Y-89135714D01*
X58171428Y-89207143D01*
X58314285Y-89278571D01*
X58742857Y-89278571D01*
X58885714Y-89207143D01*
X58957142Y-89135714D01*
X57600000Y-87778571D02*
X57100000Y-89278571D01*
X56600000Y-87778571D01*
X56242857Y-87778571D02*
X55314286Y-87778571D01*
X55814286Y-88350000D01*
X55600000Y-88350000D01*
X55457143Y-88421429D01*
X55385714Y-88492857D01*
X55314286Y-88635714D01*
X55314286Y-88992857D01*
X55385714Y-89135714D01*
X55457143Y-89207143D01*
X55600000Y-89278571D01*
X56028572Y-89278571D01*
X56171429Y-89207143D01*
X56242857Y-89135714D01*
X58342857Y-85450000D02*
X58485714Y-85378571D01*
X58700000Y-85378571D01*
X58914285Y-85450000D01*
X59057143Y-85592857D01*
X59128571Y-85735714D01*
X59200000Y-86021429D01*
X59200000Y-86235714D01*
X59128571Y-86521429D01*
X59057143Y-86664286D01*
X58914285Y-86807143D01*
X58700000Y-86878571D01*
X58557143Y-86878571D01*
X58342857Y-86807143D01*
X58271428Y-86735714D01*
X58271428Y-86235714D01*
X58557143Y-86235714D01*
X57628571Y-86878571D02*
X57628571Y-85378571D01*
X56771428Y-86878571D01*
X56771428Y-85378571D01*
X56057142Y-86878571D02*
X56057142Y-85378571D01*
X55699999Y-85378571D01*
X55485714Y-85450000D01*
X55342856Y-85592857D01*
X55271428Y-85735714D01*
X55199999Y-86021429D01*
X55199999Y-86235714D01*
X55271428Y-86521429D01*
X55342856Y-86664286D01*
X55485714Y-86807143D01*
X55699999Y-86878571D01*
X56057142Y-86878571D01*
X56542857Y-99278571D02*
X57042857Y-98564286D01*
X57400000Y-99278571D02*
X57400000Y-97778571D01*
X56828572Y-97778571D01*
X56685714Y-97850000D01*
X56614286Y-97921429D01*
X56542857Y-98064286D01*
X56542857Y-98278571D01*
X56614286Y-98421429D01*
X56685714Y-98492857D01*
X56828572Y-98564286D01*
X57400000Y-98564286D01*
X56042857Y-99278571D02*
X55257143Y-98278571D01*
X56042857Y-98278571D02*
X55257143Y-99278571D01*
X57235714Y-95278571D02*
X56378571Y-95278571D01*
X56807142Y-96778571D02*
X56807142Y-95278571D01*
X56021428Y-96778571D02*
X55235714Y-95778571D01*
X56021428Y-95778571D02*
X55235714Y-96778571D01*
D10*
X87500000Y-134500000D02*
X66500000Y-134500000D01*
X112500000Y-134500000D02*
X133500000Y-134500000D01*
X105000000Y-149500000D02*
X112500000Y-134500000D01*
X95000000Y-149500000D02*
X105000000Y-149500000D01*
X87500000Y-134500000D02*
X95000000Y-149500000D01*
X108000000Y-65500000D02*
X133500000Y-65500000D01*
X92000000Y-65500000D02*
X66500000Y-65500000D01*
X105000000Y-59500000D02*
X108000000Y-65500000D01*
X95000000Y-59500000D02*
X105000000Y-59500000D01*
X92000000Y-65500000D02*
X95000000Y-59500000D01*
D14*
X115000000Y-74500000D02*
X85000000Y-74500000D01*
X115000000Y-89500000D02*
X115000000Y-74500000D01*
X115000000Y-89500000D02*
X85000000Y-89500000D01*
X85000000Y-89500000D02*
X85000000Y-74500000D01*
D10*
X51000000Y-105500000D02*
X52000000Y-116000000D01*
X51000000Y-94500000D02*
X51000000Y-105500000D01*
X52000000Y-84000000D02*
X51000000Y-94500000D01*
X148000000Y-116000000D02*
X149000000Y-105500000D01*
X149000000Y-105500000D02*
X149000000Y-94500000D01*
X145000000Y-125000000D02*
X148000000Y-116000000D01*
X133500000Y-134500000D02*
X145000000Y-125000000D01*
X55000000Y-125000000D02*
X66500000Y-134500000D01*
X52000000Y-116000000D02*
X55000000Y-125000000D01*
X55000000Y-75000000D02*
X52000000Y-84000000D01*
X66500000Y-65500000D02*
X55000000Y-75000000D01*
X145000000Y-75000000D02*
X133500000Y-65500000D01*
X148000000Y-84000000D02*
X145000000Y-75000000D01*
X149000000Y-94500000D02*
X148000000Y-84000000D01*
D15*
X134150000Y-84300000D02*
G75*
G03X134150000Y-84300000I-400000J0D01*
G01*
X128450000Y-83500000D02*
X128450000Y-97500000D01*
X128450000Y-97500000D02*
X134550000Y-97500000D01*
X134550000Y-97500000D02*
X134550000Y-83500000D01*
X134550000Y-83500000D02*
X128450000Y-83500000D01*
D16*
X83098280Y-104182720D02*
G75*
G03X83098280Y-104182720I-381000J0D01*
G01*
X91861280Y-95038720D02*
X91861280Y-105198720D01*
X91861280Y-105198720D02*
X82336280Y-105198720D01*
X82336280Y-105198720D02*
X81701280Y-104563720D01*
X81701280Y-104563720D02*
X81701280Y-95038720D01*
X81701280Y-95038720D02*
X91861280Y-95038720D01*
D17*
X97599680Y-133600440D02*
X82400320Y-133600440D01*
X82400320Y-133600440D02*
X82400320Y-116999000D01*
X82400320Y-116999000D02*
X97399020Y-116999000D01*
X97399020Y-116999000D02*
X97599680Y-116999000D01*
X97599680Y-116999000D02*
X97599680Y-133600440D01*
D18*
X96365000Y-101765000D02*
X96365000Y-103035000D01*
X97635000Y-101765000D02*
X97635000Y-103009600D01*
X98016000Y-101765000D02*
X95984000Y-101765000D01*
X95984000Y-101765000D02*
X95984000Y-103035000D01*
X95984000Y-103035000D02*
X98016000Y-103035000D01*
X98016000Y-103035000D02*
X98016000Y-101765000D01*
D15*
X129650000Y-115700000D02*
G75*
G03X129650000Y-115700000I-400000J0D01*
G01*
X134550000Y-116500000D02*
X134550000Y-102500000D01*
X134550000Y-102500000D02*
X128450000Y-102500000D01*
X128450000Y-102500000D02*
X128450000Y-116500000D01*
X128450000Y-116500000D02*
X134550000Y-116500000D01*
X103200000Y-97750000D02*
G75*
G03X103200000Y-97750000I-400000J0D01*
G01*
X102000000Y-103050000D02*
X116000000Y-103050000D01*
X116000000Y-103050000D02*
X116000000Y-96950000D01*
X116000000Y-96950000D02*
X102000000Y-96950000D01*
X102000000Y-96950000D02*
X102000000Y-103050000D01*
D18*
X124665000Y-82635000D02*
X125935000Y-82635000D01*
X124665000Y-81365000D02*
X125909600Y-81365000D01*
X124665000Y-80984000D02*
X124665000Y-83016000D01*
X124665000Y-83016000D02*
X125935000Y-83016000D01*
X125935000Y-83016000D02*
X125935000Y-80984000D01*
X125935000Y-80984000D02*
X124665000Y-80984000D01*
X103535000Y-106665000D02*
X102265000Y-106665000D01*
X103535000Y-107935000D02*
X102290400Y-107935000D01*
X103535000Y-108316000D02*
X103535000Y-106284000D01*
X103535000Y-106284000D02*
X102265000Y-106284000D01*
X102265000Y-106284000D02*
X102265000Y-108316000D01*
X102265000Y-108316000D02*
X103535000Y-108316000D01*
X134135000Y-119635000D02*
X134135000Y-118365000D01*
X132865000Y-119635000D02*
X132865000Y-118390400D01*
X132484000Y-119635000D02*
X134516000Y-119635000D01*
X134516000Y-119635000D02*
X134516000Y-118365000D01*
X134516000Y-118365000D02*
X132484000Y-118365000D01*
X132484000Y-118365000D02*
X132484000Y-119635000D01*
X59865000Y-125135000D02*
X61135000Y-125135000D01*
X59865000Y-123865000D02*
X61109600Y-123865000D01*
X59865000Y-123484000D02*
X59865000Y-125516000D01*
X59865000Y-125516000D02*
X61135000Y-125516000D01*
X61135000Y-125516000D02*
X61135000Y-123484000D01*
X61135000Y-123484000D02*
X59865000Y-123484000D01*
X85035000Y-109335000D02*
X85035000Y-108065000D01*
X83765000Y-109335000D02*
X83765000Y-108090400D01*
X83384000Y-109335000D02*
X85416000Y-109335000D01*
X85416000Y-109335000D02*
X85416000Y-108065000D01*
X85416000Y-108065000D02*
X83384000Y-108065000D01*
X83384000Y-108065000D02*
X83384000Y-109335000D01*
X96735000Y-104935000D02*
X96735000Y-103665000D01*
X95465000Y-104935000D02*
X95465000Y-103690400D01*
X95084000Y-104935000D02*
X97116000Y-104935000D01*
X97116000Y-104935000D02*
X97116000Y-103665000D01*
X97116000Y-103665000D02*
X95084000Y-103665000D01*
X95084000Y-103665000D02*
X95084000Y-104935000D01*
X81501974Y-92000000D02*
X82400000Y-92898026D01*
X82400000Y-91101974D02*
X83280065Y-91982039D01*
X82669408Y-90832567D02*
X81232567Y-92269408D01*
X81232567Y-92269408D02*
X82130592Y-93167433D01*
X82130592Y-93167433D02*
X83567433Y-91730592D01*
X83567433Y-91730592D02*
X82669408Y-90832567D01*
X93198026Y-92700000D02*
X92300000Y-91801974D01*
X92300000Y-93598026D02*
X91419935Y-92717961D01*
X92030592Y-93867433D02*
X93467433Y-92430592D01*
X93467433Y-92430592D02*
X92569408Y-91532567D01*
X92569408Y-91532567D02*
X91132567Y-92969408D01*
X91132567Y-92969408D02*
X92030592Y-93867433D01*
X79865000Y-106735000D02*
X81135000Y-106735000D01*
X79865000Y-105465000D02*
X81109600Y-105465000D01*
X79865000Y-105084000D02*
X79865000Y-107116000D01*
X79865000Y-107116000D02*
X81135000Y-107116000D01*
X81135000Y-107116000D02*
X81135000Y-105084000D01*
X81135000Y-105084000D02*
X79865000Y-105084000D01*
X85035000Y-111535000D02*
X85035000Y-110265000D01*
X83765000Y-111535000D02*
X83765000Y-110290400D01*
X83384000Y-111535000D02*
X85416000Y-111535000D01*
X85416000Y-111535000D02*
X85416000Y-110265000D01*
X85416000Y-110265000D02*
X83384000Y-110265000D01*
X83384000Y-110265000D02*
X83384000Y-111535000D01*
X89335000Y-92835000D02*
X89335000Y-91565000D01*
X88065000Y-92835000D02*
X88065000Y-91590400D01*
X87684000Y-92835000D02*
X89716000Y-92835000D01*
X89716000Y-92835000D02*
X89716000Y-91565000D01*
X89716000Y-91565000D02*
X87684000Y-91565000D01*
X87684000Y-91565000D02*
X87684000Y-92835000D01*
X61865000Y-83335000D02*
X63135000Y-83335000D01*
X61865000Y-82065000D02*
X63109600Y-82065000D01*
X61865000Y-81684000D02*
X61865000Y-83716000D01*
X61865000Y-83716000D02*
X63135000Y-83716000D01*
X63135000Y-83716000D02*
X63135000Y-81684000D01*
X63135000Y-81684000D02*
X61865000Y-81684000D01*
X71265000Y-83235000D02*
X72535000Y-83235000D01*
X71265000Y-81965000D02*
X72509600Y-81965000D01*
X71265000Y-81584000D02*
X71265000Y-83616000D01*
X71265000Y-83616000D02*
X72535000Y-83616000D01*
X72535000Y-83616000D02*
X72535000Y-81584000D01*
X72535000Y-81584000D02*
X71265000Y-81584000D01*
X70265000Y-104435000D02*
X71535000Y-104435000D01*
X70265000Y-103165000D02*
X71509600Y-103165000D01*
X70265000Y-102784000D02*
X70265000Y-104816000D01*
X70265000Y-104816000D02*
X71535000Y-104816000D01*
X71535000Y-104816000D02*
X71535000Y-102784000D01*
X71535000Y-102784000D02*
X70265000Y-102784000D01*
X71535000Y-98965000D02*
X70265000Y-98965000D01*
X71535000Y-100235000D02*
X70290400Y-100235000D01*
X71535000Y-100616000D02*
X71535000Y-98584000D01*
X71535000Y-98584000D02*
X70265000Y-98584000D01*
X70265000Y-98584000D02*
X70265000Y-100616000D01*
X70265000Y-100616000D02*
X71535000Y-100616000D01*
X80026644Y-86395726D02*
X81104274Y-87473356D01*
X81283879Y-87832567D02*
X79667433Y-86216121D01*
X79398026Y-86126318D02*
X81373682Y-88101974D01*
X81463485Y-88371382D02*
X79128618Y-86036515D01*
X78949013Y-86036515D02*
X81463485Y-88550987D01*
X81547999Y-89000000D02*
G75*
G03X81547999Y-89000000I-3047999J0D01*
G01*
X78500000Y-84330267D02*
X83169733Y-89000000D01*
X83169733Y-89000000D02*
X79038815Y-93130918D01*
X79038815Y-93130918D02*
X77961185Y-93130918D01*
X77961185Y-93130918D02*
X74369082Y-89538815D01*
X74369082Y-89538815D02*
X74369082Y-88461185D01*
X74369082Y-88461185D02*
X78500000Y-84330267D01*
X76973356Y-90526644D02*
X77512172Y-89987828D01*
X76973356Y-89987828D02*
X77512172Y-90526644D01*
X75600660Y-79500000D02*
X75300940Y-79799720D01*
X75300940Y-79799720D02*
X75300940Y-79200280D01*
X75300940Y-79200280D02*
X75600660Y-79500000D01*
X75499060Y-79400940D02*
X75499060Y-79599060D01*
X75400000Y-79700660D02*
X75400000Y-79299340D01*
X75699720Y-78699900D02*
X75699720Y-80300100D01*
X75100280Y-80300100D02*
X75100280Y-78699900D01*
X74399240Y-80300100D02*
X76400760Y-80300100D01*
X76400760Y-80300100D02*
X76400760Y-78699900D01*
X76400760Y-78699900D02*
X74399240Y-78699900D01*
X74399240Y-78699900D02*
X74399240Y-80300100D01*
X69150660Y-117100000D02*
X68850940Y-117399720D01*
X68850940Y-117399720D02*
X68850940Y-116800280D01*
X68850940Y-116800280D02*
X69150660Y-117100000D01*
X69049060Y-117000940D02*
X69049060Y-117199060D01*
X68950000Y-117300660D02*
X68950000Y-116899340D01*
X69249720Y-116299900D02*
X69249720Y-117900100D01*
X68650280Y-117900100D02*
X68650280Y-116299900D01*
X67949240Y-117900100D02*
X69950760Y-117900100D01*
X69950760Y-117900100D02*
X69950760Y-116299900D01*
X69950760Y-116299900D02*
X67949240Y-116299900D01*
X67949240Y-116299900D02*
X67949240Y-117900100D01*
D19*
X70270000Y-89770000D02*
X70270000Y-87230000D01*
X72810000Y-87230000D02*
X65190000Y-87230000D01*
X65190000Y-87230000D02*
X65190000Y-89770000D01*
X65190000Y-89770000D02*
X72810000Y-89770000D01*
X72810000Y-89770000D02*
X72810000Y-87230000D01*
X90240000Y-89280000D02*
X90240000Y-79120000D01*
X90240000Y-79120000D02*
X85160000Y-79120000D01*
X85160000Y-79120000D02*
X85160000Y-89280000D01*
X87700000Y-89280000D02*
X87700000Y-86740000D01*
X87700000Y-86740000D02*
X85160000Y-86740000D01*
X90240000Y-89280000D02*
X85160000Y-89280000D01*
X67000000Y-96810000D02*
X69540000Y-94270000D01*
X67000000Y-96810000D02*
X67000000Y-94270000D01*
X67000000Y-94270000D02*
X69540000Y-96810000D01*
X69540000Y-96810000D02*
X64460000Y-96810000D01*
X64460000Y-96810000D02*
X64460000Y-94270000D01*
X64460000Y-94270000D02*
X69540000Y-94270000D01*
X68270000Y-93000000D02*
X68270000Y-103160000D01*
X65730000Y-93000000D02*
X65730000Y-103160000D01*
X69540000Y-96810000D02*
X69540000Y-94270000D01*
D18*
X58835000Y-85465000D02*
X57565000Y-85465000D01*
X58835000Y-86735000D02*
X57590400Y-86735000D01*
X58835000Y-87116000D02*
X58835000Y-85084000D01*
X58835000Y-85084000D02*
X57565000Y-85084000D01*
X57565000Y-85084000D02*
X57565000Y-87116000D01*
X57565000Y-87116000D02*
X58835000Y-87116000D01*
X58835000Y-89865000D02*
X57565000Y-89865000D01*
X58835000Y-91135000D02*
X57590400Y-91135000D01*
X58835000Y-91516000D02*
X58835000Y-89484000D01*
X58835000Y-89484000D02*
X57565000Y-89484000D01*
X57565000Y-89484000D02*
X57565000Y-91516000D01*
X57565000Y-91516000D02*
X58835000Y-91516000D01*
X81665000Y-83685000D02*
X82935000Y-83685000D01*
X81665000Y-82415000D02*
X82909600Y-82415000D01*
X81665000Y-82034000D02*
X81665000Y-84066000D01*
X81665000Y-84066000D02*
X82935000Y-84066000D01*
X82935000Y-84066000D02*
X82935000Y-82034000D01*
X82935000Y-82034000D02*
X81665000Y-82034000D01*
X76035000Y-82235000D02*
X76035000Y-80965000D01*
X74765000Y-82235000D02*
X74765000Y-80990400D01*
X74384000Y-82235000D02*
X76416000Y-82235000D01*
X76416000Y-82235000D02*
X76416000Y-80965000D01*
X76416000Y-80965000D02*
X74384000Y-80965000D01*
X74384000Y-80965000D02*
X74384000Y-82235000D01*
X69585000Y-120235000D02*
X69585000Y-118965000D01*
X68315000Y-120235000D02*
X68315000Y-118990400D01*
X67934000Y-120235000D02*
X69966000Y-120235000D01*
X69966000Y-120235000D02*
X69966000Y-118965000D01*
X69966000Y-118965000D02*
X67934000Y-118965000D01*
X67934000Y-118965000D02*
X67934000Y-120235000D01*
X58735000Y-93935000D02*
X58735000Y-92665000D01*
X57465000Y-93935000D02*
X57465000Y-92690400D01*
X57084000Y-93935000D02*
X59116000Y-93935000D01*
X59116000Y-93935000D02*
X59116000Y-92665000D01*
X59116000Y-92665000D02*
X57084000Y-92665000D01*
X57084000Y-92665000D02*
X57084000Y-93935000D01*
X57498026Y-117300000D02*
X56600000Y-116401974D01*
X56600000Y-118198026D02*
X55719935Y-117317961D01*
X56330592Y-118467433D02*
X57767433Y-117030592D01*
X57767433Y-117030592D02*
X56869408Y-116132567D01*
X56869408Y-116132567D02*
X55432567Y-117569408D01*
X55432567Y-117569408D02*
X56330592Y-118467433D01*
X59198026Y-119100000D02*
X58300000Y-118201974D01*
X58300000Y-119998026D02*
X57419935Y-119117961D01*
X58030592Y-120267433D02*
X59467433Y-118830592D01*
X59467433Y-118830592D02*
X58569408Y-117932567D01*
X58569408Y-117932567D02*
X57132567Y-119369408D01*
X57132567Y-119369408D02*
X58030592Y-120267433D01*
D15*
X124802381Y-89738095D02*
X125611905Y-89738095D01*
X125707143Y-89785714D01*
X125754762Y-89833333D01*
X125802381Y-89928571D01*
X125802381Y-90119048D01*
X125754762Y-90214286D01*
X125707143Y-90261905D01*
X125611905Y-90309524D01*
X124802381Y-90309524D01*
X125802381Y-91309524D02*
X125802381Y-90738095D01*
X125802381Y-91023809D02*
X124802381Y-91023809D01*
X124945238Y-90928571D01*
X125040476Y-90833333D01*
X125088095Y-90738095D01*
X136902381Y-87404762D02*
X136902381Y-87976191D01*
X137902381Y-87690476D02*
X136902381Y-87690476D01*
X137902381Y-88785715D02*
X137902381Y-88309524D01*
X136902381Y-88309524D01*
X137807143Y-89690477D02*
X137854762Y-89642858D01*
X137902381Y-89500001D01*
X137902381Y-89404763D01*
X137854762Y-89261905D01*
X137759524Y-89166667D01*
X137664286Y-89119048D01*
X137473810Y-89071429D01*
X137330952Y-89071429D01*
X137140476Y-89119048D01*
X137045238Y-89166667D01*
X136950000Y-89261905D01*
X136902381Y-89404763D01*
X136902381Y-89500001D01*
X136950000Y-89642858D01*
X136997619Y-89690477D01*
X136902381Y-90595239D02*
X136902381Y-90119048D01*
X137378571Y-90071429D01*
X137330952Y-90119048D01*
X137283333Y-90214286D01*
X137283333Y-90452382D01*
X137330952Y-90547620D01*
X137378571Y-90595239D01*
X137473810Y-90642858D01*
X137711905Y-90642858D01*
X137807143Y-90595239D01*
X137854762Y-90547620D01*
X137902381Y-90452382D01*
X137902381Y-90214286D01*
X137854762Y-90119048D01*
X137807143Y-90071429D01*
X137902381Y-91119048D02*
X137902381Y-91309524D01*
X137854762Y-91404763D01*
X137807143Y-91452382D01*
X137664286Y-91547620D01*
X137473810Y-91595239D01*
X137092857Y-91595239D01*
X136997619Y-91547620D01*
X136950000Y-91500001D01*
X136902381Y-91404763D01*
X136902381Y-91214286D01*
X136950000Y-91119048D01*
X136997619Y-91071429D01*
X137092857Y-91023810D01*
X137330952Y-91023810D01*
X137426190Y-91071429D01*
X137473810Y-91119048D01*
X137521429Y-91214286D01*
X137521429Y-91404763D01*
X137473810Y-91500001D01*
X137426190Y-91547620D01*
X137330952Y-91595239D01*
X136902381Y-92500001D02*
X136902381Y-92023810D01*
X137378571Y-91976191D01*
X137330952Y-92023810D01*
X137283333Y-92119048D01*
X137283333Y-92357144D01*
X137330952Y-92452382D01*
X137378571Y-92500001D01*
X137473810Y-92547620D01*
X137711905Y-92547620D01*
X137807143Y-92500001D01*
X137854762Y-92452382D01*
X137902381Y-92357144D01*
X137902381Y-92119048D01*
X137854762Y-92023810D01*
X137807143Y-91976191D01*
X136902381Y-93452382D02*
X136902381Y-92976191D01*
X137378571Y-92928572D01*
X137330952Y-92976191D01*
X137283333Y-93071429D01*
X137283333Y-93309525D01*
X137330952Y-93404763D01*
X137378571Y-93452382D01*
X137473810Y-93500001D01*
X137711905Y-93500001D01*
X137807143Y-93452382D01*
X137854762Y-93404763D01*
X137902381Y-93309525D01*
X137902381Y-93071429D01*
X137854762Y-92976191D01*
X137807143Y-92928572D01*
D18*
X88294699Y-99262340D02*
X89185029Y-99262340D01*
X89289774Y-99314712D01*
X89342146Y-99367085D01*
X89394519Y-99471829D01*
X89394519Y-99681319D01*
X89342146Y-99786064D01*
X89289774Y-99838436D01*
X89185029Y-99890808D01*
X88294699Y-99890808D01*
X88661305Y-100885883D02*
X89394519Y-100885883D01*
X88242326Y-100624021D02*
X89027912Y-100362160D01*
X89027912Y-101043000D01*
D12*
X85460238Y-94684573D02*
X85508619Y-94793430D01*
X85508619Y-94974859D01*
X85460238Y-95047430D01*
X85411857Y-95083716D01*
X85315095Y-95120001D01*
X85218333Y-95120001D01*
X85121571Y-95083716D01*
X85073190Y-95047430D01*
X85024810Y-94974859D01*
X84976429Y-94829716D01*
X84928048Y-94757144D01*
X84879667Y-94720859D01*
X84782905Y-94684573D01*
X84686143Y-94684573D01*
X84589381Y-94720859D01*
X84541000Y-94757144D01*
X84492619Y-94829716D01*
X84492619Y-95011144D01*
X84541000Y-95120001D01*
X84492619Y-95337715D02*
X84492619Y-95773144D01*
X85508619Y-95555430D02*
X84492619Y-95555430D01*
X85508619Y-96027144D02*
X84492619Y-96027144D01*
X85218333Y-96281144D01*
X84492619Y-96535144D01*
X85508619Y-96535144D01*
X84492619Y-96825429D02*
X84492619Y-97297143D01*
X84879667Y-97043143D01*
X84879667Y-97152001D01*
X84928048Y-97224572D01*
X84976429Y-97260858D01*
X85073190Y-97297143D01*
X85315095Y-97297143D01*
X85411857Y-97260858D01*
X85460238Y-97224572D01*
X85508619Y-97152001D01*
X85508619Y-96934286D01*
X85460238Y-96861715D01*
X85411857Y-96825429D01*
X84589381Y-97587429D02*
X84541000Y-97623715D01*
X84492619Y-97696286D01*
X84492619Y-97877715D01*
X84541000Y-97950286D01*
X84589381Y-97986572D01*
X84686143Y-98022857D01*
X84782905Y-98022857D01*
X84928048Y-97986572D01*
X85508619Y-97551143D01*
X85508619Y-98022857D01*
X84976429Y-98603429D02*
X84976429Y-98349429D01*
X85508619Y-98349429D02*
X84492619Y-98349429D01*
X84492619Y-98712286D01*
X84831286Y-99329143D02*
X85508619Y-99329143D01*
X84444238Y-99147714D02*
X85169952Y-98966286D01*
X85169952Y-99438000D01*
X84492619Y-99873428D02*
X84492619Y-99946000D01*
X84541000Y-100018571D01*
X84589381Y-100054857D01*
X84686143Y-100091143D01*
X84879667Y-100127428D01*
X85121571Y-100127428D01*
X85315095Y-100091143D01*
X85411857Y-100054857D01*
X85460238Y-100018571D01*
X85508619Y-99946000D01*
X85508619Y-99873428D01*
X85460238Y-99800857D01*
X85411857Y-99764571D01*
X85315095Y-99728286D01*
X85121571Y-99692000D01*
X84879667Y-99692000D01*
X84686143Y-99728286D01*
X84589381Y-99764571D01*
X84541000Y-99800857D01*
X84492619Y-99873428D01*
X84492619Y-100381428D02*
X85508619Y-100889428D01*
X84492619Y-100889428D02*
X85508619Y-100381428D01*
X85605381Y-100998285D02*
X85605381Y-101578856D01*
X85508619Y-102123142D02*
X85508619Y-101760285D01*
X84492619Y-101760285D01*
X85605381Y-102885142D02*
X85557000Y-102812570D01*
X85460238Y-102739999D01*
X85315095Y-102631142D01*
X85266714Y-102558570D01*
X85266714Y-102485999D01*
X85508619Y-102522284D02*
X85460238Y-102449713D01*
X85363476Y-102377142D01*
X85169952Y-102340856D01*
X84831286Y-102340856D01*
X84637762Y-102377142D01*
X84541000Y-102449713D01*
X84492619Y-102522284D01*
X84492619Y-102667427D01*
X84541000Y-102739999D01*
X84637762Y-102812570D01*
X84831286Y-102848856D01*
X85169952Y-102848856D01*
X85363476Y-102812570D01*
X85460238Y-102739999D01*
X85508619Y-102667427D01*
X85508619Y-102522284D01*
X84976429Y-103429428D02*
X84976429Y-103175428D01*
X85508619Y-103175428D02*
X84492619Y-103175428D01*
X84492619Y-103538285D01*
X85508619Y-103828571D02*
X84492619Y-103828571D01*
X84492619Y-104118856D01*
X84541000Y-104191428D01*
X84589381Y-104227713D01*
X84686143Y-104263999D01*
X84831286Y-104263999D01*
X84928048Y-104227713D01*
X84976429Y-104191428D01*
X85024810Y-104118856D01*
X85024810Y-103828571D01*
X84492619Y-104917142D02*
X84492619Y-104771999D01*
X84541000Y-104699428D01*
X84589381Y-104663142D01*
X84734524Y-104590571D01*
X84928048Y-104554285D01*
X85315095Y-104554285D01*
X85411857Y-104590571D01*
X85460238Y-104626856D01*
X85508619Y-104699428D01*
X85508619Y-104844571D01*
X85460238Y-104917142D01*
X85411857Y-104953428D01*
X85315095Y-104989713D01*
X85073190Y-104989713D01*
X84976429Y-104953428D01*
X84928048Y-104917142D01*
X84879667Y-104844571D01*
X84879667Y-104699428D01*
X84928048Y-104626856D01*
X84976429Y-104590571D01*
X85073190Y-104554285D01*
X84831286Y-105642856D02*
X85508619Y-105642856D01*
X84444238Y-105461427D02*
X85169952Y-105279999D01*
X85169952Y-105751713D01*
X98822514Y-101162857D02*
X98861219Y-101211238D01*
X98977333Y-101259619D01*
X99054743Y-101259619D01*
X99170857Y-101211238D01*
X99248266Y-101114476D01*
X99286971Y-101017714D01*
X99325676Y-100824190D01*
X99325676Y-100679048D01*
X99286971Y-100485524D01*
X99248266Y-100388762D01*
X99170857Y-100292000D01*
X99054743Y-100243619D01*
X98977333Y-100243619D01*
X98861219Y-100292000D01*
X98822514Y-100340381D01*
X98048419Y-101259619D02*
X98512876Y-101259619D01*
X98280647Y-101259619D02*
X98280647Y-100243619D01*
X98358057Y-100388762D01*
X98435466Y-100485524D01*
X98512876Y-100533905D01*
X97351733Y-100243619D02*
X97506552Y-100243619D01*
X97583962Y-100292000D01*
X97622667Y-100340381D01*
X97700076Y-100485524D01*
X97738781Y-100679048D01*
X97738781Y-101066095D01*
X97700076Y-101162857D01*
X97661371Y-101211238D01*
X97583962Y-101259619D01*
X97429143Y-101259619D01*
X97351733Y-101211238D01*
X97313029Y-101162857D01*
X97274324Y-101066095D01*
X97274324Y-100824190D01*
X97313029Y-100727429D01*
X97351733Y-100679048D01*
X97429143Y-100630667D01*
X97583962Y-100630667D01*
X97661371Y-100679048D01*
X97700076Y-100727429D01*
X97738781Y-100824190D01*
X96480495Y-100340381D02*
X96441790Y-100292000D01*
X96364381Y-100243619D01*
X96170857Y-100243619D01*
X96093447Y-100292000D01*
X96054743Y-100340381D01*
X96016038Y-100437143D01*
X96016038Y-100533905D01*
X96054743Y-100679048D01*
X96519200Y-101259619D01*
X96016038Y-101259619D01*
X95667695Y-101162857D02*
X95628990Y-101211238D01*
X95667695Y-101259619D01*
X95706400Y-101211238D01*
X95667695Y-101162857D01*
X95667695Y-101259619D01*
X95319352Y-100340381D02*
X95280647Y-100292000D01*
X95203238Y-100243619D01*
X95009714Y-100243619D01*
X94932304Y-100292000D01*
X94893600Y-100340381D01*
X94854895Y-100437143D01*
X94854895Y-100533905D01*
X94893600Y-100679048D01*
X95358057Y-101259619D01*
X94854895Y-101259619D01*
X94158209Y-100582286D02*
X94158209Y-101259619D01*
X94506552Y-100582286D02*
X94506552Y-101114476D01*
X94467847Y-101211238D01*
X94390438Y-101259619D01*
X94274324Y-101259619D01*
X94196914Y-101211238D01*
X94158209Y-101162857D01*
D15*
X137102381Y-108738095D02*
X137911905Y-108738095D01*
X138007143Y-108785714D01*
X138054762Y-108833333D01*
X138102381Y-108928571D01*
X138102381Y-109119048D01*
X138054762Y-109214286D01*
X138007143Y-109261905D01*
X137911905Y-109309524D01*
X137102381Y-109309524D01*
X137102381Y-109690476D02*
X137102381Y-110309524D01*
X137483333Y-109976190D01*
X137483333Y-110119048D01*
X137530952Y-110214286D01*
X137578571Y-110261905D01*
X137673810Y-110309524D01*
X137911905Y-110309524D01*
X138007143Y-110261905D01*
X138054762Y-110214286D01*
X138102381Y-110119048D01*
X138102381Y-109833333D01*
X138054762Y-109738095D01*
X138007143Y-109690476D01*
X125002381Y-106404762D02*
X125002381Y-106976191D01*
X126002381Y-106690476D02*
X125002381Y-106690476D01*
X126002381Y-107785715D02*
X126002381Y-107309524D01*
X125002381Y-107309524D01*
X125907143Y-108690477D02*
X125954762Y-108642858D01*
X126002381Y-108500001D01*
X126002381Y-108404763D01*
X125954762Y-108261905D01*
X125859524Y-108166667D01*
X125764286Y-108119048D01*
X125573810Y-108071429D01*
X125430952Y-108071429D01*
X125240476Y-108119048D01*
X125145238Y-108166667D01*
X125050000Y-108261905D01*
X125002381Y-108404763D01*
X125002381Y-108500001D01*
X125050000Y-108642858D01*
X125097619Y-108690477D01*
X125002381Y-109595239D02*
X125002381Y-109119048D01*
X125478571Y-109071429D01*
X125430952Y-109119048D01*
X125383333Y-109214286D01*
X125383333Y-109452382D01*
X125430952Y-109547620D01*
X125478571Y-109595239D01*
X125573810Y-109642858D01*
X125811905Y-109642858D01*
X125907143Y-109595239D01*
X125954762Y-109547620D01*
X126002381Y-109452382D01*
X126002381Y-109214286D01*
X125954762Y-109119048D01*
X125907143Y-109071429D01*
X126002381Y-110119048D02*
X126002381Y-110309524D01*
X125954762Y-110404763D01*
X125907143Y-110452382D01*
X125764286Y-110547620D01*
X125573810Y-110595239D01*
X125192857Y-110595239D01*
X125097619Y-110547620D01*
X125050000Y-110500001D01*
X125002381Y-110404763D01*
X125002381Y-110214286D01*
X125050000Y-110119048D01*
X125097619Y-110071429D01*
X125192857Y-110023810D01*
X125430952Y-110023810D01*
X125526190Y-110071429D01*
X125573810Y-110119048D01*
X125621429Y-110214286D01*
X125621429Y-110404763D01*
X125573810Y-110500001D01*
X125526190Y-110547620D01*
X125430952Y-110595239D01*
X125002381Y-111500001D02*
X125002381Y-111023810D01*
X125478571Y-110976191D01*
X125430952Y-111023810D01*
X125383333Y-111119048D01*
X125383333Y-111357144D01*
X125430952Y-111452382D01*
X125478571Y-111500001D01*
X125573810Y-111547620D01*
X125811905Y-111547620D01*
X125907143Y-111500001D01*
X125954762Y-111452382D01*
X126002381Y-111357144D01*
X126002381Y-111119048D01*
X125954762Y-111023810D01*
X125907143Y-110976191D01*
X125002381Y-112452382D02*
X125002381Y-111976191D01*
X125478571Y-111928572D01*
X125430952Y-111976191D01*
X125383333Y-112071429D01*
X125383333Y-112309525D01*
X125430952Y-112404763D01*
X125478571Y-112452382D01*
X125573810Y-112500001D01*
X125811905Y-112500001D01*
X125907143Y-112452382D01*
X125954762Y-112404763D01*
X126002381Y-112309525D01*
X126002381Y-112071429D01*
X125954762Y-111976191D01*
X125907143Y-111928572D01*
X109761905Y-105602381D02*
X109761905Y-106411905D01*
X109714286Y-106507143D01*
X109666667Y-106554762D01*
X109571429Y-106602381D01*
X109380952Y-106602381D01*
X109285714Y-106554762D01*
X109238095Y-106507143D01*
X109190476Y-106411905D01*
X109190476Y-105602381D01*
X108761905Y-105697619D02*
X108714286Y-105650000D01*
X108619048Y-105602381D01*
X108380952Y-105602381D01*
X108285714Y-105650000D01*
X108238095Y-105697619D01*
X108190476Y-105792857D01*
X108190476Y-105888095D01*
X108238095Y-106030952D01*
X108809524Y-106602381D01*
X108190476Y-106602381D01*
X112095238Y-93502381D02*
X111523809Y-93502381D01*
X111809524Y-94502381D02*
X111809524Y-93502381D01*
X110714285Y-94502381D02*
X111190476Y-94502381D01*
X111190476Y-93502381D01*
X109809523Y-94407143D02*
X109857142Y-94454762D01*
X109999999Y-94502381D01*
X110095237Y-94502381D01*
X110238095Y-94454762D01*
X110333333Y-94359524D01*
X110380952Y-94264286D01*
X110428571Y-94073810D01*
X110428571Y-93930952D01*
X110380952Y-93740476D01*
X110333333Y-93645238D01*
X110238095Y-93550000D01*
X110095237Y-93502381D01*
X109999999Y-93502381D01*
X109857142Y-93550000D01*
X109809523Y-93597619D01*
X108904761Y-93502381D02*
X109380952Y-93502381D01*
X109428571Y-93978571D01*
X109380952Y-93930952D01*
X109285714Y-93883333D01*
X109047618Y-93883333D01*
X108952380Y-93930952D01*
X108904761Y-93978571D01*
X108857142Y-94073810D01*
X108857142Y-94311905D01*
X108904761Y-94407143D01*
X108952380Y-94454762D01*
X109047618Y-94502381D01*
X109285714Y-94502381D01*
X109380952Y-94454762D01*
X109428571Y-94407143D01*
X108380952Y-94502381D02*
X108190476Y-94502381D01*
X108095237Y-94454762D01*
X108047618Y-94407143D01*
X107952380Y-94264286D01*
X107904761Y-94073810D01*
X107904761Y-93692857D01*
X107952380Y-93597619D01*
X107999999Y-93550000D01*
X108095237Y-93502381D01*
X108285714Y-93502381D01*
X108380952Y-93550000D01*
X108428571Y-93597619D01*
X108476190Y-93692857D01*
X108476190Y-93930952D01*
X108428571Y-94026190D01*
X108380952Y-94073810D01*
X108285714Y-94121429D01*
X108095237Y-94121429D01*
X107999999Y-94073810D01*
X107952380Y-94026190D01*
X107904761Y-93930952D01*
X106999999Y-93502381D02*
X107476190Y-93502381D01*
X107523809Y-93978571D01*
X107476190Y-93930952D01*
X107380952Y-93883333D01*
X107142856Y-93883333D01*
X107047618Y-93930952D01*
X106999999Y-93978571D01*
X106952380Y-94073810D01*
X106952380Y-94311905D01*
X106999999Y-94407143D01*
X107047618Y-94454762D01*
X107142856Y-94502381D01*
X107380952Y-94502381D01*
X107476190Y-94454762D01*
X107523809Y-94407143D01*
X106047618Y-93502381D02*
X106523809Y-93502381D01*
X106571428Y-93978571D01*
X106523809Y-93930952D01*
X106428571Y-93883333D01*
X106190475Y-93883333D01*
X106095237Y-93930952D01*
X106047618Y-93978571D01*
X105999999Y-94073810D01*
X105999999Y-94311905D01*
X106047618Y-94407143D01*
X106095237Y-94454762D01*
X106190475Y-94502381D01*
X106428571Y-94502381D01*
X106523809Y-94454762D01*
X106571428Y-94407143D01*
D12*
X124162857Y-81964534D02*
X124211238Y-81925829D01*
X124259619Y-81809715D01*
X124259619Y-81732305D01*
X124211238Y-81616191D01*
X124114476Y-81538782D01*
X124017714Y-81500077D01*
X123824190Y-81461372D01*
X123679048Y-81461372D01*
X123485524Y-81500077D01*
X123388762Y-81538782D01*
X123292000Y-81616191D01*
X123243619Y-81732305D01*
X123243619Y-81809715D01*
X123292000Y-81925829D01*
X123340381Y-81964534D01*
X124259619Y-82738629D02*
X124259619Y-82274172D01*
X124259619Y-82506401D02*
X123243619Y-82506401D01*
X123388762Y-82428991D01*
X123485524Y-82351582D01*
X123533905Y-82274172D01*
X127359619Y-81090439D02*
X127359619Y-80625982D01*
X127359619Y-80858211D02*
X126343619Y-80858211D01*
X126488762Y-80780801D01*
X126585524Y-80703392D01*
X126633905Y-80625982D01*
X126343619Y-81593601D02*
X126343619Y-81671010D01*
X126392000Y-81748420D01*
X126440381Y-81787125D01*
X126537143Y-81825829D01*
X126730667Y-81864534D01*
X126972571Y-81864534D01*
X127166095Y-81825829D01*
X127262857Y-81787125D01*
X127311238Y-81748420D01*
X127359619Y-81671010D01*
X127359619Y-81593601D01*
X127311238Y-81516191D01*
X127262857Y-81477487D01*
X127166095Y-81438782D01*
X126972571Y-81400077D01*
X126730667Y-81400077D01*
X126537143Y-81438782D01*
X126440381Y-81477487D01*
X126392000Y-81516191D01*
X126343619Y-81593601D01*
X126343619Y-82367696D02*
X126343619Y-82445105D01*
X126392000Y-82522515D01*
X126440381Y-82561220D01*
X126537143Y-82599924D01*
X126730667Y-82638629D01*
X126972571Y-82638629D01*
X127166095Y-82599924D01*
X127262857Y-82561220D01*
X127311238Y-82522515D01*
X127359619Y-82445105D01*
X127359619Y-82367696D01*
X127311238Y-82290286D01*
X127262857Y-82251582D01*
X127166095Y-82212877D01*
X126972571Y-82174172D01*
X126730667Y-82174172D01*
X126537143Y-82212877D01*
X126440381Y-82251582D01*
X126392000Y-82290286D01*
X126343619Y-82367696D01*
X126682286Y-82986972D02*
X127359619Y-82986972D01*
X126779048Y-82986972D02*
X126730667Y-83025677D01*
X126682286Y-83103086D01*
X126682286Y-83219200D01*
X126730667Y-83296610D01*
X126827429Y-83335315D01*
X127359619Y-83335315D01*
X104862857Y-107164534D02*
X104911238Y-107125829D01*
X104959619Y-107009715D01*
X104959619Y-106932305D01*
X104911238Y-106816191D01*
X104814476Y-106738782D01*
X104717714Y-106700077D01*
X104524190Y-106661372D01*
X104379048Y-106661372D01*
X104185524Y-106700077D01*
X104088762Y-106738782D01*
X103992000Y-106816191D01*
X103943619Y-106932305D01*
X103943619Y-107009715D01*
X103992000Y-107125829D01*
X104040381Y-107164534D01*
X104040381Y-107474172D02*
X103992000Y-107512877D01*
X103943619Y-107590286D01*
X103943619Y-107783810D01*
X103992000Y-107861220D01*
X104040381Y-107899924D01*
X104137143Y-107938629D01*
X104233905Y-107938629D01*
X104379048Y-107899924D01*
X104959619Y-107435467D01*
X104959619Y-107938629D01*
X101559619Y-106390439D02*
X101559619Y-105925982D01*
X101559619Y-106158211D02*
X100543619Y-106158211D01*
X100688762Y-106080801D01*
X100785524Y-106003392D01*
X100833905Y-105925982D01*
X100543619Y-106893601D02*
X100543619Y-106971010D01*
X100592000Y-107048420D01*
X100640381Y-107087125D01*
X100737143Y-107125829D01*
X100930667Y-107164534D01*
X101172571Y-107164534D01*
X101366095Y-107125829D01*
X101462857Y-107087125D01*
X101511238Y-107048420D01*
X101559619Y-106971010D01*
X101559619Y-106893601D01*
X101511238Y-106816191D01*
X101462857Y-106777487D01*
X101366095Y-106738782D01*
X101172571Y-106700077D01*
X100930667Y-106700077D01*
X100737143Y-106738782D01*
X100640381Y-106777487D01*
X100592000Y-106816191D01*
X100543619Y-106893601D01*
X100543619Y-107667696D02*
X100543619Y-107745105D01*
X100592000Y-107822515D01*
X100640381Y-107861220D01*
X100737143Y-107899924D01*
X100930667Y-107938629D01*
X101172571Y-107938629D01*
X101366095Y-107899924D01*
X101462857Y-107861220D01*
X101511238Y-107822515D01*
X101559619Y-107745105D01*
X101559619Y-107667696D01*
X101511238Y-107590286D01*
X101462857Y-107551582D01*
X101366095Y-107512877D01*
X101172571Y-107474172D01*
X100930667Y-107474172D01*
X100737143Y-107512877D01*
X100640381Y-107551582D01*
X100592000Y-107590286D01*
X100543619Y-107667696D01*
X100882286Y-108286972D02*
X101559619Y-108286972D01*
X100979048Y-108286972D02*
X100930667Y-108325677D01*
X100882286Y-108403086D01*
X100882286Y-108519200D01*
X100930667Y-108596610D01*
X101027429Y-108635315D01*
X101559619Y-108635315D01*
X133735466Y-121062857D02*
X133774171Y-121111238D01*
X133890285Y-121159619D01*
X133967695Y-121159619D01*
X134083809Y-121111238D01*
X134161218Y-121014476D01*
X134199923Y-120917714D01*
X134238628Y-120724190D01*
X134238628Y-120579048D01*
X134199923Y-120385524D01*
X134161218Y-120288762D01*
X134083809Y-120192000D01*
X133967695Y-120143619D01*
X133890285Y-120143619D01*
X133774171Y-120192000D01*
X133735466Y-120240381D01*
X133464533Y-120143619D02*
X132961371Y-120143619D01*
X133232304Y-120530667D01*
X133116190Y-120530667D01*
X133038780Y-120579048D01*
X133000076Y-120627429D01*
X132961371Y-120724190D01*
X132961371Y-120966095D01*
X133000076Y-121062857D01*
X133038780Y-121111238D01*
X133116190Y-121159619D01*
X133348418Y-121159619D01*
X133425828Y-121111238D01*
X133464533Y-121062857D01*
X134309561Y-117959619D02*
X134774018Y-117959619D01*
X134541789Y-117959619D02*
X134541789Y-116943619D01*
X134619199Y-117088762D01*
X134696608Y-117185524D01*
X134774018Y-117233905D01*
X133806399Y-116943619D02*
X133728990Y-116943619D01*
X133651580Y-116992000D01*
X133612875Y-117040381D01*
X133574171Y-117137143D01*
X133535466Y-117330667D01*
X133535466Y-117572571D01*
X133574171Y-117766095D01*
X133612875Y-117862857D01*
X133651580Y-117911238D01*
X133728990Y-117959619D01*
X133806399Y-117959619D01*
X133883809Y-117911238D01*
X133922513Y-117862857D01*
X133961218Y-117766095D01*
X133999923Y-117572571D01*
X133999923Y-117330667D01*
X133961218Y-117137143D01*
X133922513Y-117040381D01*
X133883809Y-116992000D01*
X133806399Y-116943619D01*
X133032304Y-116943619D02*
X132954895Y-116943619D01*
X132877485Y-116992000D01*
X132838780Y-117040381D01*
X132800076Y-117137143D01*
X132761371Y-117330667D01*
X132761371Y-117572571D01*
X132800076Y-117766095D01*
X132838780Y-117862857D01*
X132877485Y-117911238D01*
X132954895Y-117959619D01*
X133032304Y-117959619D01*
X133109714Y-117911238D01*
X133148418Y-117862857D01*
X133187123Y-117766095D01*
X133225828Y-117572571D01*
X133225828Y-117330667D01*
X133187123Y-117137143D01*
X133148418Y-117040381D01*
X133109714Y-116992000D01*
X133032304Y-116943619D01*
X132413028Y-117282286D02*
X132413028Y-117959619D01*
X132413028Y-117379048D02*
X132374323Y-117330667D01*
X132296914Y-117282286D01*
X132180800Y-117282286D01*
X132103390Y-117330667D01*
X132064685Y-117427429D01*
X132064685Y-117959619D01*
X59362857Y-124364534D02*
X59411238Y-124325829D01*
X59459619Y-124209715D01*
X59459619Y-124132305D01*
X59411238Y-124016191D01*
X59314476Y-123938782D01*
X59217714Y-123900077D01*
X59024190Y-123861372D01*
X58879048Y-123861372D01*
X58685524Y-123900077D01*
X58588762Y-123938782D01*
X58492000Y-124016191D01*
X58443619Y-124132305D01*
X58443619Y-124209715D01*
X58492000Y-124325829D01*
X58540381Y-124364534D01*
X58782286Y-125061220D02*
X59459619Y-125061220D01*
X58395238Y-124867696D02*
X59120952Y-124674172D01*
X59120952Y-125177334D01*
X62659619Y-123590439D02*
X62659619Y-123125982D01*
X62659619Y-123358211D02*
X61643619Y-123358211D01*
X61788762Y-123280801D01*
X61885524Y-123203392D01*
X61933905Y-123125982D01*
X61643619Y-124093601D02*
X61643619Y-124171010D01*
X61692000Y-124248420D01*
X61740381Y-124287125D01*
X61837143Y-124325829D01*
X62030667Y-124364534D01*
X62272571Y-124364534D01*
X62466095Y-124325829D01*
X62562857Y-124287125D01*
X62611238Y-124248420D01*
X62659619Y-124171010D01*
X62659619Y-124093601D01*
X62611238Y-124016191D01*
X62562857Y-123977487D01*
X62466095Y-123938782D01*
X62272571Y-123900077D01*
X62030667Y-123900077D01*
X61837143Y-123938782D01*
X61740381Y-123977487D01*
X61692000Y-124016191D01*
X61643619Y-124093601D01*
X61643619Y-124867696D02*
X61643619Y-124945105D01*
X61692000Y-125022515D01*
X61740381Y-125061220D01*
X61837143Y-125099924D01*
X62030667Y-125138629D01*
X62272571Y-125138629D01*
X62466095Y-125099924D01*
X62562857Y-125061220D01*
X62611238Y-125022515D01*
X62659619Y-124945105D01*
X62659619Y-124867696D01*
X62611238Y-124790286D01*
X62562857Y-124751582D01*
X62466095Y-124712877D01*
X62272571Y-124674172D01*
X62030667Y-124674172D01*
X61837143Y-124712877D01*
X61740381Y-124751582D01*
X61692000Y-124790286D01*
X61643619Y-124867696D01*
X61982286Y-125486972D02*
X62659619Y-125486972D01*
X62079048Y-125486972D02*
X62030667Y-125525677D01*
X61982286Y-125603086D01*
X61982286Y-125719200D01*
X62030667Y-125796610D01*
X62127429Y-125835315D01*
X62659619Y-125835315D01*
X81535466Y-109062857D02*
X81574171Y-109111238D01*
X81690285Y-109159619D01*
X81767695Y-109159619D01*
X81883809Y-109111238D01*
X81961218Y-109014476D01*
X81999923Y-108917714D01*
X82038628Y-108724190D01*
X82038628Y-108579048D01*
X81999923Y-108385524D01*
X81961218Y-108288762D01*
X81883809Y-108192000D01*
X81767695Y-108143619D01*
X81690285Y-108143619D01*
X81574171Y-108192000D01*
X81535466Y-108240381D01*
X80838780Y-108143619D02*
X80993599Y-108143619D01*
X81071009Y-108192000D01*
X81109714Y-108240381D01*
X81187123Y-108385524D01*
X81225828Y-108579048D01*
X81225828Y-108966095D01*
X81187123Y-109062857D01*
X81148418Y-109111238D01*
X81071009Y-109159619D01*
X80916190Y-109159619D01*
X80838780Y-109111238D01*
X80800076Y-109062857D01*
X80761371Y-108966095D01*
X80761371Y-108724190D01*
X80800076Y-108627429D01*
X80838780Y-108579048D01*
X80916190Y-108530667D01*
X81071009Y-108530667D01*
X81148418Y-108579048D01*
X81187123Y-108627429D01*
X81225828Y-108724190D01*
X88809561Y-109159619D02*
X89274018Y-109159619D01*
X89041789Y-109159619D02*
X89041789Y-108143619D01*
X89119199Y-108288762D01*
X89196608Y-108385524D01*
X89274018Y-108433905D01*
X88306399Y-108143619D02*
X88228990Y-108143619D01*
X88151580Y-108192000D01*
X88112875Y-108240381D01*
X88074171Y-108337143D01*
X88035466Y-108530667D01*
X88035466Y-108772571D01*
X88074171Y-108966095D01*
X88112875Y-109062857D01*
X88151580Y-109111238D01*
X88228990Y-109159619D01*
X88306399Y-109159619D01*
X88383809Y-109111238D01*
X88422513Y-109062857D01*
X88461218Y-108966095D01*
X88499923Y-108772571D01*
X88499923Y-108530667D01*
X88461218Y-108337143D01*
X88422513Y-108240381D01*
X88383809Y-108192000D01*
X88306399Y-108143619D01*
X87532304Y-108143619D02*
X87454895Y-108143619D01*
X87377485Y-108192000D01*
X87338780Y-108240381D01*
X87300076Y-108337143D01*
X87261371Y-108530667D01*
X87261371Y-108772571D01*
X87300076Y-108966095D01*
X87338780Y-109062857D01*
X87377485Y-109111238D01*
X87454895Y-109159619D01*
X87532304Y-109159619D01*
X87609714Y-109111238D01*
X87648418Y-109062857D01*
X87687123Y-108966095D01*
X87725828Y-108772571D01*
X87725828Y-108530667D01*
X87687123Y-108337143D01*
X87648418Y-108240381D01*
X87609714Y-108192000D01*
X87532304Y-108143619D01*
X86913028Y-108482286D02*
X86913028Y-109159619D01*
X86913028Y-108579048D02*
X86874323Y-108530667D01*
X86796914Y-108482286D01*
X86680800Y-108482286D01*
X86603390Y-108530667D01*
X86564685Y-108627429D01*
X86564685Y-109159619D01*
X97435466Y-106362857D02*
X97474171Y-106411238D01*
X97590285Y-106459619D01*
X97667695Y-106459619D01*
X97783809Y-106411238D01*
X97861218Y-106314476D01*
X97899923Y-106217714D01*
X97938628Y-106024190D01*
X97938628Y-105879048D01*
X97899923Y-105685524D01*
X97861218Y-105588762D01*
X97783809Y-105492000D01*
X97667695Y-105443619D01*
X97590285Y-105443619D01*
X97474171Y-105492000D01*
X97435466Y-105540381D01*
X97164533Y-105443619D02*
X96622666Y-105443619D01*
X96971009Y-106459619D01*
X95209561Y-106459619D02*
X95674018Y-106459619D01*
X95441789Y-106459619D02*
X95441789Y-105443619D01*
X95519199Y-105588762D01*
X95596608Y-105685524D01*
X95674018Y-105733905D01*
X94706399Y-105443619D02*
X94628990Y-105443619D01*
X94551580Y-105492000D01*
X94512875Y-105540381D01*
X94474171Y-105637143D01*
X94435466Y-105830667D01*
X94435466Y-106072571D01*
X94474171Y-106266095D01*
X94512875Y-106362857D01*
X94551580Y-106411238D01*
X94628990Y-106459619D01*
X94706399Y-106459619D01*
X94783809Y-106411238D01*
X94822513Y-106362857D01*
X94861218Y-106266095D01*
X94899923Y-106072571D01*
X94899923Y-105830667D01*
X94861218Y-105637143D01*
X94822513Y-105540381D01*
X94783809Y-105492000D01*
X94706399Y-105443619D01*
X93932304Y-105443619D02*
X93854895Y-105443619D01*
X93777485Y-105492000D01*
X93738780Y-105540381D01*
X93700076Y-105637143D01*
X93661371Y-105830667D01*
X93661371Y-106072571D01*
X93700076Y-106266095D01*
X93738780Y-106362857D01*
X93777485Y-106411238D01*
X93854895Y-106459619D01*
X93932304Y-106459619D01*
X94009714Y-106411238D01*
X94048418Y-106362857D01*
X94087123Y-106266095D01*
X94125828Y-106072571D01*
X94125828Y-105830667D01*
X94087123Y-105637143D01*
X94048418Y-105540381D01*
X94009714Y-105492000D01*
X93932304Y-105443619D01*
X93313028Y-105782286D02*
X93313028Y-106459619D01*
X93313028Y-105879048D02*
X93274323Y-105830667D01*
X93196914Y-105782286D01*
X93080800Y-105782286D01*
X93003390Y-105830667D01*
X92964685Y-105927429D01*
X92964685Y-106459619D01*
X84139210Y-90452368D02*
X84132368Y-90513947D01*
X84180263Y-90630262D01*
X84235000Y-90684999D01*
X84351315Y-90732894D01*
X84474473Y-90719209D01*
X84570263Y-90678157D01*
X84734473Y-90568683D01*
X84837104Y-90466052D01*
X84946578Y-90301842D01*
X84987630Y-90206052D01*
X85001315Y-90082894D01*
X84953420Y-89966579D01*
X84898683Y-89911842D01*
X84782368Y-89863947D01*
X84720789Y-89870789D01*
X83797105Y-90247104D02*
X83687631Y-90137631D01*
X83667105Y-90048684D01*
X83673947Y-89987105D01*
X83721843Y-89829737D01*
X83831316Y-89665526D01*
X84105000Y-89391842D01*
X84200789Y-89350790D01*
X84262368Y-89343947D01*
X84351315Y-89364474D01*
X84460789Y-89473947D01*
X84481315Y-89562894D01*
X84474473Y-89624474D01*
X84433420Y-89720263D01*
X84262368Y-89891316D01*
X84166578Y-89932368D01*
X84105000Y-89939210D01*
X84016053Y-89918684D01*
X83906579Y-89809210D01*
X83886053Y-89720262D01*
X83892895Y-89658685D01*
X83933947Y-89562895D01*
D18*
X85005591Y-91800658D02*
X85262171Y-91544079D01*
X85133881Y-91672369D02*
X84684868Y-91223356D01*
X84791776Y-91244737D01*
X84877302Y-91244737D01*
X84941447Y-91223355D01*
X84278619Y-91629606D02*
X84235856Y-91672369D01*
X84214474Y-91736513D01*
X84214474Y-91779276D01*
X84235856Y-91843421D01*
X84300000Y-91950330D01*
X84406907Y-92057237D01*
X84513816Y-92121381D01*
X84577961Y-92142763D01*
X84620724Y-92142763D01*
X84684868Y-92121381D01*
X84727631Y-92078619D01*
X84749013Y-92014474D01*
X84749013Y-91971711D01*
X84727632Y-91907566D01*
X84663487Y-91800658D01*
X84556579Y-91693750D01*
X84449671Y-91629605D01*
X84385526Y-91608224D01*
X84342763Y-91608224D01*
X84278619Y-91629606D01*
X83850987Y-92057237D02*
X83808224Y-92100000D01*
X83786843Y-92164144D01*
X83786843Y-92206907D01*
X83808224Y-92271052D01*
X83872369Y-92377961D01*
X83979276Y-92484868D01*
X84086185Y-92549013D01*
X84150330Y-92570394D01*
X84193093Y-92570394D01*
X84257237Y-92549013D01*
X84300000Y-92506250D01*
X84321381Y-92442105D01*
X84321381Y-92399342D01*
X84300001Y-92335197D01*
X84235856Y-92228289D01*
X84128948Y-92121381D01*
X84022040Y-92057236D01*
X83957895Y-92035856D01*
X83915132Y-92035856D01*
X83850987Y-92057237D01*
X83658554Y-92549013D02*
X83957895Y-92848354D01*
X83701317Y-92591776D02*
X83658553Y-92591777D01*
X83594409Y-92613158D01*
X83530264Y-92677302D01*
X83508883Y-92741447D01*
X83530264Y-92805591D01*
X83765461Y-93040789D01*
D12*
X94126052Y-93787105D02*
X94187631Y-93793947D01*
X94303946Y-93746053D01*
X94358684Y-93691316D01*
X94406578Y-93575000D01*
X94392893Y-93451843D01*
X94351841Y-93356053D01*
X94242367Y-93191842D01*
X94139736Y-93089212D01*
X93975526Y-92979738D01*
X93879736Y-92938686D01*
X93756579Y-92925001D01*
X93640263Y-92972895D01*
X93585526Y-93027632D01*
X93537632Y-93143948D01*
X93544473Y-93205527D01*
X93647105Y-94402894D02*
X93975526Y-94074474D01*
X93811315Y-94238684D02*
X93092895Y-93520264D01*
X93250263Y-93568158D01*
X93373421Y-93581843D01*
X93462368Y-93561316D01*
X92572895Y-94040263D02*
X92518159Y-94095000D01*
X92497632Y-94183947D01*
X92504474Y-94245526D01*
X92545527Y-94341315D01*
X92655001Y-94505526D01*
X92826053Y-94676578D01*
X92990264Y-94786051D01*
X93086053Y-94827105D01*
X93147632Y-94833947D01*
X93236579Y-94813420D01*
X93291316Y-94758684D01*
X93311842Y-94669736D01*
X93305000Y-94608158D01*
X93263947Y-94512368D01*
X93154474Y-94348157D01*
X92983422Y-94177105D01*
X92819211Y-94067632D01*
X92723421Y-94026579D01*
X92661843Y-94019737D01*
X92572895Y-94040263D01*
X92763946Y-90556053D02*
X93174472Y-90145527D01*
X92969209Y-90350791D02*
X92394472Y-89776054D01*
X92544999Y-89789739D01*
X92668156Y-89776054D01*
X92763946Y-89735002D01*
X91744473Y-90426054D02*
X91676052Y-90494474D01*
X91635000Y-90590264D01*
X91628158Y-90651843D01*
X91648684Y-90740790D01*
X91723947Y-90884474D01*
X91860789Y-91021316D01*
X92004473Y-91096579D01*
X92093421Y-91117106D01*
X92154999Y-91110263D01*
X92250789Y-91069210D01*
X92319209Y-91000790D01*
X92360262Y-90905000D01*
X92367104Y-90843422D01*
X92346578Y-90754474D01*
X92271315Y-90610790D01*
X92134473Y-90473948D01*
X91990788Y-90398685D01*
X91901842Y-90378159D01*
X91840262Y-90385001D01*
X91744473Y-90426054D01*
X91060263Y-91110264D02*
X90991842Y-91178684D01*
X90950790Y-91274474D01*
X90943948Y-91336053D01*
X90964474Y-91425000D01*
X91039737Y-91568684D01*
X91176579Y-91705526D01*
X91320263Y-91780789D01*
X91409211Y-91801316D01*
X91470789Y-91794473D01*
X91566579Y-91753420D01*
X91634999Y-91685000D01*
X91676052Y-91589210D01*
X91682894Y-91527632D01*
X91662368Y-91438684D01*
X91587105Y-91295000D01*
X91450263Y-91158158D01*
X91306579Y-91082895D01*
X91217632Y-91062369D01*
X91156052Y-91069211D01*
X91060263Y-91110264D01*
X90704474Y-91849211D02*
X91087631Y-92232368D01*
X90759211Y-91903947D02*
X90697632Y-91910789D01*
X90601843Y-91951842D01*
X90499212Y-92054473D01*
X90458159Y-92150262D01*
X90478685Y-92239210D01*
X90779737Y-92540262D01*
X79162857Y-104277486D02*
X79211238Y-104238781D01*
X79259619Y-104122667D01*
X79259619Y-104045257D01*
X79211238Y-103929143D01*
X79114476Y-103851734D01*
X79017714Y-103813029D01*
X78824190Y-103774324D01*
X78679048Y-103774324D01*
X78485524Y-103813029D01*
X78388762Y-103851734D01*
X78292000Y-103929143D01*
X78243619Y-104045257D01*
X78243619Y-104122667D01*
X78292000Y-104238781D01*
X78340381Y-104277486D01*
X79259619Y-105051581D02*
X79259619Y-104587124D01*
X79259619Y-104819353D02*
X78243619Y-104819353D01*
X78388762Y-104741943D01*
X78485524Y-104664534D01*
X78533905Y-104587124D01*
X79259619Y-105825676D02*
X79259619Y-105361219D01*
X79259619Y-105593448D02*
X78243619Y-105593448D01*
X78388762Y-105516038D01*
X78485524Y-105438629D01*
X78533905Y-105361219D01*
X79259619Y-107190439D02*
X79259619Y-106725982D01*
X79259619Y-106958211D02*
X78243619Y-106958211D01*
X78388762Y-106880801D01*
X78485524Y-106803392D01*
X78533905Y-106725982D01*
X78243619Y-107693601D02*
X78243619Y-107771010D01*
X78292000Y-107848420D01*
X78340381Y-107887125D01*
X78437143Y-107925829D01*
X78630667Y-107964534D01*
X78872571Y-107964534D01*
X79066095Y-107925829D01*
X79162857Y-107887125D01*
X79211238Y-107848420D01*
X79259619Y-107771010D01*
X79259619Y-107693601D01*
X79211238Y-107616191D01*
X79162857Y-107577487D01*
X79066095Y-107538782D01*
X78872571Y-107500077D01*
X78630667Y-107500077D01*
X78437143Y-107538782D01*
X78340381Y-107577487D01*
X78292000Y-107616191D01*
X78243619Y-107693601D01*
X78243619Y-108467696D02*
X78243619Y-108545105D01*
X78292000Y-108622515D01*
X78340381Y-108661220D01*
X78437143Y-108699924D01*
X78630667Y-108738629D01*
X78872571Y-108738629D01*
X79066095Y-108699924D01*
X79162857Y-108661220D01*
X79211238Y-108622515D01*
X79259619Y-108545105D01*
X79259619Y-108467696D01*
X79211238Y-108390286D01*
X79162857Y-108351582D01*
X79066095Y-108312877D01*
X78872571Y-108274172D01*
X78630667Y-108274172D01*
X78437143Y-108312877D01*
X78340381Y-108351582D01*
X78292000Y-108390286D01*
X78243619Y-108467696D01*
X78582286Y-109086972D02*
X79259619Y-109086972D01*
X78679048Y-109086972D02*
X78630667Y-109125677D01*
X78582286Y-109203086D01*
X78582286Y-109319200D01*
X78630667Y-109396610D01*
X78727429Y-109435315D01*
X79259619Y-109435315D01*
X86522514Y-112962857D02*
X86561219Y-113011238D01*
X86677333Y-113059619D01*
X86754743Y-113059619D01*
X86870857Y-113011238D01*
X86948266Y-112914476D01*
X86986971Y-112817714D01*
X87025676Y-112624190D01*
X87025676Y-112479048D01*
X86986971Y-112285524D01*
X86948266Y-112188762D01*
X86870857Y-112092000D01*
X86754743Y-112043619D01*
X86677333Y-112043619D01*
X86561219Y-112092000D01*
X86522514Y-112140381D01*
X85748419Y-113059619D02*
X86212876Y-113059619D01*
X85980647Y-113059619D02*
X85980647Y-112043619D01*
X86058057Y-112188762D01*
X86135466Y-112285524D01*
X86212876Y-112333905D01*
X85438781Y-112140381D02*
X85400076Y-112092000D01*
X85322667Y-112043619D01*
X85129143Y-112043619D01*
X85051733Y-112092000D01*
X85013029Y-112140381D01*
X84974324Y-112237143D01*
X84974324Y-112333905D01*
X85013029Y-112479048D01*
X85477486Y-113059619D01*
X84974324Y-113059619D01*
X83793447Y-112382286D02*
X83793447Y-113059619D01*
X83986971Y-111995238D02*
X84180495Y-112720952D01*
X83677333Y-112720952D01*
X83367695Y-112962857D02*
X83328990Y-113011238D01*
X83367695Y-113059619D01*
X83406400Y-113011238D01*
X83367695Y-112962857D01*
X83367695Y-113059619D01*
X83058057Y-112043619D02*
X82516190Y-112043619D01*
X82864533Y-113059619D01*
X81858209Y-112382286D02*
X81858209Y-113059619D01*
X82206552Y-112382286D02*
X82206552Y-112914476D01*
X82167847Y-113011238D01*
X82090438Y-113059619D01*
X81974324Y-113059619D01*
X81896914Y-113011238D01*
X81858209Y-112962857D01*
X90522514Y-90962857D02*
X90561219Y-91011238D01*
X90677333Y-91059619D01*
X90754743Y-91059619D01*
X90870857Y-91011238D01*
X90948266Y-90914476D01*
X90986971Y-90817714D01*
X91025676Y-90624190D01*
X91025676Y-90479048D01*
X90986971Y-90285524D01*
X90948266Y-90188762D01*
X90870857Y-90092000D01*
X90754743Y-90043619D01*
X90677333Y-90043619D01*
X90561219Y-90092000D01*
X90522514Y-90140381D01*
X89748419Y-91059619D02*
X90212876Y-91059619D01*
X89980647Y-91059619D02*
X89980647Y-90043619D01*
X90058057Y-90188762D01*
X90135466Y-90285524D01*
X90212876Y-90333905D01*
X89477486Y-90043619D02*
X88974324Y-90043619D01*
X89245257Y-90430667D01*
X89129143Y-90430667D01*
X89051733Y-90479048D01*
X89013029Y-90527429D01*
X88974324Y-90624190D01*
X88974324Y-90866095D01*
X89013029Y-90962857D01*
X89051733Y-91011238D01*
X89129143Y-91059619D01*
X89361371Y-91059619D01*
X89438781Y-91011238D01*
X89477486Y-90962857D01*
X88080495Y-90140381D02*
X88041790Y-90092000D01*
X87964381Y-90043619D01*
X87770857Y-90043619D01*
X87693447Y-90092000D01*
X87654743Y-90140381D01*
X87616038Y-90237143D01*
X87616038Y-90333905D01*
X87654743Y-90479048D01*
X88119200Y-91059619D01*
X87616038Y-91059619D01*
X87267695Y-90962857D02*
X87228990Y-91011238D01*
X87267695Y-91059619D01*
X87306400Y-91011238D01*
X87267695Y-90962857D01*
X87267695Y-91059619D01*
X86919352Y-90140381D02*
X86880647Y-90092000D01*
X86803238Y-90043619D01*
X86609714Y-90043619D01*
X86532304Y-90092000D01*
X86493600Y-90140381D01*
X86454895Y-90237143D01*
X86454895Y-90333905D01*
X86493600Y-90479048D01*
X86958057Y-91059619D01*
X86454895Y-91059619D01*
X85758209Y-90382286D02*
X85758209Y-91059619D01*
X86106552Y-90382286D02*
X86106552Y-90914476D01*
X86067847Y-91011238D01*
X85990438Y-91059619D01*
X85874324Y-91059619D01*
X85796914Y-91011238D01*
X85758209Y-90962857D01*
X61062857Y-80177486D02*
X61111238Y-80138781D01*
X61159619Y-80022667D01*
X61159619Y-79945257D01*
X61111238Y-79829143D01*
X61014476Y-79751734D01*
X60917714Y-79713029D01*
X60724190Y-79674324D01*
X60579048Y-79674324D01*
X60385524Y-79713029D01*
X60288762Y-79751734D01*
X60192000Y-79829143D01*
X60143619Y-79945257D01*
X60143619Y-80022667D01*
X60192000Y-80138781D01*
X60240381Y-80177486D01*
X61159619Y-80951581D02*
X61159619Y-80487124D01*
X61159619Y-80719353D02*
X60143619Y-80719353D01*
X60288762Y-80641943D01*
X60385524Y-80564534D01*
X60433905Y-80487124D01*
X60482286Y-81648267D02*
X61159619Y-81648267D01*
X60095238Y-81454743D02*
X60820952Y-81261219D01*
X60820952Y-81764381D01*
X60240381Y-82719505D02*
X60192000Y-82758210D01*
X60143619Y-82835619D01*
X60143619Y-83029143D01*
X60192000Y-83106553D01*
X60240381Y-83145257D01*
X60337143Y-83183962D01*
X60433905Y-83183962D01*
X60579048Y-83145257D01*
X61159619Y-82680800D01*
X61159619Y-83183962D01*
X61062857Y-83532305D02*
X61111238Y-83571010D01*
X61159619Y-83532305D01*
X61111238Y-83493600D01*
X61062857Y-83532305D01*
X61159619Y-83532305D01*
X60240381Y-83880648D02*
X60192000Y-83919353D01*
X60143619Y-83996762D01*
X60143619Y-84190286D01*
X60192000Y-84267696D01*
X60240381Y-84306400D01*
X60337143Y-84345105D01*
X60433905Y-84345105D01*
X60579048Y-84306400D01*
X61159619Y-83841943D01*
X61159619Y-84345105D01*
X60482286Y-85041791D02*
X61159619Y-85041791D01*
X60482286Y-84693448D02*
X61014476Y-84693448D01*
X61111238Y-84732153D01*
X61159619Y-84809562D01*
X61159619Y-84925676D01*
X61111238Y-85003086D01*
X61062857Y-85041791D01*
X72262857Y-78177486D02*
X72311238Y-78138781D01*
X72359619Y-78022667D01*
X72359619Y-77945257D01*
X72311238Y-77829143D01*
X72214476Y-77751734D01*
X72117714Y-77713029D01*
X71924190Y-77674324D01*
X71779048Y-77674324D01*
X71585524Y-77713029D01*
X71488762Y-77751734D01*
X71392000Y-77829143D01*
X71343619Y-77945257D01*
X71343619Y-78022667D01*
X71392000Y-78138781D01*
X71440381Y-78177486D01*
X72359619Y-78951581D02*
X72359619Y-78487124D01*
X72359619Y-78719353D02*
X71343619Y-78719353D01*
X71488762Y-78641943D01*
X71585524Y-78564534D01*
X71633905Y-78487124D01*
X71343619Y-79686971D02*
X71343619Y-79299924D01*
X71827429Y-79261219D01*
X71779048Y-79299924D01*
X71730667Y-79377333D01*
X71730667Y-79570857D01*
X71779048Y-79648267D01*
X71827429Y-79686971D01*
X71924190Y-79725676D01*
X72166095Y-79725676D01*
X72262857Y-79686971D01*
X72311238Y-79648267D01*
X72359619Y-79570857D01*
X72359619Y-79377333D01*
X72311238Y-79299924D01*
X72262857Y-79261219D01*
X72912738Y-81677738D02*
X72882500Y-81707976D01*
X72852262Y-81768453D01*
X72852262Y-81919643D01*
X72882500Y-81980119D01*
X72912738Y-82010357D01*
X72973214Y-82040596D01*
X73033690Y-82040596D01*
X73124405Y-82010357D01*
X73487262Y-81647500D01*
X73487262Y-82040596D01*
X73426786Y-82312738D02*
X73457024Y-82342977D01*
X73487262Y-82312738D01*
X73457024Y-82282500D01*
X73426786Y-82312738D01*
X73487262Y-82312738D01*
X72912738Y-82584881D02*
X72882500Y-82615119D01*
X72852262Y-82675596D01*
X72852262Y-82826786D01*
X72882500Y-82887262D01*
X72912738Y-82917500D01*
X72973214Y-82947739D01*
X73033690Y-82947739D01*
X73124405Y-82917500D01*
X73487262Y-82554643D01*
X73487262Y-82947739D01*
X73063929Y-83492024D02*
X73487262Y-83492024D01*
X73063929Y-83219881D02*
X73396548Y-83219881D01*
X73457024Y-83250120D01*
X73487262Y-83310596D01*
X73487262Y-83401310D01*
X73457024Y-83461786D01*
X73426786Y-83492024D01*
X69662857Y-103277486D02*
X69711238Y-103238781D01*
X69759619Y-103122667D01*
X69759619Y-103045257D01*
X69711238Y-102929143D01*
X69614476Y-102851734D01*
X69517714Y-102813029D01*
X69324190Y-102774324D01*
X69179048Y-102774324D01*
X68985524Y-102813029D01*
X68888762Y-102851734D01*
X68792000Y-102929143D01*
X68743619Y-103045257D01*
X68743619Y-103122667D01*
X68792000Y-103238781D01*
X68840381Y-103277486D01*
X69759619Y-104051581D02*
X69759619Y-103587124D01*
X69759619Y-103819353D02*
X68743619Y-103819353D01*
X68888762Y-103741943D01*
X68985524Y-103664534D01*
X69033905Y-103587124D01*
X69179048Y-104516038D02*
X69130667Y-104438629D01*
X69082286Y-104399924D01*
X68985524Y-104361219D01*
X68937143Y-104361219D01*
X68840381Y-104399924D01*
X68792000Y-104438629D01*
X68743619Y-104516038D01*
X68743619Y-104670857D01*
X68792000Y-104748267D01*
X68840381Y-104786971D01*
X68937143Y-104825676D01*
X68985524Y-104825676D01*
X69082286Y-104786971D01*
X69130667Y-104748267D01*
X69179048Y-104670857D01*
X69179048Y-104516038D01*
X69227429Y-104438629D01*
X69275810Y-104399924D01*
X69372571Y-104361219D01*
X69566095Y-104361219D01*
X69662857Y-104399924D01*
X69711238Y-104438629D01*
X69759619Y-104516038D01*
X69759619Y-104670857D01*
X69711238Y-104748267D01*
X69662857Y-104786971D01*
X69566095Y-104825676D01*
X69372571Y-104825676D01*
X69275810Y-104786971D01*
X69227429Y-104748267D01*
X69179048Y-104670857D01*
X72140381Y-102713029D02*
X72092000Y-102751734D01*
X72043619Y-102829143D01*
X72043619Y-103022667D01*
X72092000Y-103100077D01*
X72140381Y-103138781D01*
X72237143Y-103177486D01*
X72333905Y-103177486D01*
X72479048Y-103138781D01*
X73059619Y-102674324D01*
X73059619Y-103177486D01*
X72140381Y-103487124D02*
X72092000Y-103525829D01*
X72043619Y-103603238D01*
X72043619Y-103796762D01*
X72092000Y-103874172D01*
X72140381Y-103912876D01*
X72237143Y-103951581D01*
X72333905Y-103951581D01*
X72479048Y-103912876D01*
X73059619Y-103448419D01*
X73059619Y-103951581D01*
X72382286Y-104299924D02*
X73398286Y-104299924D01*
X72430667Y-104299924D02*
X72382286Y-104377333D01*
X72382286Y-104532152D01*
X72430667Y-104609562D01*
X72479048Y-104648267D01*
X72575810Y-104686971D01*
X72866095Y-104686971D01*
X72962857Y-104648267D01*
X73011238Y-104609562D01*
X73059619Y-104532152D01*
X73059619Y-104377333D01*
X73011238Y-104299924D01*
X69662857Y-98977486D02*
X69711238Y-98938781D01*
X69759619Y-98822667D01*
X69759619Y-98745257D01*
X69711238Y-98629143D01*
X69614476Y-98551734D01*
X69517714Y-98513029D01*
X69324190Y-98474324D01*
X69179048Y-98474324D01*
X68985524Y-98513029D01*
X68888762Y-98551734D01*
X68792000Y-98629143D01*
X68743619Y-98745257D01*
X68743619Y-98822667D01*
X68792000Y-98938781D01*
X68840381Y-98977486D01*
X69759619Y-99751581D02*
X69759619Y-99287124D01*
X69759619Y-99519353D02*
X68743619Y-99519353D01*
X68888762Y-99441943D01*
X68985524Y-99364534D01*
X69033905Y-99287124D01*
X69759619Y-100138629D02*
X69759619Y-100293448D01*
X69711238Y-100370857D01*
X69662857Y-100409562D01*
X69517714Y-100486971D01*
X69324190Y-100525676D01*
X68937143Y-100525676D01*
X68840381Y-100486971D01*
X68792000Y-100448267D01*
X68743619Y-100370857D01*
X68743619Y-100216038D01*
X68792000Y-100138629D01*
X68840381Y-100099924D01*
X68937143Y-100061219D01*
X69179048Y-100061219D01*
X69275810Y-100099924D01*
X69324190Y-100138629D01*
X69372571Y-100216038D01*
X69372571Y-100370857D01*
X69324190Y-100448267D01*
X69275810Y-100486971D01*
X69179048Y-100525676D01*
X72140381Y-98813029D02*
X72092000Y-98851734D01*
X72043619Y-98929143D01*
X72043619Y-99122667D01*
X72092000Y-99200077D01*
X72140381Y-99238781D01*
X72237143Y-99277486D01*
X72333905Y-99277486D01*
X72479048Y-99238781D01*
X73059619Y-98774324D01*
X73059619Y-99277486D01*
X72140381Y-99587124D02*
X72092000Y-99625829D01*
X72043619Y-99703238D01*
X72043619Y-99896762D01*
X72092000Y-99974172D01*
X72140381Y-100012876D01*
X72237143Y-100051581D01*
X72333905Y-100051581D01*
X72479048Y-100012876D01*
X73059619Y-99548419D01*
X73059619Y-100051581D01*
X72382286Y-100399924D02*
X73398286Y-100399924D01*
X72430667Y-100399924D02*
X72382286Y-100477333D01*
X72382286Y-100632152D01*
X72430667Y-100709562D01*
X72479048Y-100748267D01*
X72575810Y-100786971D01*
X72866095Y-100786971D01*
X72962857Y-100748267D01*
X73011238Y-100709562D01*
X73059619Y-100632152D01*
X73059619Y-100477333D01*
X73011238Y-100399924D01*
X76126052Y-85887105D02*
X76187631Y-85893947D01*
X76303946Y-85846053D01*
X76358684Y-85791316D01*
X76406578Y-85675000D01*
X76392893Y-85551843D01*
X76351841Y-85456053D01*
X76242367Y-85291842D01*
X76139736Y-85189212D01*
X75975526Y-85079738D01*
X75879736Y-85038686D01*
X75756579Y-85025001D01*
X75640263Y-85072895D01*
X75585526Y-85127632D01*
X75537632Y-85243948D01*
X75544473Y-85305527D01*
X75325526Y-85524474D02*
X75263947Y-85517632D01*
X75175000Y-85538158D01*
X75038158Y-85675000D01*
X75017632Y-85763948D01*
X75024474Y-85825526D01*
X75065527Y-85921316D01*
X75133948Y-85989737D01*
X75263948Y-86065000D01*
X76002894Y-86147105D01*
X75647105Y-86502894D01*
X74572895Y-86140263D02*
X74518159Y-86195000D01*
X74497632Y-86283947D01*
X74504474Y-86345526D01*
X74545527Y-86441315D01*
X74655001Y-86605526D01*
X74826053Y-86776578D01*
X74990264Y-86886051D01*
X75086053Y-86927105D01*
X75147632Y-86933947D01*
X75236579Y-86913420D01*
X75291316Y-86858684D01*
X75311842Y-86769736D01*
X75305000Y-86708158D01*
X75263947Y-86612368D01*
X75154474Y-86448157D01*
X74983422Y-86277105D01*
X74819211Y-86167632D01*
X74723421Y-86126579D01*
X74661843Y-86119737D01*
X74572895Y-86140263D01*
D20*
X78371800Y-78061090D02*
X78371800Y-77260990D01*
X78067000Y-77260990D01*
X77990800Y-77299090D01*
X77952700Y-77337190D01*
X77914600Y-77413390D01*
X77914600Y-77527690D01*
X77952700Y-77603890D01*
X77990800Y-77641990D01*
X78067000Y-77680090D01*
X78371800Y-77680090D01*
X77457400Y-78061090D02*
X77533600Y-78022990D01*
X77571700Y-77984890D01*
X77609800Y-77908690D01*
X77609800Y-77680090D01*
X77571700Y-77603890D01*
X77533600Y-77565790D01*
X77457400Y-77527690D01*
X77343100Y-77527690D01*
X77266900Y-77565790D01*
X77228800Y-77603890D01*
X77190700Y-77680090D01*
X77190700Y-77908690D01*
X77228800Y-77984890D01*
X77266900Y-78022990D01*
X77343100Y-78061090D01*
X77457400Y-78061090D01*
X76924000Y-77527690D02*
X76771600Y-78061090D01*
X76619200Y-77680090D01*
X76466800Y-78061090D01*
X76314400Y-77527690D01*
X75704800Y-78022990D02*
X75781000Y-78061090D01*
X75933400Y-78061090D01*
X76009600Y-78022990D01*
X76047700Y-77946790D01*
X76047700Y-77641990D01*
X76009600Y-77565790D01*
X75933400Y-77527690D01*
X75781000Y-77527690D01*
X75704800Y-77565790D01*
X75666700Y-77641990D01*
X75666700Y-77718190D01*
X76047700Y-77794390D01*
X75323800Y-78061090D02*
X75323800Y-77527690D01*
X75323800Y-77680090D02*
X75285700Y-77603890D01*
X75247600Y-77565790D01*
X75171400Y-77527690D01*
X75095200Y-77527690D01*
X73837900Y-78061090D02*
X74218900Y-78061090D01*
X74218900Y-77260990D01*
X73571200Y-77641990D02*
X73304500Y-77641990D01*
X73190200Y-78061090D02*
X73571200Y-78061090D01*
X73571200Y-77260990D01*
X73190200Y-77260990D01*
X72847300Y-78061090D02*
X72847300Y-77260990D01*
X72656800Y-77260990D01*
X72542500Y-77299090D01*
X72466300Y-77375290D01*
X72428200Y-77451490D01*
X72390100Y-77603890D01*
X72390100Y-77718190D01*
X72428200Y-77870590D01*
X72466300Y-77946790D01*
X72542500Y-78022990D01*
X72656800Y-78061090D01*
X72847300Y-78061090D01*
X71523866Y-114742759D02*
X71523866Y-115565235D01*
X71485161Y-115661997D01*
X71446457Y-115710378D01*
X71369047Y-115758759D01*
X71214228Y-115758759D01*
X71136819Y-115710378D01*
X71098114Y-115661997D01*
X71059409Y-115565235D01*
X71059409Y-114742759D01*
X70711066Y-115710378D02*
X70633656Y-115758759D01*
X70478837Y-115758759D01*
X70401428Y-115710378D01*
X70362723Y-115613616D01*
X70362723Y-115565235D01*
X70401428Y-115468473D01*
X70478837Y-115420092D01*
X70594952Y-115420092D01*
X70672361Y-115371711D01*
X70711066Y-115274950D01*
X70711066Y-115226569D01*
X70672361Y-115129807D01*
X70594952Y-115081426D01*
X70478837Y-115081426D01*
X70401428Y-115129807D01*
X69704742Y-115710378D02*
X69782152Y-115758759D01*
X69936971Y-115758759D01*
X70014380Y-115710378D01*
X70053085Y-115613616D01*
X70053085Y-115226569D01*
X70014380Y-115129807D01*
X69936971Y-115081426D01*
X69782152Y-115081426D01*
X69704742Y-115129807D01*
X69666037Y-115226569D01*
X69666037Y-115323330D01*
X70053085Y-115420092D01*
X69317694Y-115758759D02*
X69317694Y-115081426D01*
X69317694Y-115274950D02*
X69278989Y-115178188D01*
X69240285Y-115129807D01*
X69162875Y-115081426D01*
X69085466Y-115081426D01*
X67808209Y-115758759D02*
X68195256Y-115758759D01*
X68195256Y-114742759D01*
X67537275Y-115226569D02*
X67266342Y-115226569D01*
X67150228Y-115758759D02*
X67537275Y-115758759D01*
X67537275Y-114742759D01*
X67150228Y-114742759D01*
X66801885Y-115758759D02*
X66801885Y-114742759D01*
X66608361Y-114742759D01*
X66492247Y-114791140D01*
X66414838Y-114887902D01*
X66376133Y-114984664D01*
X66337428Y-115178188D01*
X66337428Y-115323330D01*
X66376133Y-115516854D01*
X66414838Y-115613616D01*
X66492247Y-115710378D01*
X66608361Y-115758759D01*
X66801885Y-115758759D01*
D16*
X69846667Y-85784619D02*
X69846667Y-86510333D01*
X69895047Y-86655476D01*
X69991809Y-86752238D01*
X70136952Y-86800619D01*
X70233714Y-86800619D01*
X69362857Y-86800619D02*
X69362857Y-85784619D01*
X68975810Y-85784619D01*
X68879048Y-85833000D01*
X68830667Y-85881381D01*
X68782286Y-85978143D01*
X68782286Y-86123286D01*
X68830667Y-86220048D01*
X68879048Y-86268429D01*
X68975810Y-86316810D01*
X69362857Y-86316810D01*
X67814667Y-86800619D02*
X68395238Y-86800619D01*
X68104952Y-86800619D02*
X68104952Y-85784619D01*
X68201714Y-85929762D01*
X68298476Y-86026524D01*
X68395238Y-86074905D01*
X91969619Y-83450096D02*
X90953619Y-83450096D01*
X90953619Y-83837143D01*
X91002000Y-83933905D01*
X91050381Y-83982286D01*
X91147143Y-84030667D01*
X91292286Y-84030667D01*
X91389048Y-83982286D01*
X91437429Y-83933905D01*
X91485810Y-83837143D01*
X91485810Y-83450096D01*
X91969619Y-84998286D02*
X91969619Y-84417715D01*
X91969619Y-84708001D02*
X90953619Y-84708001D01*
X91098762Y-84611239D01*
X91195524Y-84514477D01*
X91243905Y-84417715D01*
X67749904Y-91300619D02*
X67749904Y-90284619D01*
X67362857Y-90284619D01*
X67266095Y-90333000D01*
X67217714Y-90381381D01*
X67169333Y-90478143D01*
X67169333Y-90623286D01*
X67217714Y-90720048D01*
X67266095Y-90768429D01*
X67362857Y-90816810D01*
X67749904Y-90816810D01*
X66298476Y-90623286D02*
X66298476Y-91300619D01*
X66540380Y-90236238D02*
X66782285Y-90961952D01*
X66153333Y-90961952D01*
D12*
X60559619Y-85964534D02*
X60075810Y-85693601D01*
X60559619Y-85500077D02*
X59543619Y-85500077D01*
X59543619Y-85809715D01*
X59592000Y-85887124D01*
X59640381Y-85925829D01*
X59737143Y-85964534D01*
X59882286Y-85964534D01*
X59979048Y-85925829D01*
X60027429Y-85887124D01*
X60075810Y-85809715D01*
X60075810Y-85500077D01*
X60559619Y-86738629D02*
X60559619Y-86274172D01*
X60559619Y-86506401D02*
X59543619Y-86506401D01*
X59688762Y-86428991D01*
X59785524Y-86351582D01*
X59833905Y-86274172D01*
X60559619Y-90264534D02*
X60075810Y-89993601D01*
X60559619Y-89800077D02*
X59543619Y-89800077D01*
X59543619Y-90109715D01*
X59592000Y-90187124D01*
X59640381Y-90225829D01*
X59737143Y-90264534D01*
X59882286Y-90264534D01*
X59979048Y-90225829D01*
X60027429Y-90187124D01*
X60075810Y-90109715D01*
X60075810Y-89800077D01*
X59640381Y-90574172D02*
X59592000Y-90612877D01*
X59543619Y-90690286D01*
X59543619Y-90883810D01*
X59592000Y-90961220D01*
X59640381Y-90999924D01*
X59737143Y-91038629D01*
X59833905Y-91038629D01*
X59979048Y-90999924D01*
X60559619Y-90535467D01*
X60559619Y-91038629D01*
X81159619Y-82964534D02*
X80675810Y-82693601D01*
X81159619Y-82500077D02*
X80143619Y-82500077D01*
X80143619Y-82809715D01*
X80192000Y-82887124D01*
X80240381Y-82925829D01*
X80337143Y-82964534D01*
X80482286Y-82964534D01*
X80579048Y-82925829D01*
X80627429Y-82887124D01*
X80675810Y-82809715D01*
X80675810Y-82500077D01*
X80143619Y-83235467D02*
X80143619Y-83738629D01*
X80530667Y-83467696D01*
X80530667Y-83583810D01*
X80579048Y-83661220D01*
X80627429Y-83699924D01*
X80724190Y-83738629D01*
X80966095Y-83738629D01*
X81062857Y-83699924D01*
X81111238Y-83661220D01*
X81159619Y-83583810D01*
X81159619Y-83351582D01*
X81111238Y-83274172D01*
X81062857Y-83235467D01*
X83825829Y-82679086D02*
X84367695Y-82679086D01*
X83516190Y-82533943D02*
X84096762Y-82388800D01*
X84096762Y-82766172D01*
X83554895Y-82940343D02*
X83554895Y-83346743D01*
X84367695Y-83085486D01*
X84367695Y-83578971D02*
X83554895Y-83578971D01*
X84058057Y-83637028D02*
X84367695Y-83811199D01*
X83825829Y-83811199D02*
X84135467Y-83578971D01*
X76701599Y-83567695D02*
X76904799Y-83180648D01*
X77049942Y-83567695D02*
X77049942Y-82754895D01*
X76817714Y-82754895D01*
X76759656Y-82793600D01*
X76730628Y-82832305D01*
X76701599Y-82909714D01*
X76701599Y-83025829D01*
X76730628Y-83103238D01*
X76759656Y-83141943D01*
X76817714Y-83180648D01*
X77049942Y-83180648D01*
X76150056Y-82754895D02*
X76440342Y-82754895D01*
X76469371Y-83141943D01*
X76440342Y-83103238D01*
X76382285Y-83064533D01*
X76237142Y-83064533D01*
X76179085Y-83103238D01*
X76150056Y-83141943D01*
X76121028Y-83219352D01*
X76121028Y-83412876D01*
X76150056Y-83490286D01*
X76179085Y-83528990D01*
X76237142Y-83567695D01*
X76382285Y-83567695D01*
X76440342Y-83528990D01*
X76469371Y-83490286D01*
X74772571Y-83567695D02*
X75120914Y-83567695D01*
X74946742Y-83567695D02*
X74946742Y-82754895D01*
X75004799Y-82871010D01*
X75062857Y-82948419D01*
X75120914Y-82987124D01*
X74511314Y-83567695D02*
X74511314Y-82754895D01*
X74453257Y-83258057D02*
X74279086Y-83567695D01*
X74279086Y-83025829D02*
X74511314Y-83335467D01*
X70435466Y-121659619D02*
X70706399Y-121175810D01*
X70899923Y-121659619D02*
X70899923Y-120643619D01*
X70590285Y-120643619D01*
X70512876Y-120692000D01*
X70474171Y-120740381D01*
X70435466Y-120837143D01*
X70435466Y-120982286D01*
X70474171Y-121079048D01*
X70512876Y-121127429D01*
X70590285Y-121175810D01*
X70899923Y-121175810D01*
X69738780Y-120643619D02*
X69893599Y-120643619D01*
X69971009Y-120692000D01*
X70009714Y-120740381D01*
X70087123Y-120885524D01*
X70125828Y-121079048D01*
X70125828Y-121466095D01*
X70087123Y-121562857D01*
X70048418Y-121611238D01*
X69971009Y-121659619D01*
X69816190Y-121659619D01*
X69738780Y-121611238D01*
X69700076Y-121562857D01*
X69661371Y-121466095D01*
X69661371Y-121224190D01*
X69700076Y-121127429D01*
X69738780Y-121079048D01*
X69816190Y-121030667D01*
X69971009Y-121030667D01*
X70048418Y-121079048D01*
X70087123Y-121127429D01*
X70125828Y-121224190D01*
X68096762Y-121659619D02*
X68561219Y-121659619D01*
X68328990Y-121659619D02*
X68328990Y-120643619D01*
X68406400Y-120788762D01*
X68483809Y-120885524D01*
X68561219Y-120933905D01*
X67748419Y-121659619D02*
X67748419Y-120643619D01*
X67671010Y-121272571D02*
X67438781Y-121659619D01*
X67438781Y-120982286D02*
X67748419Y-121369333D01*
D19*
X68361143Y-72066689D02*
X68361143Y-73300403D01*
X68288571Y-73445546D01*
X68216000Y-73518117D01*
X68070857Y-73590689D01*
X67780571Y-73590689D01*
X67635429Y-73518117D01*
X67562857Y-73445546D01*
X67490286Y-73300403D01*
X67490286Y-72066689D01*
X66111429Y-72066689D02*
X66401715Y-72066689D01*
X66546858Y-72139260D01*
X66619429Y-72211831D01*
X66764572Y-72429546D01*
X66837143Y-72719831D01*
X66837143Y-73300403D01*
X66764572Y-73445546D01*
X66692000Y-73518117D01*
X66546858Y-73590689D01*
X66256572Y-73590689D01*
X66111429Y-73518117D01*
X66038858Y-73445546D01*
X65966286Y-73300403D01*
X65966286Y-72937546D01*
X66038858Y-72792403D01*
X66111429Y-72719831D01*
X66256572Y-72647260D01*
X66546858Y-72647260D01*
X66692000Y-72719831D01*
X66764572Y-72792403D01*
X66837143Y-72937546D01*
X76333715Y-109865429D02*
X75317715Y-111389429D01*
X75317715Y-109865429D02*
X76333715Y-111389429D01*
X73938857Y-111389429D02*
X74809714Y-111389429D01*
X74374286Y-111389429D02*
X74374286Y-109865429D01*
X74519429Y-110083143D01*
X74664571Y-110228286D01*
X74809714Y-110300857D01*
D12*
X61722514Y-93762857D02*
X61761219Y-93811238D01*
X61877333Y-93859619D01*
X61954743Y-93859619D01*
X62070857Y-93811238D01*
X62148266Y-93714476D01*
X62186971Y-93617714D01*
X62225676Y-93424190D01*
X62225676Y-93279048D01*
X62186971Y-93085524D01*
X62148266Y-92988762D01*
X62070857Y-92892000D01*
X61954743Y-92843619D01*
X61877333Y-92843619D01*
X61761219Y-92892000D01*
X61722514Y-92940381D01*
X61412876Y-92940381D02*
X61374171Y-92892000D01*
X61296762Y-92843619D01*
X61103238Y-92843619D01*
X61025828Y-92892000D01*
X60987124Y-92940381D01*
X60948419Y-93037143D01*
X60948419Y-93133905D01*
X60987124Y-93279048D01*
X61451581Y-93859619D01*
X60948419Y-93859619D01*
X60174324Y-93859619D02*
X60638781Y-93859619D01*
X60406552Y-93859619D02*
X60406552Y-92843619D01*
X60483962Y-92988762D01*
X60561371Y-93085524D01*
X60638781Y-93133905D01*
X56126052Y-116087105D02*
X56187631Y-116093947D01*
X56303946Y-116046053D01*
X56358684Y-115991316D01*
X56406578Y-115875000D01*
X56392893Y-115751843D01*
X56351841Y-115656053D01*
X56242367Y-115491842D01*
X56139736Y-115389212D01*
X55975526Y-115279738D01*
X55879736Y-115238686D01*
X55756579Y-115225001D01*
X55640263Y-115272895D01*
X55585526Y-115327632D01*
X55537632Y-115443948D01*
X55544473Y-115505527D01*
X55325526Y-115724474D02*
X55263947Y-115717632D01*
X55175000Y-115738158D01*
X55038158Y-115875000D01*
X55017632Y-115963948D01*
X55024474Y-116025526D01*
X55065527Y-116121316D01*
X55133948Y-116189737D01*
X55263948Y-116265000D01*
X56002894Y-116347105D01*
X55647105Y-116702894D01*
X54778159Y-116271842D02*
X54716579Y-116265000D01*
X54627632Y-116285526D01*
X54490790Y-116422368D01*
X54470264Y-116511316D01*
X54477106Y-116572894D01*
X54518159Y-116668684D01*
X54586580Y-116737105D01*
X54716580Y-116812368D01*
X55455527Y-116894473D01*
X55099737Y-117250262D01*
X55214999Y-119107105D02*
X54736052Y-119586051D01*
X55625525Y-118970263D02*
X55249210Y-119620262D01*
X54893421Y-119264473D01*
X54503421Y-119216578D02*
X54441842Y-119223420D01*
X54435000Y-119284999D01*
X54496579Y-119278157D01*
X54503421Y-119216578D01*
X54435000Y-119284999D01*
X54934473Y-118347632D02*
X54551315Y-117964474D01*
X54079211Y-118929210D01*
X54092895Y-117985000D02*
X53613948Y-118463947D01*
X54024474Y-118053422D02*
X54031315Y-117991842D01*
X54010790Y-117902895D01*
X53928685Y-117820790D01*
X53839737Y-117800264D01*
X53743947Y-117841316D01*
X53367632Y-118217632D01*
X60020789Y-120529211D02*
X59870263Y-119995528D01*
X60349209Y-120200790D02*
X59630789Y-119482370D01*
X59411842Y-119701317D01*
X59391316Y-119790264D01*
X59398158Y-119851843D01*
X59439210Y-119947632D01*
X59541842Y-120050264D01*
X59637632Y-120091317D01*
X59699211Y-120098158D01*
X59788158Y-120077633D01*
X60007105Y-119858685D01*
X59110790Y-120002369D02*
X58727632Y-120385527D01*
X59692368Y-120857631D01*
X60517105Y-117867104D02*
X60845526Y-118195525D01*
X60681315Y-118031314D02*
X61399735Y-117312894D01*
X61351841Y-117470263D01*
X61338156Y-117593420D01*
X61358683Y-117682368D01*
X60879736Y-116792895D02*
X60825000Y-116738158D01*
X60736052Y-116717632D01*
X60674473Y-116724474D01*
X60578684Y-116765527D01*
X60414473Y-116875000D01*
X60243421Y-117046052D01*
X60133948Y-117210263D01*
X60092895Y-117306052D01*
X60086053Y-117367631D01*
X60106579Y-117456579D01*
X60161316Y-117511315D01*
X60250263Y-117531842D01*
X60311842Y-117524999D01*
X60407631Y-117483947D01*
X60571842Y-117374473D01*
X60742894Y-117203421D01*
X60852368Y-117039210D01*
X60893420Y-116943421D01*
X60900263Y-116881842D01*
X60879736Y-116792895D01*
X59723421Y-117073421D02*
X60441842Y-116355000D01*
X59942369Y-116745000D02*
X59504474Y-116854474D01*
X59983421Y-116375527D02*
X59928685Y-116868158D01*
M02*
