G04 #@! TF.FileFunction,Legend,Top*
%FSLAX46Y46*%
G04 Gerber Fmt 4.6, Leading zero omitted, Abs format (unit mm)*
G04 Created by KiCad (PCBNEW (after 2015-mar-04 BZR unknown)-product) date Wed May  6 18:15:44 2015*
%MOMM*%
G01*
G04 APERTURE LIST*
%ADD10C,0.100000*%
%ADD11C,0.200000*%
%ADD12C,0.150000*%
%ADD13C,0.127000*%
%ADD14C,0.304800*%
%ADD15C,0.050800*%
%ADD16C,0.203200*%
G04 APERTURE END LIST*
D10*
X87500000Y-134500000D02*
X66500000Y-134500000D01*
X112500000Y-134500000D02*
X133500000Y-134500000D01*
X105000000Y-149500000D02*
X112500000Y-134500000D01*
X95000000Y-149500000D02*
X105000000Y-149500000D01*
X87500000Y-134500000D02*
X95000000Y-149500000D01*
X108000000Y-65500000D02*
X133500000Y-65500000D01*
X92000000Y-65500000D02*
X66500000Y-65500000D01*
X105000000Y-59500000D02*
X108000000Y-65500000D01*
X95000000Y-59500000D02*
X105000000Y-59500000D01*
X92000000Y-65500000D02*
X95000000Y-59500000D01*
X51000000Y-105500000D02*
X52000000Y-116000000D01*
X51000000Y-94500000D02*
X51000000Y-105500000D01*
X52000000Y-84000000D02*
X51000000Y-94500000D01*
X148000000Y-116000000D02*
X149000000Y-105500000D01*
X149000000Y-105500000D02*
X149000000Y-94500000D01*
X145000000Y-125000000D02*
X148000000Y-116000000D01*
X133500000Y-134500000D02*
X145000000Y-125000000D01*
X55000000Y-125000000D02*
X66500000Y-134500000D01*
X52000000Y-116000000D02*
X55000000Y-125000000D01*
X55000000Y-75000000D02*
X52000000Y-84000000D01*
X66500000Y-65500000D02*
X55000000Y-75000000D01*
X145000000Y-75000000D02*
X133500000Y-65500000D01*
X148000000Y-84000000D02*
X145000000Y-75000000D01*
X149000000Y-94500000D02*
X148000000Y-84000000D01*
D11*
X101500000Y-100000000D02*
G75*
G03X101500000Y-100000000I-1500000J0D01*
G01*
D12*
X78065000Y-69843000D02*
X78065000Y-67557000D01*
X78065000Y-67557000D02*
X79335000Y-67557000D01*
X79335000Y-67557000D02*
X79335000Y-69843000D01*
X79335000Y-69843000D02*
X78065000Y-69843000D01*
D13*
X88965000Y-121065000D02*
X90235000Y-121065000D01*
X88965000Y-122335000D02*
X90209600Y-122335000D01*
X88965000Y-122716000D02*
X88965000Y-120684000D01*
X88965000Y-120684000D02*
X90235000Y-120684000D01*
X90235000Y-120684000D02*
X90235000Y-122716000D01*
X90235000Y-122716000D02*
X88965000Y-122716000D01*
X80900000Y-99198026D02*
X80001974Y-98300000D01*
X81798026Y-98300000D02*
X80917961Y-97419935D01*
X82067433Y-98030592D02*
X80630592Y-99467433D01*
X80630592Y-99467433D02*
X79732567Y-98569408D01*
X79732567Y-98569408D02*
X81169408Y-97132567D01*
X81169408Y-97132567D02*
X82067433Y-98030592D01*
X74435000Y-123035000D02*
X73165000Y-123035000D01*
X74435000Y-121765000D02*
X73190400Y-121765000D01*
X74435000Y-121384000D02*
X74435000Y-123416000D01*
X74435000Y-123416000D02*
X73165000Y-123416000D01*
X73165000Y-123416000D02*
X73165000Y-121384000D01*
X73165000Y-121384000D02*
X74435000Y-121384000D01*
D12*
X102142190Y-66628417D02*
X102342190Y-66628417D01*
X101692190Y-69178417D02*
X101492190Y-69178417D01*
X102492190Y-69178417D02*
X101992190Y-69178417D01*
X102992190Y-69178417D02*
X102792190Y-69178417D01*
X102792190Y-67578417D02*
X102992190Y-67578417D01*
X101992190Y-67578417D02*
X102492190Y-67578417D01*
X101492190Y-67578417D02*
X101692190Y-67578417D01*
X101692190Y-67578417D02*
G75*
G03X101992190Y-67578417I150000J150000D01*
G01*
X102492190Y-67578417D02*
G75*
G03X102792190Y-67578417I150000J150000D01*
G01*
X102792190Y-69178417D02*
G75*
G03X102492190Y-69178417I-150000J-150000D01*
G01*
X101992190Y-69178417D02*
G75*
G03X101692190Y-69178417I-150000J-150000D01*
G01*
X101492190Y-69178417D02*
X101492190Y-67578417D01*
X102992190Y-67578417D02*
X102992190Y-69178417D01*
X117573013Y-66628417D02*
X117773013Y-66628417D01*
X117123013Y-69178417D02*
X116923013Y-69178417D01*
X117923013Y-69178417D02*
X117423013Y-69178417D01*
X118423013Y-69178417D02*
X118223013Y-69178417D01*
X118223013Y-67578417D02*
X118423013Y-67578417D01*
X117423013Y-67578417D02*
X117923013Y-67578417D01*
X116923013Y-67578417D02*
X117123013Y-67578417D01*
X117123013Y-67578417D02*
G75*
G03X117423013Y-67578417I150000J150000D01*
G01*
X117923013Y-67578417D02*
G75*
G03X118223013Y-67578417I150000J150000D01*
G01*
X118223013Y-69178417D02*
G75*
G03X117923013Y-69178417I-150000J-150000D01*
G01*
X117423013Y-69178417D02*
G75*
G03X117123013Y-69178417I-150000J-150000D01*
G01*
X116923013Y-69178417D02*
X116923013Y-67578417D01*
X118423013Y-67578417D02*
X118423013Y-69178417D01*
X125979558Y-66628417D02*
X126179558Y-66628417D01*
X125529558Y-69178417D02*
X125329558Y-69178417D01*
X126329558Y-69178417D02*
X125829558Y-69178417D01*
X126829558Y-69178417D02*
X126629558Y-69178417D01*
X126629558Y-67578417D02*
X126829558Y-67578417D01*
X125829558Y-67578417D02*
X126329558Y-67578417D01*
X125329558Y-67578417D02*
X125529558Y-67578417D01*
X125529558Y-67578417D02*
G75*
G03X125829558Y-67578417I150000J150000D01*
G01*
X126329558Y-67578417D02*
G75*
G03X126629558Y-67578417I150000J150000D01*
G01*
X126629558Y-69178417D02*
G75*
G03X126329558Y-69178417I-150000J-150000D01*
G01*
X125829558Y-69178417D02*
G75*
G03X125529558Y-69178417I-150000J-150000D01*
G01*
X125329558Y-69178417D02*
X125329558Y-67578417D01*
X126829558Y-67578417D02*
X126829558Y-69178417D01*
X133193413Y-66628417D02*
X133393413Y-66628417D01*
X132743413Y-69178417D02*
X132543413Y-69178417D01*
X133543413Y-69178417D02*
X133043413Y-69178417D01*
X134043413Y-69178417D02*
X133843413Y-69178417D01*
X133843413Y-67578417D02*
X134043413Y-67578417D01*
X133043413Y-67578417D02*
X133543413Y-67578417D01*
X132543413Y-67578417D02*
X132743413Y-67578417D01*
X132743413Y-67578417D02*
G75*
G03X133043413Y-67578417I150000J150000D01*
G01*
X133543413Y-67578417D02*
G75*
G03X133843413Y-67578417I150000J150000D01*
G01*
X133843413Y-69178417D02*
G75*
G03X133543413Y-69178417I-150000J-150000D01*
G01*
X133043413Y-69178417D02*
G75*
G03X132743413Y-69178417I-150000J-150000D01*
G01*
X132543413Y-69178417D02*
X132543413Y-67578417D01*
X134043413Y-67578417D02*
X134043413Y-69178417D01*
X108053428Y-75663155D02*
X108253428Y-75663155D01*
X107603428Y-78213155D02*
X107403428Y-78213155D01*
X108403428Y-78213155D02*
X107903428Y-78213155D01*
X108903428Y-78213155D02*
X108703428Y-78213155D01*
X108703428Y-76613155D02*
X108903428Y-76613155D01*
X107903428Y-76613155D02*
X108403428Y-76613155D01*
X107403428Y-76613155D02*
X107603428Y-76613155D01*
X107603428Y-76613155D02*
G75*
G03X107903428Y-76613155I150000J150000D01*
G01*
X108403428Y-76613155D02*
G75*
G03X108703428Y-76613155I150000J150000D01*
G01*
X108703428Y-78213155D02*
G75*
G03X108403428Y-78213155I-150000J-150000D01*
G01*
X107903428Y-78213155D02*
G75*
G03X107603428Y-78213155I-150000J-150000D01*
G01*
X107403428Y-78213155D02*
X107403428Y-76613155D01*
X108903428Y-76613155D02*
X108903428Y-78213155D01*
X117599897Y-75663155D02*
X117799897Y-75663155D01*
X117149897Y-78213155D02*
X116949897Y-78213155D01*
X117949897Y-78213155D02*
X117449897Y-78213155D01*
X118449897Y-78213155D02*
X118249897Y-78213155D01*
X118249897Y-76613155D02*
X118449897Y-76613155D01*
X117449897Y-76613155D02*
X117949897Y-76613155D01*
X116949897Y-76613155D02*
X117149897Y-76613155D01*
X117149897Y-76613155D02*
G75*
G03X117449897Y-76613155I150000J150000D01*
G01*
X117949897Y-76613155D02*
G75*
G03X118249897Y-76613155I150000J150000D01*
G01*
X118249897Y-78213155D02*
G75*
G03X117949897Y-78213155I-150000J-150000D01*
G01*
X117449897Y-78213155D02*
G75*
G03X117149897Y-78213155I-150000J-150000D01*
G01*
X116949897Y-78213155D02*
X116949897Y-76613155D01*
X118449897Y-76613155D02*
X118449897Y-78213155D01*
X124811731Y-75663155D02*
X125011731Y-75663155D01*
X124361731Y-78213155D02*
X124161731Y-78213155D01*
X125161731Y-78213155D02*
X124661731Y-78213155D01*
X125661731Y-78213155D02*
X125461731Y-78213155D01*
X125461731Y-76613155D02*
X125661731Y-76613155D01*
X124661731Y-76613155D02*
X125161731Y-76613155D01*
X124161731Y-76613155D02*
X124361731Y-76613155D01*
X124361731Y-76613155D02*
G75*
G03X124661731Y-76613155I150000J150000D01*
G01*
X125161731Y-76613155D02*
G75*
G03X125461731Y-76613155I150000J150000D01*
G01*
X125461731Y-78213155D02*
G75*
G03X125161731Y-78213155I-150000J-150000D01*
G01*
X124661731Y-78213155D02*
G75*
G03X124361731Y-78213155I-150000J-150000D01*
G01*
X124161731Y-78213155D02*
X124161731Y-76613155D01*
X125661731Y-76613155D02*
X125661731Y-78213155D01*
X131338866Y-75663155D02*
X131538866Y-75663155D01*
X130888866Y-78213155D02*
X130688866Y-78213155D01*
X131688866Y-78213155D02*
X131188866Y-78213155D01*
X132188866Y-78213155D02*
X131988866Y-78213155D01*
X131988866Y-76613155D02*
X132188866Y-76613155D01*
X131188866Y-76613155D02*
X131688866Y-76613155D01*
X130688866Y-76613155D02*
X130888866Y-76613155D01*
X130888866Y-76613155D02*
G75*
G03X131188866Y-76613155I150000J150000D01*
G01*
X131688866Y-76613155D02*
G75*
G03X131988866Y-76613155I150000J150000D01*
G01*
X131988866Y-78213155D02*
G75*
G03X131688866Y-78213155I-150000J-150000D01*
G01*
X131188866Y-78213155D02*
G75*
G03X130888866Y-78213155I-150000J-150000D01*
G01*
X130688866Y-78213155D02*
X130688866Y-76613155D01*
X132188866Y-76613155D02*
X132188866Y-78213155D01*
X137539212Y-75663155D02*
X137739212Y-75663155D01*
X137089212Y-78213155D02*
X136889212Y-78213155D01*
X137889212Y-78213155D02*
X137389212Y-78213155D01*
X138389212Y-78213155D02*
X138189212Y-78213155D01*
X138189212Y-76613155D02*
X138389212Y-76613155D01*
X137389212Y-76613155D02*
X137889212Y-76613155D01*
X136889212Y-76613155D02*
X137089212Y-76613155D01*
X137089212Y-76613155D02*
G75*
G03X137389212Y-76613155I150000J150000D01*
G01*
X137889212Y-76613155D02*
G75*
G03X138189212Y-76613155I150000J150000D01*
G01*
X138189212Y-78213155D02*
G75*
G03X137889212Y-78213155I-150000J-150000D01*
G01*
X137389212Y-78213155D02*
G75*
G03X137089212Y-78213155I-150000J-150000D01*
G01*
X136889212Y-78213155D02*
X136889212Y-76613155D01*
X138389212Y-76613155D02*
X138389212Y-78213155D01*
X143552242Y-75663155D02*
X143752242Y-75663155D01*
X143102242Y-78213155D02*
X142902242Y-78213155D01*
X143902242Y-78213155D02*
X143402242Y-78213155D01*
X144402242Y-78213155D02*
X144202242Y-78213155D01*
X144202242Y-76613155D02*
X144402242Y-76613155D01*
X143402242Y-76613155D02*
X143902242Y-76613155D01*
X142902242Y-76613155D02*
X143102242Y-76613155D01*
X143102242Y-76613155D02*
G75*
G03X143402242Y-76613155I150000J150000D01*
G01*
X143902242Y-76613155D02*
G75*
G03X144202242Y-76613155I150000J150000D01*
G01*
X144202242Y-78213155D02*
G75*
G03X143902242Y-78213155I-150000J-150000D01*
G01*
X143402242Y-78213155D02*
G75*
G03X143102242Y-78213155I-150000J-150000D01*
G01*
X142902242Y-78213155D02*
X142902242Y-76613155D01*
X144402242Y-76613155D02*
X144402242Y-78213155D01*
X109156153Y-84697893D02*
X109356153Y-84697893D01*
X108706153Y-87247893D02*
X108506153Y-87247893D01*
X109506153Y-87247893D02*
X109006153Y-87247893D01*
X110006153Y-87247893D02*
X109806153Y-87247893D01*
X109806153Y-85647893D02*
X110006153Y-85647893D01*
X109006153Y-85647893D02*
X109506153Y-85647893D01*
X108506153Y-85647893D02*
X108706153Y-85647893D01*
X108706153Y-85647893D02*
G75*
G03X109006153Y-85647893I150000J150000D01*
G01*
X109506153Y-85647893D02*
G75*
G03X109806153Y-85647893I150000J150000D01*
G01*
X109806153Y-87247893D02*
G75*
G03X109506153Y-87247893I-150000J-150000D01*
G01*
X109006153Y-87247893D02*
G75*
G03X108706153Y-87247893I-150000J-150000D01*
G01*
X108506153Y-87247893D02*
X108506153Y-85647893D01*
X110006153Y-85647893D02*
X110006153Y-87247893D01*
X116391948Y-84697893D02*
X116591948Y-84697893D01*
X115941948Y-87247893D02*
X115741948Y-87247893D01*
X116741948Y-87247893D02*
X116241948Y-87247893D01*
X117241948Y-87247893D02*
X117041948Y-87247893D01*
X117041948Y-85647893D02*
X117241948Y-85647893D01*
X116241948Y-85647893D02*
X116741948Y-85647893D01*
X115741948Y-85647893D02*
X115941948Y-85647893D01*
X115941948Y-85647893D02*
G75*
G03X116241948Y-85647893I150000J150000D01*
G01*
X116741948Y-85647893D02*
G75*
G03X117041948Y-85647893I150000J150000D01*
G01*
X117041948Y-87247893D02*
G75*
G03X116741948Y-87247893I-150000J-150000D01*
G01*
X116241948Y-87247893D02*
G75*
G03X115941948Y-87247893I-150000J-150000D01*
G01*
X115741948Y-87247893D02*
X115741948Y-85647893D01*
X117241948Y-85647893D02*
X117241948Y-87247893D01*
X122677013Y-84697893D02*
X122877013Y-84697893D01*
X122227013Y-87247893D02*
X122027013Y-87247893D01*
X123027013Y-87247893D02*
X122527013Y-87247893D01*
X123527013Y-87247893D02*
X123327013Y-87247893D01*
X123327013Y-85647893D02*
X123527013Y-85647893D01*
X122527013Y-85647893D02*
X123027013Y-85647893D01*
X122027013Y-85647893D02*
X122227013Y-85647893D01*
X122227013Y-85647893D02*
G75*
G03X122527013Y-85647893I150000J150000D01*
G01*
X123027013Y-85647893D02*
G75*
G03X123327013Y-85647893I150000J150000D01*
G01*
X123327013Y-87247893D02*
G75*
G03X123027013Y-87247893I-150000J-150000D01*
G01*
X122527013Y-87247893D02*
G75*
G03X122227013Y-87247893I-150000J-150000D01*
G01*
X122027013Y-87247893D02*
X122027013Y-85647893D01*
X123527013Y-85647893D02*
X123527013Y-87247893D01*
X128641960Y-84697893D02*
X128841960Y-84697893D01*
X128191960Y-87247893D02*
X127991960Y-87247893D01*
X128991960Y-87247893D02*
X128491960Y-87247893D01*
X129491960Y-87247893D02*
X129291960Y-87247893D01*
X129291960Y-85647893D02*
X129491960Y-85647893D01*
X128491960Y-85647893D02*
X128991960Y-85647893D01*
X127991960Y-85647893D02*
X128191960Y-85647893D01*
X128191960Y-85647893D02*
G75*
G03X128491960Y-85647893I150000J150000D01*
G01*
X128991960Y-85647893D02*
G75*
G03X129291960Y-85647893I150000J150000D01*
G01*
X129291960Y-87247893D02*
G75*
G03X128991960Y-87247893I-150000J-150000D01*
G01*
X128491960Y-87247893D02*
G75*
G03X128191960Y-87247893I-150000J-150000D01*
G01*
X127991960Y-87247893D02*
X127991960Y-85647893D01*
X129491960Y-85647893D02*
X129491960Y-87247893D01*
X134452978Y-84697893D02*
X134652978Y-84697893D01*
X134002978Y-87247893D02*
X133802978Y-87247893D01*
X134802978Y-87247893D02*
X134302978Y-87247893D01*
X135302978Y-87247893D02*
X135102978Y-87247893D01*
X135102978Y-85647893D02*
X135302978Y-85647893D01*
X134302978Y-85647893D02*
X134802978Y-85647893D01*
X133802978Y-85647893D02*
X134002978Y-85647893D01*
X134002978Y-85647893D02*
G75*
G03X134302978Y-85647893I150000J150000D01*
G01*
X134802978Y-85647893D02*
G75*
G03X135102978Y-85647893I150000J150000D01*
G01*
X135102978Y-87247893D02*
G75*
G03X134802978Y-87247893I-150000J-150000D01*
G01*
X134302978Y-87247893D02*
G75*
G03X134002978Y-87247893I-150000J-150000D01*
G01*
X133802978Y-87247893D02*
X133802978Y-85647893D01*
X135302978Y-85647893D02*
X135302978Y-87247893D01*
X140176746Y-84697893D02*
X140376746Y-84697893D01*
X139726746Y-87247893D02*
X139526746Y-87247893D01*
X140526746Y-87247893D02*
X140026746Y-87247893D01*
X141026746Y-87247893D02*
X140826746Y-87247893D01*
X140826746Y-85647893D02*
X141026746Y-85647893D01*
X140026746Y-85647893D02*
X140526746Y-85647893D01*
X139526746Y-85647893D02*
X139726746Y-85647893D01*
X139726746Y-85647893D02*
G75*
G03X140026746Y-85647893I150000J150000D01*
G01*
X140526746Y-85647893D02*
G75*
G03X140826746Y-85647893I150000J150000D01*
G01*
X140826746Y-87247893D02*
G75*
G03X140526746Y-87247893I-150000J-150000D01*
G01*
X140026746Y-87247893D02*
G75*
G03X139726746Y-87247893I-150000J-150000D01*
G01*
X139526746Y-87247893D02*
X139526746Y-85647893D01*
X141026746Y-85647893D02*
X141026746Y-87247893D01*
X145845884Y-84697893D02*
X146045884Y-84697893D01*
X145395884Y-87247893D02*
X145195884Y-87247893D01*
X146195884Y-87247893D02*
X145695884Y-87247893D01*
X146695884Y-87247893D02*
X146495884Y-87247893D01*
X146495884Y-85647893D02*
X146695884Y-85647893D01*
X145695884Y-85647893D02*
X146195884Y-85647893D01*
X145195884Y-85647893D02*
X145395884Y-85647893D01*
X145395884Y-85647893D02*
G75*
G03X145695884Y-85647893I150000J150000D01*
G01*
X146195884Y-85647893D02*
G75*
G03X146495884Y-85647893I150000J150000D01*
G01*
X146495884Y-87247893D02*
G75*
G03X146195884Y-87247893I-150000J-150000D01*
G01*
X145695884Y-87247893D02*
G75*
G03X145395884Y-87247893I-150000J-150000D01*
G01*
X145195884Y-87247893D02*
X145195884Y-85647893D01*
X146695884Y-85647893D02*
X146695884Y-87247893D01*
X113626957Y-93732631D02*
X113826957Y-93732631D01*
X113176957Y-96282631D02*
X112976957Y-96282631D01*
X113976957Y-96282631D02*
X113476957Y-96282631D01*
X114476957Y-96282631D02*
X114276957Y-96282631D01*
X114276957Y-94682631D02*
X114476957Y-94682631D01*
X113476957Y-94682631D02*
X113976957Y-94682631D01*
X112976957Y-94682631D02*
X113176957Y-94682631D01*
X113176957Y-94682631D02*
G75*
G03X113476957Y-94682631I150000J150000D01*
G01*
X113976957Y-94682631D02*
G75*
G03X114276957Y-94682631I150000J150000D01*
G01*
X114276957Y-96282631D02*
G75*
G03X113976957Y-96282631I-150000J-150000D01*
G01*
X113476957Y-96282631D02*
G75*
G03X113176957Y-96282631I-150000J-150000D01*
G01*
X112976957Y-96282631D02*
X112976957Y-94682631D01*
X114476957Y-94682631D02*
X114476957Y-96282631D01*
X119258133Y-93732631D02*
X119458133Y-93732631D01*
X118808133Y-96282631D02*
X118608133Y-96282631D01*
X119608133Y-96282631D02*
X119108133Y-96282631D01*
X120108133Y-96282631D02*
X119908133Y-96282631D01*
X119908133Y-94682631D02*
X120108133Y-94682631D01*
X119108133Y-94682631D02*
X119608133Y-94682631D01*
X118608133Y-94682631D02*
X118808133Y-94682631D01*
X118808133Y-94682631D02*
G75*
G03X119108133Y-94682631I150000J150000D01*
G01*
X119608133Y-94682631D02*
G75*
G03X119908133Y-94682631I150000J150000D01*
G01*
X119908133Y-96282631D02*
G75*
G03X119608133Y-96282631I-150000J-150000D01*
G01*
X119108133Y-96282631D02*
G75*
G03X118808133Y-96282631I-150000J-150000D01*
G01*
X118608133Y-96282631D02*
X118608133Y-94682631D01*
X120108133Y-94682631D02*
X120108133Y-96282631D01*
X124830810Y-93732631D02*
X125030810Y-93732631D01*
X124380810Y-96282631D02*
X124180810Y-96282631D01*
X125180810Y-96282631D02*
X124680810Y-96282631D01*
X125680810Y-96282631D02*
X125480810Y-96282631D01*
X125480810Y-94682631D02*
X125680810Y-94682631D01*
X124680810Y-94682631D02*
X125180810Y-94682631D01*
X124180810Y-94682631D02*
X124380810Y-94682631D01*
X124380810Y-94682631D02*
G75*
G03X124680810Y-94682631I150000J150000D01*
G01*
X125180810Y-94682631D02*
G75*
G03X125480810Y-94682631I150000J150000D01*
G01*
X125480810Y-96282631D02*
G75*
G03X125180810Y-96282631I-150000J-150000D01*
G01*
X124680810Y-96282631D02*
G75*
G03X124380810Y-96282631I-150000J-150000D01*
G01*
X124180810Y-96282631D02*
X124180810Y-94682631D01*
X125680810Y-94682631D02*
X125680810Y-96282631D01*
X130377094Y-93732631D02*
X130577094Y-93732631D01*
X129927094Y-96282631D02*
X129727094Y-96282631D01*
X130727094Y-96282631D02*
X130227094Y-96282631D01*
X131227094Y-96282631D02*
X131027094Y-96282631D01*
X131027094Y-94682631D02*
X131227094Y-94682631D01*
X130227094Y-94682631D02*
X130727094Y-94682631D01*
X129727094Y-94682631D02*
X129927094Y-94682631D01*
X129927094Y-94682631D02*
G75*
G03X130227094Y-94682631I150000J150000D01*
G01*
X130727094Y-94682631D02*
G75*
G03X131027094Y-94682631I150000J150000D01*
G01*
X131027094Y-96282631D02*
G75*
G03X130727094Y-96282631I-150000J-150000D01*
G01*
X130227094Y-96282631D02*
G75*
G03X129927094Y-96282631I-150000J-150000D01*
G01*
X129727094Y-96282631D02*
X129727094Y-94682631D01*
X131227094Y-94682631D02*
X131227094Y-96282631D01*
X135909183Y-93732631D02*
X136109183Y-93732631D01*
X135459183Y-96282631D02*
X135259183Y-96282631D01*
X136259183Y-96282631D02*
X135759183Y-96282631D01*
X136759183Y-96282631D02*
X136559183Y-96282631D01*
X136559183Y-94682631D02*
X136759183Y-94682631D01*
X135759183Y-94682631D02*
X136259183Y-94682631D01*
X135259183Y-94682631D02*
X135459183Y-94682631D01*
X135459183Y-94682631D02*
G75*
G03X135759183Y-94682631I150000J150000D01*
G01*
X136259183Y-94682631D02*
G75*
G03X136559183Y-94682631I150000J150000D01*
G01*
X136559183Y-96282631D02*
G75*
G03X136259183Y-96282631I-150000J-150000D01*
G01*
X135759183Y-96282631D02*
G75*
G03X135459183Y-96282631I-150000J-150000D01*
G01*
X135259183Y-96282631D02*
X135259183Y-94682631D01*
X136759183Y-94682631D02*
X136759183Y-96282631D01*
X141432749Y-93732631D02*
X141632749Y-93732631D01*
X140982749Y-96282631D02*
X140782749Y-96282631D01*
X141782749Y-96282631D02*
X141282749Y-96282631D01*
X142282749Y-96282631D02*
X142082749Y-96282631D01*
X142082749Y-94682631D02*
X142282749Y-94682631D01*
X141282749Y-94682631D02*
X141782749Y-94682631D01*
X140782749Y-94682631D02*
X140982749Y-94682631D01*
X140982749Y-94682631D02*
G75*
G03X141282749Y-94682631I150000J150000D01*
G01*
X141782749Y-94682631D02*
G75*
G03X142082749Y-94682631I150000J150000D01*
G01*
X142082749Y-96282631D02*
G75*
G03X141782749Y-96282631I-150000J-150000D01*
G01*
X141282749Y-96282631D02*
G75*
G03X140982749Y-96282631I-150000J-150000D01*
G01*
X140782749Y-96282631D02*
X140782749Y-94682631D01*
X142282749Y-94682631D02*
X142282749Y-96282631D01*
X146950794Y-93732631D02*
X147150794Y-93732631D01*
X146500794Y-96282631D02*
X146300794Y-96282631D01*
X147300794Y-96282631D02*
X146800794Y-96282631D01*
X147800794Y-96282631D02*
X147600794Y-96282631D01*
X147600794Y-94682631D02*
X147800794Y-94682631D01*
X146800794Y-94682631D02*
X147300794Y-94682631D01*
X146300794Y-94682631D02*
X146500794Y-94682631D01*
X146500794Y-94682631D02*
G75*
G03X146800794Y-94682631I150000J150000D01*
G01*
X147300794Y-94682631D02*
G75*
G03X147600794Y-94682631I150000J150000D01*
G01*
X147600794Y-96282631D02*
G75*
G03X147300794Y-96282631I-150000J-150000D01*
G01*
X146800794Y-96282631D02*
G75*
G03X146500794Y-96282631I-150000J-150000D01*
G01*
X146300794Y-96282631D02*
X146300794Y-94682631D01*
X147800794Y-94682631D02*
X147800794Y-96282631D01*
X113626957Y-102767369D02*
X113826957Y-102767369D01*
X113176957Y-105317369D02*
X112976957Y-105317369D01*
X113976957Y-105317369D02*
X113476957Y-105317369D01*
X114476957Y-105317369D02*
X114276957Y-105317369D01*
X114276957Y-103717369D02*
X114476957Y-103717369D01*
X113476957Y-103717369D02*
X113976957Y-103717369D01*
X112976957Y-103717369D02*
X113176957Y-103717369D01*
X113176957Y-103717369D02*
G75*
G03X113476957Y-103717369I150000J150000D01*
G01*
X113976957Y-103717369D02*
G75*
G03X114276957Y-103717369I150000J150000D01*
G01*
X114276957Y-105317369D02*
G75*
G03X113976957Y-105317369I-150000J-150000D01*
G01*
X113476957Y-105317369D02*
G75*
G03X113176957Y-105317369I-150000J-150000D01*
G01*
X112976957Y-105317369D02*
X112976957Y-103717369D01*
X114476957Y-103717369D02*
X114476957Y-105317369D01*
X119258133Y-102767369D02*
X119458133Y-102767369D01*
X118808133Y-105317369D02*
X118608133Y-105317369D01*
X119608133Y-105317369D02*
X119108133Y-105317369D01*
X120108133Y-105317369D02*
X119908133Y-105317369D01*
X119908133Y-103717369D02*
X120108133Y-103717369D01*
X119108133Y-103717369D02*
X119608133Y-103717369D01*
X118608133Y-103717369D02*
X118808133Y-103717369D01*
X118808133Y-103717369D02*
G75*
G03X119108133Y-103717369I150000J150000D01*
G01*
X119608133Y-103717369D02*
G75*
G03X119908133Y-103717369I150000J150000D01*
G01*
X119908133Y-105317369D02*
G75*
G03X119608133Y-105317369I-150000J-150000D01*
G01*
X119108133Y-105317369D02*
G75*
G03X118808133Y-105317369I-150000J-150000D01*
G01*
X118608133Y-105317369D02*
X118608133Y-103717369D01*
X120108133Y-103717369D02*
X120108133Y-105317369D01*
X124830810Y-102767369D02*
X125030810Y-102767369D01*
X124380810Y-105317369D02*
X124180810Y-105317369D01*
X125180810Y-105317369D02*
X124680810Y-105317369D01*
X125680810Y-105317369D02*
X125480810Y-105317369D01*
X125480810Y-103717369D02*
X125680810Y-103717369D01*
X124680810Y-103717369D02*
X125180810Y-103717369D01*
X124180810Y-103717369D02*
X124380810Y-103717369D01*
X124380810Y-103717369D02*
G75*
G03X124680810Y-103717369I150000J150000D01*
G01*
X125180810Y-103717369D02*
G75*
G03X125480810Y-103717369I150000J150000D01*
G01*
X125480810Y-105317369D02*
G75*
G03X125180810Y-105317369I-150000J-150000D01*
G01*
X124680810Y-105317369D02*
G75*
G03X124380810Y-105317369I-150000J-150000D01*
G01*
X124180810Y-105317369D02*
X124180810Y-103717369D01*
X125680810Y-103717369D02*
X125680810Y-105317369D01*
X130377094Y-102767369D02*
X130577094Y-102767369D01*
X129927094Y-105317369D02*
X129727094Y-105317369D01*
X130727094Y-105317369D02*
X130227094Y-105317369D01*
X131227094Y-105317369D02*
X131027094Y-105317369D01*
X131027094Y-103717369D02*
X131227094Y-103717369D01*
X130227094Y-103717369D02*
X130727094Y-103717369D01*
X129727094Y-103717369D02*
X129927094Y-103717369D01*
X129927094Y-103717369D02*
G75*
G03X130227094Y-103717369I150000J150000D01*
G01*
X130727094Y-103717369D02*
G75*
G03X131027094Y-103717369I150000J150000D01*
G01*
X131027094Y-105317369D02*
G75*
G03X130727094Y-105317369I-150000J-150000D01*
G01*
X130227094Y-105317369D02*
G75*
G03X129927094Y-105317369I-150000J-150000D01*
G01*
X129727094Y-105317369D02*
X129727094Y-103717369D01*
X131227094Y-103717369D02*
X131227094Y-105317369D01*
X135909183Y-102767369D02*
X136109183Y-102767369D01*
X135459183Y-105317369D02*
X135259183Y-105317369D01*
X136259183Y-105317369D02*
X135759183Y-105317369D01*
X136759183Y-105317369D02*
X136559183Y-105317369D01*
X136559183Y-103717369D02*
X136759183Y-103717369D01*
X135759183Y-103717369D02*
X136259183Y-103717369D01*
X135259183Y-103717369D02*
X135459183Y-103717369D01*
X135459183Y-103717369D02*
G75*
G03X135759183Y-103717369I150000J150000D01*
G01*
X136259183Y-103717369D02*
G75*
G03X136559183Y-103717369I150000J150000D01*
G01*
X136559183Y-105317369D02*
G75*
G03X136259183Y-105317369I-150000J-150000D01*
G01*
X135759183Y-105317369D02*
G75*
G03X135459183Y-105317369I-150000J-150000D01*
G01*
X135259183Y-105317369D02*
X135259183Y-103717369D01*
X136759183Y-103717369D02*
X136759183Y-105317369D01*
X141432749Y-102767369D02*
X141632749Y-102767369D01*
X140982749Y-105317369D02*
X140782749Y-105317369D01*
X141782749Y-105317369D02*
X141282749Y-105317369D01*
X142282749Y-105317369D02*
X142082749Y-105317369D01*
X142082749Y-103717369D02*
X142282749Y-103717369D01*
X141282749Y-103717369D02*
X141782749Y-103717369D01*
X140782749Y-103717369D02*
X140982749Y-103717369D01*
X140982749Y-103717369D02*
G75*
G03X141282749Y-103717369I150000J150000D01*
G01*
X141782749Y-103717369D02*
G75*
G03X142082749Y-103717369I150000J150000D01*
G01*
X142082749Y-105317369D02*
G75*
G03X141782749Y-105317369I-150000J-150000D01*
G01*
X141282749Y-105317369D02*
G75*
G03X140982749Y-105317369I-150000J-150000D01*
G01*
X140782749Y-105317369D02*
X140782749Y-103717369D01*
X142282749Y-103717369D02*
X142282749Y-105317369D01*
X146950794Y-102767369D02*
X147150794Y-102767369D01*
X146500794Y-105317369D02*
X146300794Y-105317369D01*
X147300794Y-105317369D02*
X146800794Y-105317369D01*
X147800794Y-105317369D02*
X147600794Y-105317369D01*
X147600794Y-103717369D02*
X147800794Y-103717369D01*
X146800794Y-103717369D02*
X147300794Y-103717369D01*
X146300794Y-103717369D02*
X146500794Y-103717369D01*
X146500794Y-103717369D02*
G75*
G03X146800794Y-103717369I150000J150000D01*
G01*
X147300794Y-103717369D02*
G75*
G03X147600794Y-103717369I150000J150000D01*
G01*
X147600794Y-105317369D02*
G75*
G03X147300794Y-105317369I-150000J-150000D01*
G01*
X146800794Y-105317369D02*
G75*
G03X146500794Y-105317369I-150000J-150000D01*
G01*
X146300794Y-105317369D02*
X146300794Y-103717369D01*
X147800794Y-103717369D02*
X147800794Y-105317369D01*
X109156153Y-111802107D02*
X109356153Y-111802107D01*
X108706153Y-114352107D02*
X108506153Y-114352107D01*
X109506153Y-114352107D02*
X109006153Y-114352107D01*
X110006153Y-114352107D02*
X109806153Y-114352107D01*
X109806153Y-112752107D02*
X110006153Y-112752107D01*
X109006153Y-112752107D02*
X109506153Y-112752107D01*
X108506153Y-112752107D02*
X108706153Y-112752107D01*
X108706153Y-112752107D02*
G75*
G03X109006153Y-112752107I150000J150000D01*
G01*
X109506153Y-112752107D02*
G75*
G03X109806153Y-112752107I150000J150000D01*
G01*
X109806153Y-114352107D02*
G75*
G03X109506153Y-114352107I-150000J-150000D01*
G01*
X109006153Y-114352107D02*
G75*
G03X108706153Y-114352107I-150000J-150000D01*
G01*
X108506153Y-114352107D02*
X108506153Y-112752107D01*
X110006153Y-112752107D02*
X110006153Y-114352107D01*
X116391948Y-111802107D02*
X116591948Y-111802107D01*
X115941948Y-114352107D02*
X115741948Y-114352107D01*
X116741948Y-114352107D02*
X116241948Y-114352107D01*
X117241948Y-114352107D02*
X117041948Y-114352107D01*
X117041948Y-112752107D02*
X117241948Y-112752107D01*
X116241948Y-112752107D02*
X116741948Y-112752107D01*
X115741948Y-112752107D02*
X115941948Y-112752107D01*
X115941948Y-112752107D02*
G75*
G03X116241948Y-112752107I150000J150000D01*
G01*
X116741948Y-112752107D02*
G75*
G03X117041948Y-112752107I150000J150000D01*
G01*
X117041948Y-114352107D02*
G75*
G03X116741948Y-114352107I-150000J-150000D01*
G01*
X116241948Y-114352107D02*
G75*
G03X115941948Y-114352107I-150000J-150000D01*
G01*
X115741948Y-114352107D02*
X115741948Y-112752107D01*
X117241948Y-112752107D02*
X117241948Y-114352107D01*
X122677013Y-111802107D02*
X122877013Y-111802107D01*
X122227013Y-114352107D02*
X122027013Y-114352107D01*
X123027013Y-114352107D02*
X122527013Y-114352107D01*
X123527013Y-114352107D02*
X123327013Y-114352107D01*
X123327013Y-112752107D02*
X123527013Y-112752107D01*
X122527013Y-112752107D02*
X123027013Y-112752107D01*
X122027013Y-112752107D02*
X122227013Y-112752107D01*
X122227013Y-112752107D02*
G75*
G03X122527013Y-112752107I150000J150000D01*
G01*
X123027013Y-112752107D02*
G75*
G03X123327013Y-112752107I150000J150000D01*
G01*
X123327013Y-114352107D02*
G75*
G03X123027013Y-114352107I-150000J-150000D01*
G01*
X122527013Y-114352107D02*
G75*
G03X122227013Y-114352107I-150000J-150000D01*
G01*
X122027013Y-114352107D02*
X122027013Y-112752107D01*
X123527013Y-112752107D02*
X123527013Y-114352107D01*
X128641960Y-111802107D02*
X128841960Y-111802107D01*
X128191960Y-114352107D02*
X127991960Y-114352107D01*
X128991960Y-114352107D02*
X128491960Y-114352107D01*
X129491960Y-114352107D02*
X129291960Y-114352107D01*
X129291960Y-112752107D02*
X129491960Y-112752107D01*
X128491960Y-112752107D02*
X128991960Y-112752107D01*
X127991960Y-112752107D02*
X128191960Y-112752107D01*
X128191960Y-112752107D02*
G75*
G03X128491960Y-112752107I150000J150000D01*
G01*
X128991960Y-112752107D02*
G75*
G03X129291960Y-112752107I150000J150000D01*
G01*
X129291960Y-114352107D02*
G75*
G03X128991960Y-114352107I-150000J-150000D01*
G01*
X128491960Y-114352107D02*
G75*
G03X128191960Y-114352107I-150000J-150000D01*
G01*
X127991960Y-114352107D02*
X127991960Y-112752107D01*
X129491960Y-112752107D02*
X129491960Y-114352107D01*
X134452978Y-111802107D02*
X134652978Y-111802107D01*
X134002978Y-114352107D02*
X133802978Y-114352107D01*
X134802978Y-114352107D02*
X134302978Y-114352107D01*
X135302978Y-114352107D02*
X135102978Y-114352107D01*
X135102978Y-112752107D02*
X135302978Y-112752107D01*
X134302978Y-112752107D02*
X134802978Y-112752107D01*
X133802978Y-112752107D02*
X134002978Y-112752107D01*
X134002978Y-112752107D02*
G75*
G03X134302978Y-112752107I150000J150000D01*
G01*
X134802978Y-112752107D02*
G75*
G03X135102978Y-112752107I150000J150000D01*
G01*
X135102978Y-114352107D02*
G75*
G03X134802978Y-114352107I-150000J-150000D01*
G01*
X134302978Y-114352107D02*
G75*
G03X134002978Y-114352107I-150000J-150000D01*
G01*
X133802978Y-114352107D02*
X133802978Y-112752107D01*
X135302978Y-112752107D02*
X135302978Y-114352107D01*
X140176746Y-111802107D02*
X140376746Y-111802107D01*
X139726746Y-114352107D02*
X139526746Y-114352107D01*
X140526746Y-114352107D02*
X140026746Y-114352107D01*
X141026746Y-114352107D02*
X140826746Y-114352107D01*
X140826746Y-112752107D02*
X141026746Y-112752107D01*
X140026746Y-112752107D02*
X140526746Y-112752107D01*
X139526746Y-112752107D02*
X139726746Y-112752107D01*
X139726746Y-112752107D02*
G75*
G03X140026746Y-112752107I150000J150000D01*
G01*
X140526746Y-112752107D02*
G75*
G03X140826746Y-112752107I150000J150000D01*
G01*
X140826746Y-114352107D02*
G75*
G03X140526746Y-114352107I-150000J-150000D01*
G01*
X140026746Y-114352107D02*
G75*
G03X139726746Y-114352107I-150000J-150000D01*
G01*
X139526746Y-114352107D02*
X139526746Y-112752107D01*
X141026746Y-112752107D02*
X141026746Y-114352107D01*
X145845884Y-111802107D02*
X146045884Y-111802107D01*
X145395884Y-114352107D02*
X145195884Y-114352107D01*
X146195884Y-114352107D02*
X145695884Y-114352107D01*
X146695884Y-114352107D02*
X146495884Y-114352107D01*
X146495884Y-112752107D02*
X146695884Y-112752107D01*
X145695884Y-112752107D02*
X146195884Y-112752107D01*
X145195884Y-112752107D02*
X145395884Y-112752107D01*
X145395884Y-112752107D02*
G75*
G03X145695884Y-112752107I150000J150000D01*
G01*
X146195884Y-112752107D02*
G75*
G03X146495884Y-112752107I150000J150000D01*
G01*
X146495884Y-114352107D02*
G75*
G03X146195884Y-114352107I-150000J-150000D01*
G01*
X145695884Y-114352107D02*
G75*
G03X145395884Y-114352107I-150000J-150000D01*
G01*
X145195884Y-114352107D02*
X145195884Y-112752107D01*
X146695884Y-112752107D02*
X146695884Y-114352107D01*
X108053428Y-120836845D02*
X108253428Y-120836845D01*
X107603428Y-123386845D02*
X107403428Y-123386845D01*
X108403428Y-123386845D02*
X107903428Y-123386845D01*
X108903428Y-123386845D02*
X108703428Y-123386845D01*
X108703428Y-121786845D02*
X108903428Y-121786845D01*
X107903428Y-121786845D02*
X108403428Y-121786845D01*
X107403428Y-121786845D02*
X107603428Y-121786845D01*
X107603428Y-121786845D02*
G75*
G03X107903428Y-121786845I150000J150000D01*
G01*
X108403428Y-121786845D02*
G75*
G03X108703428Y-121786845I150000J150000D01*
G01*
X108703428Y-123386845D02*
G75*
G03X108403428Y-123386845I-150000J-150000D01*
G01*
X107903428Y-123386845D02*
G75*
G03X107603428Y-123386845I-150000J-150000D01*
G01*
X107403428Y-123386845D02*
X107403428Y-121786845D01*
X108903428Y-121786845D02*
X108903428Y-123386845D01*
X117599897Y-120836845D02*
X117799897Y-120836845D01*
X117149897Y-123386845D02*
X116949897Y-123386845D01*
X117949897Y-123386845D02*
X117449897Y-123386845D01*
X118449897Y-123386845D02*
X118249897Y-123386845D01*
X118249897Y-121786845D02*
X118449897Y-121786845D01*
X117449897Y-121786845D02*
X117949897Y-121786845D01*
X116949897Y-121786845D02*
X117149897Y-121786845D01*
X117149897Y-121786845D02*
G75*
G03X117449897Y-121786845I150000J150000D01*
G01*
X117949897Y-121786845D02*
G75*
G03X118249897Y-121786845I150000J150000D01*
G01*
X118249897Y-123386845D02*
G75*
G03X117949897Y-123386845I-150000J-150000D01*
G01*
X117449897Y-123386845D02*
G75*
G03X117149897Y-123386845I-150000J-150000D01*
G01*
X116949897Y-123386845D02*
X116949897Y-121786845D01*
X118449897Y-121786845D02*
X118449897Y-123386845D01*
X124811731Y-120836845D02*
X125011731Y-120836845D01*
X124361731Y-123386845D02*
X124161731Y-123386845D01*
X125161731Y-123386845D02*
X124661731Y-123386845D01*
X125661731Y-123386845D02*
X125461731Y-123386845D01*
X125461731Y-121786845D02*
X125661731Y-121786845D01*
X124661731Y-121786845D02*
X125161731Y-121786845D01*
X124161731Y-121786845D02*
X124361731Y-121786845D01*
X124361731Y-121786845D02*
G75*
G03X124661731Y-121786845I150000J150000D01*
G01*
X125161731Y-121786845D02*
G75*
G03X125461731Y-121786845I150000J150000D01*
G01*
X125461731Y-123386845D02*
G75*
G03X125161731Y-123386845I-150000J-150000D01*
G01*
X124661731Y-123386845D02*
G75*
G03X124361731Y-123386845I-150000J-150000D01*
G01*
X124161731Y-123386845D02*
X124161731Y-121786845D01*
X125661731Y-121786845D02*
X125661731Y-123386845D01*
X131338866Y-120836845D02*
X131538866Y-120836845D01*
X130888866Y-123386845D02*
X130688866Y-123386845D01*
X131688866Y-123386845D02*
X131188866Y-123386845D01*
X132188866Y-123386845D02*
X131988866Y-123386845D01*
X131988866Y-121786845D02*
X132188866Y-121786845D01*
X131188866Y-121786845D02*
X131688866Y-121786845D01*
X130688866Y-121786845D02*
X130888866Y-121786845D01*
X130888866Y-121786845D02*
G75*
G03X131188866Y-121786845I150000J150000D01*
G01*
X131688866Y-121786845D02*
G75*
G03X131988866Y-121786845I150000J150000D01*
G01*
X131988866Y-123386845D02*
G75*
G03X131688866Y-123386845I-150000J-150000D01*
G01*
X131188866Y-123386845D02*
G75*
G03X130888866Y-123386845I-150000J-150000D01*
G01*
X130688866Y-123386845D02*
X130688866Y-121786845D01*
X132188866Y-121786845D02*
X132188866Y-123386845D01*
X137539212Y-120836845D02*
X137739212Y-120836845D01*
X137089212Y-123386845D02*
X136889212Y-123386845D01*
X137889212Y-123386845D02*
X137389212Y-123386845D01*
X138389212Y-123386845D02*
X138189212Y-123386845D01*
X138189212Y-121786845D02*
X138389212Y-121786845D01*
X137389212Y-121786845D02*
X137889212Y-121786845D01*
X136889212Y-121786845D02*
X137089212Y-121786845D01*
X137089212Y-121786845D02*
G75*
G03X137389212Y-121786845I150000J150000D01*
G01*
X137889212Y-121786845D02*
G75*
G03X138189212Y-121786845I150000J150000D01*
G01*
X138189212Y-123386845D02*
G75*
G03X137889212Y-123386845I-150000J-150000D01*
G01*
X137389212Y-123386845D02*
G75*
G03X137089212Y-123386845I-150000J-150000D01*
G01*
X136889212Y-123386845D02*
X136889212Y-121786845D01*
X138389212Y-121786845D02*
X138389212Y-123386845D01*
X143552242Y-120836845D02*
X143752242Y-120836845D01*
X143102242Y-123386845D02*
X142902242Y-123386845D01*
X143902242Y-123386845D02*
X143402242Y-123386845D01*
X144402242Y-123386845D02*
X144202242Y-123386845D01*
X144202242Y-121786845D02*
X144402242Y-121786845D01*
X143402242Y-121786845D02*
X143902242Y-121786845D01*
X142902242Y-121786845D02*
X143102242Y-121786845D01*
X143102242Y-121786845D02*
G75*
G03X143402242Y-121786845I150000J150000D01*
G01*
X143902242Y-121786845D02*
G75*
G03X144202242Y-121786845I150000J150000D01*
G01*
X144202242Y-123386845D02*
G75*
G03X143902242Y-123386845I-150000J-150000D01*
G01*
X143402242Y-123386845D02*
G75*
G03X143102242Y-123386845I-150000J-150000D01*
G01*
X142902242Y-123386845D02*
X142902242Y-121786845D01*
X144402242Y-121786845D02*
X144402242Y-123386845D01*
X102142190Y-129871583D02*
X102342190Y-129871583D01*
X101692190Y-132421583D02*
X101492190Y-132421583D01*
X102492190Y-132421583D02*
X101992190Y-132421583D01*
X102992190Y-132421583D02*
X102792190Y-132421583D01*
X102792190Y-130821583D02*
X102992190Y-130821583D01*
X101992190Y-130821583D02*
X102492190Y-130821583D01*
X101492190Y-130821583D02*
X101692190Y-130821583D01*
X101692190Y-130821583D02*
G75*
G03X101992190Y-130821583I150000J150000D01*
G01*
X102492190Y-130821583D02*
G75*
G03X102792190Y-130821583I150000J150000D01*
G01*
X102792190Y-132421583D02*
G75*
G03X102492190Y-132421583I-150000J-150000D01*
G01*
X101992190Y-132421583D02*
G75*
G03X101692190Y-132421583I-150000J-150000D01*
G01*
X101492190Y-132421583D02*
X101492190Y-130821583D01*
X102992190Y-130821583D02*
X102992190Y-132421583D01*
X117573013Y-129871583D02*
X117773013Y-129871583D01*
X117123013Y-132421583D02*
X116923013Y-132421583D01*
X117923013Y-132421583D02*
X117423013Y-132421583D01*
X118423013Y-132421583D02*
X118223013Y-132421583D01*
X118223013Y-130821583D02*
X118423013Y-130821583D01*
X117423013Y-130821583D02*
X117923013Y-130821583D01*
X116923013Y-130821583D02*
X117123013Y-130821583D01*
X117123013Y-130821583D02*
G75*
G03X117423013Y-130821583I150000J150000D01*
G01*
X117923013Y-130821583D02*
G75*
G03X118223013Y-130821583I150000J150000D01*
G01*
X118223013Y-132421583D02*
G75*
G03X117923013Y-132421583I-150000J-150000D01*
G01*
X117423013Y-132421583D02*
G75*
G03X117123013Y-132421583I-150000J-150000D01*
G01*
X116923013Y-132421583D02*
X116923013Y-130821583D01*
X118423013Y-130821583D02*
X118423013Y-132421583D01*
X125979558Y-129871583D02*
X126179558Y-129871583D01*
X125529558Y-132421583D02*
X125329558Y-132421583D01*
X126329558Y-132421583D02*
X125829558Y-132421583D01*
X126829558Y-132421583D02*
X126629558Y-132421583D01*
X126629558Y-130821583D02*
X126829558Y-130821583D01*
X125829558Y-130821583D02*
X126329558Y-130821583D01*
X125329558Y-130821583D02*
X125529558Y-130821583D01*
X125529558Y-130821583D02*
G75*
G03X125829558Y-130821583I150000J150000D01*
G01*
X126329558Y-130821583D02*
G75*
G03X126629558Y-130821583I150000J150000D01*
G01*
X126629558Y-132421583D02*
G75*
G03X126329558Y-132421583I-150000J-150000D01*
G01*
X125829558Y-132421583D02*
G75*
G03X125529558Y-132421583I-150000J-150000D01*
G01*
X125329558Y-132421583D02*
X125329558Y-130821583D01*
X126829558Y-130821583D02*
X126829558Y-132421583D01*
X133193413Y-129871583D02*
X133393413Y-129871583D01*
X132743413Y-132421583D02*
X132543413Y-132421583D01*
X133543413Y-132421583D02*
X133043413Y-132421583D01*
X134043413Y-132421583D02*
X133843413Y-132421583D01*
X133843413Y-130821583D02*
X134043413Y-130821583D01*
X133043413Y-130821583D02*
X133543413Y-130821583D01*
X132543413Y-130821583D02*
X132743413Y-130821583D01*
X132743413Y-130821583D02*
G75*
G03X133043413Y-130821583I150000J150000D01*
G01*
X133543413Y-130821583D02*
G75*
G03X133843413Y-130821583I150000J150000D01*
G01*
X133843413Y-132421583D02*
G75*
G03X133543413Y-132421583I-150000J-150000D01*
G01*
X133043413Y-132421583D02*
G75*
G03X132743413Y-132421583I-150000J-150000D01*
G01*
X132543413Y-132421583D02*
X132543413Y-130821583D01*
X134043413Y-130821583D02*
X134043413Y-132421583D01*
D14*
X76930000Y-129880000D02*
X79470000Y-129880000D01*
X79470000Y-132420000D02*
X76930000Y-132420000D01*
X76930000Y-132420000D02*
X76930000Y-117180000D01*
X76930000Y-117180000D02*
X79470000Y-117180000D01*
X79470000Y-117180000D02*
X79470000Y-132420000D01*
D15*
X81000440Y-65500740D02*
X81000440Y-71200500D01*
X81000440Y-71200500D02*
X89199560Y-71200500D01*
X89199560Y-71200500D02*
X89199560Y-65500740D01*
X89199560Y-65500740D02*
X81000440Y-65500740D01*
D13*
X91165000Y-121065000D02*
X92435000Y-121065000D01*
X91165000Y-122335000D02*
X92409600Y-122335000D01*
X91165000Y-122716000D02*
X91165000Y-120684000D01*
X91165000Y-120684000D02*
X92435000Y-120684000D01*
X92435000Y-120684000D02*
X92435000Y-122716000D01*
X92435000Y-122716000D02*
X91165000Y-122716000D01*
X58064301Y-119907760D02*
X57888486Y-120390808D01*
X57896217Y-120457979D01*
X57914290Y-120496735D01*
X57960777Y-120545834D01*
X58074434Y-120587202D01*
X58141605Y-120579471D01*
X58180362Y-120561399D01*
X58229461Y-120514912D01*
X58405276Y-120031865D01*
X58973565Y-120238706D02*
X58689420Y-120135285D01*
X58557585Y-120409088D01*
X58596342Y-120391016D01*
X58663513Y-120383286D01*
X58805585Y-120434996D01*
X58852072Y-120484094D01*
X58870145Y-120522851D01*
X58877876Y-120590022D01*
X58826166Y-120732095D01*
X58777066Y-120778582D01*
X58738310Y-120796654D01*
X58671139Y-120804384D01*
X58529067Y-120752674D01*
X58482579Y-120703576D01*
X58464507Y-120664819D01*
X77787262Y-68805834D02*
X77787262Y-69108215D01*
X77152262Y-69108215D01*
X77787262Y-68261547D02*
X77787262Y-68624405D01*
X77787262Y-68442976D02*
X77152262Y-68442976D01*
X77242976Y-68503452D01*
X77303452Y-68563928D01*
X77333690Y-68624405D01*
X88326786Y-123105833D02*
X88357024Y-123136071D01*
X88387262Y-123226786D01*
X88387262Y-123287262D01*
X88357024Y-123377976D01*
X88296548Y-123438452D01*
X88236071Y-123468691D01*
X88115119Y-123498929D01*
X88024405Y-123498929D01*
X87903452Y-123468691D01*
X87842976Y-123438452D01*
X87782500Y-123377976D01*
X87752262Y-123287262D01*
X87752262Y-123226786D01*
X87782500Y-123136071D01*
X87812738Y-123105833D01*
X87752262Y-122531310D02*
X87752262Y-122833691D01*
X88054643Y-122863929D01*
X88024405Y-122833691D01*
X87994167Y-122773214D01*
X87994167Y-122622024D01*
X88024405Y-122561548D01*
X88054643Y-122531310D01*
X88115119Y-122501071D01*
X88266310Y-122501071D01*
X88326786Y-122531310D01*
X88357024Y-122561548D01*
X88387262Y-122622024D01*
X88387262Y-122773214D01*
X88357024Y-122833691D01*
X88326786Y-122863929D01*
X88287262Y-121410595D02*
X88287262Y-121773453D01*
X88287262Y-121592024D02*
X87652262Y-121592024D01*
X87742976Y-121652500D01*
X87803452Y-121712976D01*
X87833690Y-121773453D01*
X87652262Y-121017500D02*
X87652262Y-120957024D01*
X87682500Y-120896548D01*
X87712738Y-120866310D01*
X87773214Y-120836072D01*
X87894167Y-120805833D01*
X88045357Y-120805833D01*
X88166310Y-120836072D01*
X88226786Y-120866310D01*
X88257024Y-120896548D01*
X88287262Y-120957024D01*
X88287262Y-121017500D01*
X88257024Y-121077976D01*
X88226786Y-121108214D01*
X88166310Y-121138453D01*
X88045357Y-121168691D01*
X87894167Y-121168691D01*
X87773214Y-121138453D01*
X87712738Y-121108214D01*
X87682500Y-121077976D01*
X87652262Y-121017500D01*
X87652262Y-120412738D02*
X87652262Y-120352262D01*
X87682500Y-120291786D01*
X87712738Y-120261548D01*
X87773214Y-120231310D01*
X87894167Y-120201071D01*
X88045357Y-120201071D01*
X88166310Y-120231310D01*
X88226786Y-120261548D01*
X88257024Y-120291786D01*
X88287262Y-120352262D01*
X88287262Y-120412738D01*
X88257024Y-120473214D01*
X88226786Y-120503452D01*
X88166310Y-120533691D01*
X88045357Y-120563929D01*
X87894167Y-120563929D01*
X87773214Y-120533691D01*
X87712738Y-120503452D01*
X87682500Y-120473214D01*
X87652262Y-120412738D01*
X87863929Y-119928929D02*
X88287262Y-119928929D01*
X87924405Y-119928929D02*
X87894167Y-119898690D01*
X87863929Y-119838214D01*
X87863929Y-119747500D01*
X87894167Y-119687024D01*
X87954643Y-119656786D01*
X88287262Y-119656786D01*
X81485527Y-100135197D02*
X81485527Y-100177960D01*
X81442763Y-100263487D01*
X81400000Y-100306250D01*
X81314474Y-100349013D01*
X81228948Y-100349013D01*
X81164802Y-100327631D01*
X81057895Y-100263487D01*
X80993750Y-100199342D01*
X80929605Y-100092434D01*
X80908224Y-100028289D01*
X80908224Y-99942763D01*
X80950987Y-99857237D01*
X80993750Y-99814474D01*
X81079277Y-99771710D01*
X81122040Y-99771710D01*
X81528290Y-99664803D02*
X81464145Y-99686184D01*
X81421381Y-99686185D01*
X81357236Y-99664803D01*
X81335855Y-99643421D01*
X81314473Y-99579277D01*
X81314474Y-99536513D01*
X81335856Y-99472369D01*
X81421381Y-99386843D01*
X81485526Y-99365461D01*
X81528289Y-99365461D01*
X81592434Y-99386842D01*
X81613816Y-99408223D01*
X81635197Y-99472369D01*
X81635197Y-99515132D01*
X81613816Y-99579277D01*
X81528290Y-99664803D01*
X81506908Y-99728947D01*
X81506907Y-99771711D01*
X81528289Y-99835856D01*
X81613816Y-99921382D01*
X81677960Y-99942764D01*
X81720724Y-99942763D01*
X81784868Y-99921381D01*
X81870394Y-99835856D01*
X81891776Y-99771711D01*
X81891776Y-99728948D01*
X81870395Y-99664803D01*
X81784868Y-99579276D01*
X81720723Y-99557895D01*
X81677960Y-99557895D01*
X81613816Y-99579277D01*
X79600658Y-98005591D02*
X79344079Y-98262171D01*
X79472369Y-98133881D02*
X79023356Y-97684868D01*
X79044737Y-97791776D01*
X79044737Y-97877302D01*
X79023355Y-97941447D01*
X79429606Y-97278619D02*
X79472369Y-97235856D01*
X79536513Y-97214474D01*
X79579276Y-97214474D01*
X79643421Y-97235856D01*
X79750330Y-97300000D01*
X79857237Y-97406907D01*
X79921381Y-97513816D01*
X79942763Y-97577961D01*
X79942763Y-97620724D01*
X79921381Y-97684868D01*
X79878619Y-97727631D01*
X79814474Y-97749013D01*
X79771711Y-97749013D01*
X79707566Y-97727632D01*
X79600658Y-97663487D01*
X79493750Y-97556579D01*
X79429605Y-97449671D01*
X79408224Y-97385526D01*
X79408224Y-97342763D01*
X79429606Y-97278619D01*
X79857237Y-96850987D02*
X79900000Y-96808224D01*
X79964144Y-96786843D01*
X80006907Y-96786843D01*
X80071052Y-96808224D01*
X80177961Y-96872369D01*
X80284868Y-96979276D01*
X80349013Y-97086185D01*
X80370394Y-97150330D01*
X80370394Y-97193093D01*
X80349013Y-97257237D01*
X80306250Y-97300000D01*
X80242105Y-97321381D01*
X80199342Y-97321381D01*
X80135197Y-97300001D01*
X80028289Y-97235856D01*
X79921381Y-97128948D01*
X79857236Y-97022040D01*
X79835856Y-96957895D01*
X79835856Y-96915132D01*
X79857237Y-96850987D01*
X80349013Y-96658554D02*
X80648354Y-96957895D01*
X80391776Y-96701317D02*
X80391777Y-96658553D01*
X80413158Y-96594409D01*
X80477302Y-96530264D01*
X80541447Y-96508883D01*
X80605591Y-96530264D01*
X80840789Y-96765461D01*
X75426786Y-122808214D02*
X75457024Y-122838452D01*
X75487262Y-122929167D01*
X75487262Y-122989643D01*
X75457024Y-123080357D01*
X75396548Y-123140833D01*
X75336071Y-123171072D01*
X75215119Y-123201310D01*
X75124405Y-123201310D01*
X75003452Y-123171072D01*
X74942976Y-123140833D01*
X74882500Y-123080357D01*
X74852262Y-122989643D01*
X74852262Y-122929167D01*
X74882500Y-122838452D01*
X74912738Y-122808214D01*
X75487262Y-122203452D02*
X75487262Y-122566310D01*
X75487262Y-122384881D02*
X74852262Y-122384881D01*
X74942976Y-122445357D01*
X75003452Y-122505833D01*
X75033690Y-122566310D01*
X74852262Y-121991786D02*
X74852262Y-121568452D01*
X75487262Y-121840595D01*
X72687262Y-123110595D02*
X72687262Y-123473453D01*
X72687262Y-123292024D02*
X72052262Y-123292024D01*
X72142976Y-123352500D01*
X72203452Y-123412976D01*
X72233690Y-123473453D01*
X72052262Y-122717500D02*
X72052262Y-122657024D01*
X72082500Y-122596548D01*
X72112738Y-122566310D01*
X72173214Y-122536072D01*
X72294167Y-122505833D01*
X72445357Y-122505833D01*
X72566310Y-122536072D01*
X72626786Y-122566310D01*
X72657024Y-122596548D01*
X72687262Y-122657024D01*
X72687262Y-122717500D01*
X72657024Y-122777976D01*
X72626786Y-122808214D01*
X72566310Y-122838453D01*
X72445357Y-122868691D01*
X72294167Y-122868691D01*
X72173214Y-122838453D01*
X72112738Y-122808214D01*
X72082500Y-122777976D01*
X72052262Y-122717500D01*
X72052262Y-122112738D02*
X72052262Y-122052262D01*
X72082500Y-121991786D01*
X72112738Y-121961548D01*
X72173214Y-121931310D01*
X72294167Y-121901071D01*
X72445357Y-121901071D01*
X72566310Y-121931310D01*
X72626786Y-121961548D01*
X72657024Y-121991786D01*
X72687262Y-122052262D01*
X72687262Y-122112738D01*
X72657024Y-122173214D01*
X72626786Y-122203452D01*
X72566310Y-122233691D01*
X72445357Y-122263929D01*
X72294167Y-122263929D01*
X72173214Y-122233691D01*
X72112738Y-122203452D01*
X72082500Y-122173214D01*
X72052262Y-122112738D01*
X72263929Y-121628929D02*
X72687262Y-121628929D01*
X72324405Y-121628929D02*
X72294167Y-121598690D01*
X72263929Y-121538214D01*
X72263929Y-121447500D01*
X72294167Y-121387024D01*
X72354643Y-121356786D01*
X72687262Y-121356786D01*
D16*
X65894334Y-84827429D02*
X66021334Y-84875810D01*
X66063667Y-84924190D01*
X66106001Y-85020952D01*
X66106001Y-85166095D01*
X66063667Y-85262857D01*
X66021334Y-85311238D01*
X65936667Y-85359619D01*
X65598001Y-85359619D01*
X65598001Y-84343619D01*
X65894334Y-84343619D01*
X65979001Y-84392000D01*
X66021334Y-84440381D01*
X66063667Y-84537143D01*
X66063667Y-84633905D01*
X66021334Y-84730667D01*
X65979001Y-84779048D01*
X65894334Y-84827429D01*
X65598001Y-84827429D01*
X66444667Y-85069333D02*
X66868001Y-85069333D01*
X66360001Y-85359619D02*
X66656334Y-84343619D01*
X66952667Y-85359619D01*
X67122001Y-84343619D02*
X67630001Y-84343619D01*
X67376001Y-85359619D02*
X67376001Y-84343619D01*
X69958333Y-84343619D02*
X69958333Y-85166095D01*
X70000666Y-85262857D01*
X70042999Y-85311238D01*
X70127666Y-85359619D01*
X70296999Y-85359619D01*
X70381666Y-85311238D01*
X70423999Y-85262857D01*
X70466333Y-85166095D01*
X70466333Y-84343619D01*
X70847332Y-85311238D02*
X70974332Y-85359619D01*
X71185999Y-85359619D01*
X71270666Y-85311238D01*
X71312999Y-85262857D01*
X71355332Y-85166095D01*
X71355332Y-85069333D01*
X71312999Y-84972571D01*
X71270666Y-84924190D01*
X71185999Y-84875810D01*
X71016666Y-84827429D01*
X70931999Y-84779048D01*
X70889666Y-84730667D01*
X70847332Y-84633905D01*
X70847332Y-84537143D01*
X70889666Y-84440381D01*
X70931999Y-84392000D01*
X71016666Y-84343619D01*
X71228332Y-84343619D01*
X71355332Y-84392000D01*
X72032666Y-84827429D02*
X72159666Y-84875810D01*
X72201999Y-84924190D01*
X72244333Y-85020952D01*
X72244333Y-85166095D01*
X72201999Y-85262857D01*
X72159666Y-85311238D01*
X72074999Y-85359619D01*
X71736333Y-85359619D01*
X71736333Y-84343619D01*
X72032666Y-84343619D01*
X72117333Y-84392000D01*
X72159666Y-84440381D01*
X72201999Y-84537143D01*
X72201999Y-84633905D01*
X72159666Y-84730667D01*
X72117333Y-84779048D01*
X72032666Y-84827429D01*
X71736333Y-84827429D01*
D13*
X93787262Y-122905833D02*
X93484881Y-123117500D01*
X93787262Y-123268691D02*
X93152262Y-123268691D01*
X93152262Y-123026786D01*
X93182500Y-122966310D01*
X93212738Y-122936071D01*
X93273214Y-122905833D01*
X93363929Y-122905833D01*
X93424405Y-122936071D01*
X93454643Y-122966310D01*
X93484881Y-123026786D01*
X93484881Y-123268691D01*
X93363929Y-122361548D02*
X93787262Y-122361548D01*
X93122024Y-122512738D02*
X93575595Y-122663929D01*
X93575595Y-122270833D01*
X93363929Y-121138453D02*
X93787262Y-121138453D01*
X93122024Y-121289643D02*
X93575595Y-121440834D01*
X93575595Y-121047738D01*
X93152262Y-120866310D02*
X93152262Y-120442976D01*
X93787262Y-120715119D01*
X93787262Y-120201072D02*
X93152262Y-120201072D01*
X93545357Y-120140595D02*
X93787262Y-119959167D01*
X93363929Y-119959167D02*
X93605833Y-120201072D01*
M02*
