G04 #@! TF.FileFunction,Profile,NP*
%FSLAX46Y46*%
G04 Gerber Fmt 4.6, Leading zero omitted, Abs format (unit mm)*
G04 Created by KiCad (PCBNEW (after 2015-mar-04 BZR unknown)-product) date Wed May  6 18:15:44 2015*
%MOMM*%
G01*
G04 APERTURE LIST*
%ADD10C,0.100000*%
G04 APERTURE END LIST*
D10*
X87500000Y-134500000D02*
X66500000Y-134500000D01*
X112500000Y-134500000D02*
X133500000Y-134500000D01*
X105000000Y-149500000D02*
X112500000Y-134500000D01*
X95000000Y-149500000D02*
X105000000Y-149500000D01*
X87500000Y-134500000D02*
X95000000Y-149500000D01*
X108000000Y-65500000D02*
X133500000Y-65500000D01*
X92000000Y-65500000D02*
X66500000Y-65500000D01*
X105000000Y-59500000D02*
X108000000Y-65500000D01*
X95000000Y-59500000D02*
X105000000Y-59500000D01*
X92000000Y-65500000D02*
X95000000Y-59500000D01*
X51000000Y-105500000D02*
X52000000Y-116000000D01*
X51000000Y-94500000D02*
X51000000Y-105500000D01*
X52000000Y-84000000D02*
X51000000Y-94500000D01*
X148000000Y-116000000D02*
X149000000Y-105500000D01*
X149000000Y-105500000D02*
X149000000Y-94500000D01*
X145000000Y-125000000D02*
X148000000Y-116000000D01*
X133500000Y-134500000D02*
X145000000Y-125000000D01*
X55000000Y-125000000D02*
X66500000Y-134500000D01*
X52000000Y-116000000D02*
X55000000Y-125000000D01*
X55000000Y-75000000D02*
X52000000Y-84000000D01*
X66500000Y-65500000D02*
X55000000Y-75000000D01*
X145000000Y-75000000D02*
X133500000Y-65500000D01*
X148000000Y-84000000D02*
X145000000Y-75000000D01*
X149000000Y-94500000D02*
X148000000Y-84000000D01*
M02*
