M48
;DRILL file {kicad (after 2015-mar-04 BZR unknown)-product} date Wed May  6 18:15:52 2015
;FORMAT={-:-/ absolute / inch / decimal}
FMAT,2
INCH,TZ
T1C0.012
T2C0.026
T3C0.028
T4C0.032
T5C0.039
T6C0.142
%
G90
G05
M72
T1
X2.2992Y-4.5748
X2.3425Y-3.622
X2.3661Y-4.6496
X2.5157Y-3.0118
X2.5157Y-3.0748
X2.6142Y-3.1811
X2.6476Y-4.4843
X2.6516Y-4.8425
X2.6772Y-3.1811
X2.685Y-3.2992
X2.697Y-3.3463
X2.7402Y-3.3504
X2.75Y-4.5709
X2.7913Y-4.4213
X2.8307Y-3.1654
X2.8307Y-4.7087
X2.8386Y-3.9606
X2.8465Y-4.0669
X2.8937Y-3.5433
X2.9331Y-3.5039
X2.9567Y-4.7795
X2.9921Y-3.4843
X3.0394Y-3.2126
X3.0551Y-3.1299
X3.0748Y-3.4173
X3.0906Y-4.0945
X3.0984Y-2.7717
X3.1024Y-4.1969
X3.1063Y-3.3661
X3.1181Y-4.0669
X3.1299Y-4.1339
X3.1535Y-3.3346
X3.1614Y-4.248
X3.1648Y-3.6872
X3.1694Y-3.7199
X3.185Y-3.759
X3.189Y-3.6181
X3.2327Y-3.9134
X3.2402Y-3.189
X3.2455Y-3.6992
X3.248Y-4.2992
X3.2638Y-3.8937
X3.2835Y-2.8307
X3.2854Y-4.0886
X3.2874Y-4.0512
X3.2913Y-3.8071
X3.2953Y-3.5669
X3.315Y-2.8307
X3.3175Y-4.7211
X3.3228Y-4.9882
X3.3414Y-4.3189
X3.3543Y-4.5433
X3.3543Y-4.5906
X3.3581Y-3.7563
X3.3583Y-3.9961
X3.3834Y-4.0251
X3.3858Y-3.8858
X3.4134Y-3.6339
X3.4231Y-3.7535
X3.4384Y-4.2283
X3.4449Y-4.685
X3.4646Y-2.8268
X3.4646Y-4.3031
X3.4843Y-4.5906
X3.4882Y-4.811
X3.4893Y-4.3626
X3.4941Y-3.9409
X3.5276Y-4.6929
X3.5472Y-4.2323
X3.561Y-3.9547
X3.5689Y-3.9134
X3.5709Y-4.5906
X3.5748Y-4.3465
X3.5821Y-4.1807
X3.5827Y-3.6339
X3.5945Y-4.0512
X3.6035Y-4.3301
X3.6142Y-4.5906
X3.6142Y-4.7008
X3.6535Y-4.8268
X3.6575Y-4.182
X3.6575Y-4.5906
X3.6969Y-3.6024
X3.7008Y-4.0975
X3.7241Y-3.9548
X3.7756Y-3.9481
X3.802Y-3.9283
X3.8355Y-3.9005
X3.8543Y-3.6555
X3.8592Y-3.5363
X3.8622Y-4.0787
X3.8976Y-4.1726
X3.8976Y-4.8993
X4.0118Y-4.2598
X4.0469Y-5.1102
X4.061Y-3.6831
X4.0709Y-2.6575
X4.0749Y-3.5592
X4.0776Y-4.4168
X4.0787Y-4.3228
X4.0925Y-3.6201
X4.1181Y-4.3504
X4.1487Y-3.6102
X4.1487Y-3.6572
X4.1645Y-3.6974
X4.1941Y-4.5446
X4.1949Y-3.5689
X4.2056Y-4.1614
X4.2056Y-4.2008
X4.2205Y-3.8937
X4.2205Y-3.937
X4.2205Y-3.9803
X4.2323Y-4.2244
X4.2323Y-4.5472
X4.241Y-4.5906
X4.2559Y-3.8937
X4.2559Y-3.937
X4.2559Y-3.9803
X4.2579Y-3.626
X4.2647Y-3.5846
X4.2835Y-3.6535
X4.2835Y-3.6969
X4.2913Y-3.8937
X4.2913Y-3.937
X4.2913Y-3.9803
X4.2953Y-2.9567
X4.3037Y-4.808
X4.308Y-3.6182
X4.3189Y-4.4016
X4.3268Y-3.8937
X4.3268Y-3.937
X4.3268Y-3.9803
X4.3307Y-4.1614
X4.3307Y-4.2008
X4.3386Y-3.3583
X4.3569Y-4.3687
X4.3598Y-4.2228
X4.3622Y-3.8937
X4.3622Y-3.937
X4.3622Y-3.9803
X4.3804Y-4.3455
X4.406Y-4.3779
X4.4193Y-3.5374
X4.4232Y-3.5787
X4.4486Y-4.0298
X4.45Y-3.6949
X4.4567Y-3.5374
X4.4736Y-4.1874
X4.4771Y-3.6637
X4.4785Y-3.8371
X4.4793Y-4.232
X4.4886Y-4.4251
X4.497Y-3.6901
X4.5039Y-4.4567
X4.5098Y-3.563
X4.5118Y-4.2598
X4.5197Y-3.6299
X4.5256Y-4.2244
X4.5394Y-4.4764
X4.5591Y-3.5906
X4.5824Y-3.642
X4.6024Y-4.4016
X4.6057Y-3.6187
X4.6102Y-4.1929
X4.6222Y-3.6509
X4.6308Y-3.367
X4.6496Y-5.1102
X4.6575Y-4.1535
X4.6575Y-4.1979
X4.6693Y-2.9528
X4.6732Y-2.6575
X4.6732Y-4.811
X4.6772Y-4.0472
X4.6929Y-3.4291
X4.7084Y-4.2977
X4.7165Y-4.0394
X4.7346Y-3.722
X4.7371Y-4.3843
X4.7427Y-4.3343
X4.7677Y-4.6024
X4.7677Y-4.7047
X4.7835Y-3.5197
X4.7874Y-3.5591
X4.7883Y-3.2598
X4.8071Y-3.3278
X4.8101Y-3.2872
X4.8144Y-3.5911
X4.8268Y-4.122
X4.8327Y-4.7028
X4.8461Y-3.3344
X4.8466Y-4.4098
X4.8543Y-4.0906
X4.8575Y-3.2878
X4.8644Y-4.1389
X4.8701Y-4.5787
X4.874Y-3.3167
X4.878Y-3.7323
X4.8806Y-3.4007
X4.8819Y-4.6181
X4.8838Y-4.4528
X4.8858Y-4.3701
X4.8898Y-3.4764
X4.8898Y-4.4134
X4.8898Y-4.6614
X4.8932Y-4.3194
X4.8937Y-3.5118
X4.8962Y-3.444
X4.8994Y-3.3425
X4.9049Y-3.8152
X4.9173Y-3.5394
X4.9261Y-4.3223
X4.9263Y-3.4246
X4.931Y-4.0531
X4.9367Y-3.567
X4.9442Y-4.8195
X4.9445Y-3.4904
X4.9449Y-3.7165
X4.9469Y-3.1614
X4.9484Y-4.3466
X4.9528Y-3.7717
X4.9528Y-3.8622
X4.9537Y-4.5328
X4.9581Y-3.0407
X4.9671Y-4.0521
X4.9685Y-3.558
X4.9687Y-4.085
X4.9757Y-4.5082
X4.9843Y-5.1142
X5.0118Y-2.6614
X5.0771Y-3.7697
X5.0828Y-4.0977
X5.0847Y-4.5468
X5.0866Y-3.3386
X5.0866Y-3.815
X5.1024Y-4.4488
X5.1338Y-3.4891
X5.1339Y-3.5236
X5.1339Y-3.563
X5.1339Y-3.5984
X5.1339Y-3.6339
X5.1339Y-4.2402
X5.1339Y-4.2756
X5.1339Y-4.311
X5.1339Y-4.3465
X5.1339Y-4.3819
X5.1535Y-3.9941
X5.1772Y-3.4882
X5.1772Y-3.5236
X5.1772Y-3.563
X5.1772Y-3.5984
X5.1772Y-3.6339
X5.1772Y-4.2402
X5.1772Y-4.2756
X5.1772Y-4.311
X5.1772Y-4.3465
X5.1772Y-4.3819
X5.187Y-4.687
X5.1888Y-2.9637
X5.1929Y-3.9016
X5.2181Y-4.7933
X5.2205Y-3.4882
X5.2205Y-3.5236
X5.2205Y-3.563
X5.2205Y-3.5984
X5.2205Y-3.6378
X5.2205Y-4.2402
X5.2205Y-4.2756
X5.2205Y-4.311
X5.2205Y-4.3465
X5.2205Y-4.3819
X5.2541Y-4.4809
X5.2638Y-5.1142
X5.2677Y-3.3937
X5.2772Y-3.8091
X5.2772Y-4.1043
X5.2874Y-2.6575
X5.3071Y-3.2677
X5.3722Y-4.0263
X5.3788Y-3.8191
X5.3872Y-4.3879
X5.4021Y-4.0403
X5.4118Y-4.4104
X5.4119Y-3.8069
X5.4173Y-3.4803
X5.4173Y-3.7579
X5.4195Y-4.3751
X5.4204Y-3.1496
X5.4252Y-4.6705
X5.4292Y-4.0591
X5.4392Y-3.509
X5.4449Y-3.8071
X5.4524Y-3.2183
X5.4532Y-4.5672
X5.454Y-4.796
X5.4567Y-3.0157
X5.4567Y-4.6535
X5.4674Y-3.128
X5.4707Y-3.5187
X5.4763Y-4.1687
X5.4823Y-4.3819
X5.4831Y-3.4811
X5.4843Y-4.4213
X5.5092Y-3.4608
X5.5287Y-3.7129
X5.5315Y-3.2008
X5.5342Y-4.5467
X5.5354Y-4.1457
X5.5413Y-4.4094
X5.5623Y-3.6724
X5.563Y-3.3701
X5.5828Y-3.825
X5.5866Y-4.0394
X5.6002Y-4.1687
X5.6102Y-3.7402
X5.6231Y-4.76
X5.6418Y-4.7125
X5.6594Y-4.4105
X5.6614Y-3.685
X5.6732Y-3.1378
X5.6732Y-2.9843
X5.6732Y-4.8858
X5.6761Y-3.1917
X5.6795Y-3.7142
X5.6811Y-4.752
X5.6915Y-4.4027
X5.7008Y-3.3878
X5.7223Y-4.4147
X5.7224Y-3.5118
X5.755Y-4.255
X5.7598Y-3.3386
X5.7618Y-3.4843
X5.7638Y-4.3976
X5.7717Y-4.1811
X5.7992Y-4.2087
X5.8071Y-3.6929
X5.8071Y-4.0472
T4
X2.1945Y-4.7784
X2.2543Y-4.9066
X2.2885Y-4.8126
T5
X2.1024Y-3.387
X2.1024Y-3.487
X2.1024Y-3.587
X2.1024Y-3.687
X2.1024Y-3.787
X2.1024Y-3.887
X2.1024Y-3.987
X2.1024Y-4.087
X2.1024Y-4.187
X2.1024Y-4.287
X2.1024Y-4.387
X2.1024Y-4.487
X2.5878Y-3.6614
X2.6165Y-3.4843
X2.6878Y-3.6614
X2.7165Y-3.4843
X2.8165Y-3.4843
X3.0787Y-4.6634
X3.0787Y-4.7634
X3.0787Y-4.8634
X3.0787Y-4.9634
X3.0787Y-5.0634
X3.0787Y-5.1634
X3.4028Y-3.165
X3.4028Y-3.265
X3.4028Y-3.365
X3.4028Y-3.465
X3.5028Y-3.165
X3.5028Y-3.265
X3.5028Y-3.365
X3.5028Y-3.465
T6
X3.937Y-2.5453
X3.937Y-5.6555
T2
X3.2549Y-2.7728G85X3.2549Y-2.7571
G05
X3.4459Y-2.7728G85X3.4459Y-2.7571
G05
T3
X3.2431Y-2.6555G85X3.2431Y-2.6359
G05
X3.4577Y-2.6555G85X3.4577Y-2.6359
G05
T0
M30
